<svg width="82" height="93" viewBox="0 0 82 93" fill="none" xmlns="http://www.w3.org/2000/svg">
<path d="M46.5 6C46.5 2.96243 44.0376 0.5 41 0.5C37.9624 0.5 35.5 2.96243 35.5 6L46.5 6ZM37.1109 90.8891C39.2588 93.037 42.7412 93.037 44.8891 90.8891L79.8909 55.8873C82.0388 53.7394 82.0388 50.257 79.8909 48.1091C77.743 45.9612 74.2606 45.9612 72.1127 48.1091L41 79.2218L9.8873 48.1091C7.73942 45.9612 4.25701 45.9612 2.10913 48.1091C-0.0387546 50.257 -0.0387545 53.7394 2.10913 55.8873L37.1109 90.8891ZM35.5 6L35.5 87L46.5 87L46.5 6L35.5 6Z" fill="#F2F6FA"/>
</svg>
