<svg width="72" height="15" viewBox="0 0 72 15" fill="none" xmlns="http://www.w3.org/2000/svg">
<path d="M7.224 14.972C3.105 14.972 0 11.7043 0 7.67371C0 3.63112 2.946 0.336381 7.224 0.336381C9.498 0.336381 11.07 1.03618 12.297 2.63399L10.317 4.28587C9.92821 3.85438 9.4507 3.51229 8.9173 3.28314C8.38389 3.05398 7.80725 2.94318 7.227 2.95836C4.437 2.95836 2.907 5.09378 2.907 7.67371C2.907 10.2536 4.584 12.35 7.227 12.35C8.466 12.35 9.522 11.9085 10.356 11.0195L12.309 12.7405C11.136 14.2722 9.522 14.972 7.224 14.972ZM20.844 4.23481H23.514V14.7167H20.844V13.185C20.289 14.2722 19.365 14.999 17.595 14.999C14.766 14.999 12.51 12.5362 12.51 9.5148C12.51 6.49337 14.766 4.03358 17.595 4.03358C19.35 4.03358 20.289 4.7574 20.844 5.84764V4.23481ZM20.922 9.5148C20.922 7.87494 19.8 6.5174 18.03 6.5174C16.326 6.5174 15.216 7.88996 15.216 9.5148C15.216 11.1006 16.326 12.5122 18.03 12.5122C19.788 12.5122 20.922 11.1427 20.922 9.5148ZM25.401 0H28.071V14.7017H25.401V0ZM29.256 13.3171C29.2567 13.1055 29.2996 12.8962 29.3821 12.7014C29.4646 12.5066 29.5851 12.3302 29.7365 12.1825C29.8879 12.0349 30.0672 11.9189 30.2639 11.8414C30.4606 11.764 30.6707 11.7265 30.882 11.7313C31.821 11.7313 32.481 12.4581 32.481 13.3171C32.485 13.529 32.4465 13.7396 32.3677 13.9363C32.289 14.133 32.1715 14.3119 32.0224 14.4623C31.8733 14.6127 31.6955 14.7316 31.4996 14.8119C31.3037 14.8923 31.0937 14.9324 30.882 14.93C30.6688 14.9332 30.4572 14.8937 30.2595 14.814C30.0617 14.7343 29.8819 14.6158 29.7304 14.4656C29.579 14.3154 29.4591 14.1365 29.3776 13.9393C29.2961 13.742 29.2548 13.5305 29.256 13.3171ZM42.69 13.0228C41.7 14.2332 40.194 14.999 38.412 14.999C37.6869 15.0127 36.9664 14.8806 36.2932 14.6104C35.6201 14.3401 35.008 13.9374 34.4932 13.4259C33.9784 12.9145 33.5715 12.3048 33.2964 11.6329C33.0214 10.9611 32.8838 10.2408 32.892 9.5148C32.892 6.49037 35.226 4.03358 38.412 4.03358C40.128 4.03358 41.622 4.7574 42.612 5.9017L40.551 7.63467C40.035 6.98894 39.363 6.50539 38.412 6.50539C36.708 6.50539 35.598 7.87494 35.598 9.50279C35.598 11.1276 36.708 12.4972 38.412 12.4972C39.441 12.4972 40.152 11.9596 40.683 11.2358L42.69 13.0228ZM42.915 9.5148C42.915 6.49037 45.255 4.03358 48.435 4.03358C51.615 4.03358 53.955 6.49037 53.955 9.5148C53.9632 10.2408 53.8256 10.9611 53.5506 11.6329C53.2756 12.3048 52.8686 12.9145 52.3538 13.4259C51.839 13.9374 51.2269 14.3401 50.5538 14.6104C49.8806 14.8806 49.1601 15.0127 48.435 14.999C45.255 14.984 42.915 12.5362 42.915 9.5148ZM51.249 9.5148C51.249 7.87494 50.139 6.5174 48.435 6.5174C46.731 6.50539 45.624 7.87494 45.624 9.5148C45.624 11.1427 46.734 12.5122 48.435 12.5122C50.136 12.5122 51.249 11.1427 51.249 9.5148ZM72 8.30743V14.7047H69.33V8.96518C69.33 7.15112 68.487 6.37023 67.218 6.37023C66.03 6.37023 65.184 6.96191 65.184 8.96518V14.7017H62.514V8.96518C62.514 7.15112 61.659 6.37023 60.402 6.37023C59.214 6.37023 58.17 6.96191 58.17 8.96518V14.7017H55.5V4.21979H58.17V5.67344C58.725 4.54416 59.73 3.97952 61.275 3.97952C62.742 3.97952 63.969 4.70334 64.644 5.92873C65.316 4.67631 66.306 3.97651 68.103 3.97651C70.296 3.99153 72 5.65843 72 8.30743Z" fill="#3F424A"/>
</svg>
