<svg width="21" height="24" viewBox="0 0 21 24" fill="none" xmlns="http://www.w3.org/2000/svg">
<path d="M19.5512 2.49029L5.30651 0.02595C4.84954 -0.052833 4.37934 0.0494197 3.99932 0.310222C3.61929 0.571025 3.36055 0.969022 3.27999 1.41669L0.0264145 19.5242C-0.0133798 19.746 -0.0081666 19.9734 0.0417563 20.1932C0.0916792 20.4131 0.185333 20.6211 0.317366 20.8055C0.449399 20.9899 0.617223 21.147 0.811248 21.2678C1.00527 21.3886 1.22169 21.4708 1.44815 21.5096L15.6928 23.9739C15.9193 24.0131 16.1515 24.0081 16.376 23.9593C16.6005 23.9104 16.813 23.8187 17.0013 23.6893C17.1897 23.56 17.3501 23.3955 17.4735 23.2053C17.5969 23.0152 17.6808 22.803 17.7204 22.5811L20.974 4.47354C21.0537 4.0257 20.9486 3.56518 20.6818 3.19326C20.4149 2.82134 20.0083 2.56848 19.5512 2.49029ZM11.3182 12.3808C11.2825 12.5791 11.1767 12.7588 11.0193 12.8883C10.862 13.0178 10.6631 13.0889 10.4575 13.0891C10.4062 13.089 10.355 13.0847 10.3044 13.0762L5.76583 12.2908C5.55014 12.2389 5.3627 12.1085 5.24153 11.9261C5.12036 11.7437 5.07454 11.523 5.11335 11.3087C5.15217 11.0944 5.27272 10.9026 5.45055 10.7723C5.62838 10.6419 5.85018 10.5826 6.07096 10.6065L10.6074 11.3876C10.7207 11.407 10.8289 11.4481 10.926 11.5086C11.023 11.569 11.107 11.6476 11.173 11.7398C11.239 11.8321 11.2858 11.9362 11.3107 12.0462C11.3357 12.1562 11.3382 12.2699 11.3182 12.3808ZM16.4583 9.79008C16.4227 9.98819 16.317 10.1677 16.1599 10.2972C16.0027 10.4266 15.8041 10.4978 15.5987 10.4983C15.547 10.4984 15.4954 10.4937 15.4445 10.4844L6.36734 8.9147C6.13878 8.87506 5.93565 8.74809 5.80264 8.56172C5.66964 8.37535 5.61765 8.14486 5.65811 7.92093C5.69857 7.69701 5.82817 7.498 6.0184 7.3677C6.20863 7.23739 6.4439 7.18646 6.67246 7.2261L15.7497 8.79684C15.863 8.81613 15.9714 8.85714 16.0686 8.91753C16.1658 8.97791 16.2498 9.05649 16.316 9.14875C16.3821 9.24101 16.429 9.34515 16.454 9.4552C16.479 9.56525 16.4816 9.67905 16.4616 9.79008H16.4583ZM17.0653 6.41287C17.0296 6.61116 16.9238 6.7908 16.7664 6.9203C16.609 7.0498 16.4101 7.12089 16.2046 7.12109C16.1533 7.12101 16.1021 7.1167 16.0515 7.10824L6.97431 5.53749C6.85855 5.5208 6.74739 5.48153 6.6474 5.42202C6.54741 5.3625 6.46062 5.28393 6.39217 5.19098C6.32371 5.09802 6.27498 4.99255 6.24887 4.88082C6.22275 4.76908 6.21977 4.65335 6.2401 4.54047C6.26044 4.42759 6.30368 4.31985 6.36727 4.22363C6.43085 4.12741 6.51349 4.04466 6.61029 3.98028C6.70709 3.9159 6.81609 3.87119 6.93084 3.84881C7.04558 3.82642 7.16375 3.82681 7.27834 3.84996L16.3555 5.41963C16.469 5.43879 16.5775 5.47972 16.6748 5.54005C16.7721 5.60038 16.8563 5.67894 16.9226 5.77121C16.9888 5.86349 17.0358 5.96767 17.0609 6.07778C17.0859 6.18789 17.0886 6.30176 17.0686 6.41287H17.0653Z" fill="#3F424A"/>
</svg>
