<svg width="37" height="37" viewBox="0 0 37 37" fill="none" xmlns="http://www.w3.org/2000/svg">
<path d="M18.5002 27.5912C23.521 27.5912 27.5912 23.521 27.5912 18.5002C27.5912 13.4794 23.521 9.40918 18.5002 9.40918C13.4794 9.40918 9.40918 13.4794 9.40918 18.5002C9.40918 23.521 13.4794 27.5912 18.5002 27.5912Z" stroke="#82848A" stroke-width="2" stroke-miterlimit="10" stroke-linecap="round" stroke-linejoin="round"/>
<path d="M32.5 18.5H36" stroke="#3F424A" stroke-width="2" stroke-miterlimit="10" stroke-linecap="round" stroke-linejoin="round"/>
<path d="M1 18.5H4.5" stroke="#3F424A" stroke-width="2" stroke-miterlimit="10" stroke-linecap="round" stroke-linejoin="round"/>
<path d="M18.5 32.5V36" stroke="#3F424A" stroke-miterlimit="10" stroke-linecap="round" stroke-linejoin="round"/>
<path d="M18.5 1V4.5" stroke="#3F424A" stroke-miterlimit="10" stroke-linecap="round" stroke-linejoin="round"/>
<path d="M18.5 32.5V36" stroke="#3F424A" stroke-width="2" stroke-miterlimit="10" stroke-linecap="round" stroke-linejoin="round"/>
<path d="M18.5 1V4.5" stroke="#3F424A" stroke-width="2" stroke-miterlimit="10" stroke-linecap="round" stroke-linejoin="round"/>
<path d="M8.60098 28.399L6.12598 30.8741" stroke="#3F424A" stroke-miterlimit="10" stroke-linecap="round" stroke-linejoin="round"/>
<path d="M30.8741 6.12598L28.399 8.60098" stroke="#3F424A" stroke-miterlimit="10" stroke-linecap="round" stroke-linejoin="round"/>
<path d="M8.60098 28.399L6.12598 30.8741" stroke="#3F424A" stroke-width="2" stroke-miterlimit="10" stroke-linecap="round" stroke-linejoin="round"/>
<path d="M30.8741 6.12598L28.399 8.60098" stroke="#3F424A" stroke-width="2" stroke-miterlimit="10" stroke-linecap="round" stroke-linejoin="round"/>
<path d="M8.60098 8.60098L6.12598 6.12598" stroke="#3F424A" stroke-miterlimit="10" stroke-linecap="round" stroke-linejoin="round"/>
<path d="M30.8741 30.8741L28.399 28.399" stroke="#3F424A" stroke-miterlimit="10" stroke-linecap="round" stroke-linejoin="round"/>
<path d="M8.60098 8.60098L6.12598 6.12598" stroke="#3F424A" stroke-width="2" stroke-miterlimit="10" stroke-linecap="round" stroke-linejoin="round"/>
<path d="M30.8741 30.8741L28.399 28.399" stroke="#3F424A" stroke-width="2" stroke-miterlimit="10" stroke-linecap="round" stroke-linejoin="round"/>
</svg>
