<svg width="1920" height="1388" viewBox="0 0 1920 1388" fill="none" xmlns="http://www.w3.org/2000/svg">
<path d="M-719 -139H-642.705V-62.7H-719V-139Z" fill="#E6E6E7"/>
<path d="M-719 -62.7H-642.705V13.6H-719V-62.7Z" fill="#E6E6E7"/>
<path d="M-719 13.6H-642.705V89.9H-719V13.6Z" fill="#E6E6E7"/>
<path d="M-719 89.9H-642.705V166.2H-719V89.9Z" fill="#E6E6E7"/>
<path d="M-719 166.2H-642.705V242.5H-719V166.2Z" fill="#E6E6E7"/>
<path d="M-719 242.5H-642.705V318.8H-719V242.5Z" fill="#E6E6E7"/>
<path d="M-719 318.8H-642.705V395.1H-719V318.8Z" fill="#E6E6E7"/>
<path d="M-719 395.1H-642.705V471.4H-719V395.1Z" fill="#E6E6E7"/>
<path d="M-719 471.4H-642.705V547.7H-719V471.4Z" fill="#E6E6E7"/>
<path d="M-719 547.7H-642.705V624H-719V547.7Z" fill="#E6E6E7"/>
<path d="M-719 624H-642.705V700.3H-719V624Z" fill="#E6E6E7"/>
<path d="M-719 700.3H-642.705V776.6H-719V700.3Z" fill="#E6E6E7"/>
<path d="M-719 776.6H-642.705V852.9H-719V776.6Z" fill="#E6E6E7"/>
<path d="M-719 852.9H-642.705V929.2H-719V852.9Z" fill="#E6E6E7"/>
<path d="M-719 929.2H-642.705V1005.5H-719V929.2Z" fill="#E6E6E7"/>
<path d="M-719 1005.5H-642.705V1081.8H-719V1005.5Z" fill="#E6E6E7"/>
<path d="M-719 1081.8H-642.705V1158.1H-719V1081.8Z" fill="#E6E6E7"/>
<path d="M-719 1158.1H-642.705V1234.4H-719V1158.1Z" fill="#E6E6E7"/>
<path d="M-719 1234.4H-642.705V1310.7H-719V1234.4Z" fill="#E6E6E7"/>
<path d="M-719 1310.7H-642.705V1387H-719V1310.7Z" fill="#E6E6E7"/>
<path d="M-642.705 -139H-566.409V-62.7H-642.705V-139Z" fill="#E6E6E7"/>
<path d="M-642.705 -62.7H-566.409V13.6H-642.705V-62.7Z" fill="#E6E6E7"/>
<path d="M-642.705 13.6H-566.409V89.9H-642.705V13.6Z" fill="#E6E6E7"/>
<path d="M-642.705 89.9H-566.409V166.2H-642.705V89.9Z" fill="#E6E6E7"/>
<path d="M-642.705 166.2H-566.409V242.5H-642.705V166.2Z" fill="#E6E6E7"/>
<path d="M-642.705 242.5H-566.409V318.8H-642.705V242.5Z" fill="#E6E6E7"/>
<path d="M-642.705 318.8H-566.409V395.1H-642.705V318.8Z" fill="#E6E6E7"/>
<path d="M-642.705 395.1H-566.409V471.4H-642.705V395.1Z" fill="#E6E6E7"/>
<path d="M-642.705 471.4H-566.409V547.7H-642.705V471.4Z" fill="#E6E6E7"/>
<path d="M-642.705 547.7H-566.409V624H-642.705V547.7Z" fill="#E6E6E7"/>
<path d="M-642.705 624H-566.409V700.3H-642.705V624Z" fill="#E6E6E7"/>
<path d="M-642.705 700.3H-566.409V776.6H-642.705V700.3Z" fill="#E6E6E7"/>
<path d="M-642.705 776.6H-566.409V852.9H-642.705V776.6Z" fill="#E6E6E7"/>
<path d="M-642.705 852.9H-566.409V929.2H-642.705V852.9Z" fill="#E6E6E7"/>
<path d="M-642.705 929.2H-566.409V1005.5H-642.705V929.2Z" fill="#E6E6E7"/>
<path d="M-642.705 1005.5H-566.409V1081.8H-642.705V1005.5Z" fill="#E6E6E7"/>
<path d="M-642.705 1081.8H-566.409V1158.1H-642.705V1081.8Z" fill="#E6E6E7"/>
<path d="M-642.705 1158.1H-566.409V1234.4H-642.705V1158.1Z" fill="#E6E6E7"/>
<path d="M-642.705 1234.4H-566.409V1310.7H-642.705V1234.4Z" fill="#E6E6E7"/>
<path d="M-642.705 1310.7H-566.409V1387H-642.705V1310.7Z" fill="#E6E6E7"/>
<path d="M-566.409 -139H-490.114V-62.7H-566.409V-139Z" fill="#E6E6E7"/>
<path d="M-566.409 -62.7H-490.114V13.6H-566.409V-62.7Z" fill="#E6E6E7"/>
<path d="M-566.409 13.6H-490.114V89.9H-566.409V13.6Z" fill="#E6E6E7"/>
<path d="M-566.409 89.9H-490.114V166.2H-566.409V89.9Z" fill="#E6E6E7"/>
<path d="M-566.409 166.2H-490.114V242.5H-566.409V166.2Z" fill="#E6E6E7"/>
<path d="M-566.409 242.5H-490.114V318.8H-566.409V242.5Z" fill="#E6E6E7"/>
<path d="M-566.409 318.8H-490.114V395.1H-566.409V318.8Z" fill="#E6E6E7"/>
<path d="M-566.409 395.1H-490.114V471.4H-566.409V395.1Z" fill="#E6E6E7"/>
<path d="M-566.409 471.4H-490.114V547.7H-566.409V471.4Z" fill="#E6E6E7"/>
<path d="M-566.409 547.7H-490.114V624H-566.409V547.7Z" fill="#E6E6E7"/>
<path d="M-566.409 624H-490.114V700.3H-566.409V624Z" fill="#E6E6E7"/>
<path d="M-566.409 700.3H-490.114V776.6H-566.409V700.3Z" fill="#E6E6E7"/>
<path d="M-566.409 776.6H-490.114V852.9H-566.409V776.6Z" fill="#E6E6E7"/>
<path d="M-566.409 852.9H-490.114V929.2H-566.409V852.9Z" fill="#E6E6E7"/>
<path d="M-566.409 929.2H-490.114V1005.5H-566.409V929.2Z" fill="#E6E6E7"/>
<path d="M-566.409 1005.5H-490.114V1081.8H-566.409V1005.5Z" fill="#E6E6E7"/>
<path d="M-566.409 1081.8H-490.114V1158.1H-566.409V1081.8Z" fill="#E6E6E7"/>
<path d="M-566.409 1158.1H-490.114V1234.4H-566.409V1158.1Z" fill="#E6E6E7"/>
<path d="M-566.409 1234.4H-490.114V1310.7H-566.409V1234.4Z" fill="#E6E6E7"/>
<path d="M-566.409 1310.7H-490.114V1387H-566.409V1310.7Z" fill="#E6E6E7"/>
<path d="M-490.114 -139H-413.818V-62.7H-490.114V-139Z" fill="#E6E6E7"/>
<path d="M-490.114 -62.7H-413.818V13.6H-490.114V-62.7Z" fill="#E6E6E7"/>
<path d="M-490.114 13.6H-413.818V89.9H-490.114V13.6Z" fill="#E6E6E7"/>
<path d="M-490.114 89.9H-413.818V166.2H-490.114V89.9Z" fill="#E6E6E7"/>
<path d="M-490.114 166.2H-413.818V242.5H-490.114V166.2Z" fill="#E6E6E7"/>
<path d="M-490.114 242.5H-413.818V318.8H-490.114V242.5Z" fill="#E6E6E7"/>
<path d="M-490.114 318.8H-413.818V395.1H-490.114V318.8Z" fill="#E6E6E7"/>
<path d="M-490.114 395.1H-413.818V471.4H-490.114V395.1Z" fill="#E6E6E7"/>
<path d="M-490.114 471.4H-413.818V547.7H-490.114V471.4Z" fill="#E6E6E7"/>
<path d="M-490.114 547.7H-413.818V624H-490.114V547.7Z" fill="#E6E6E7"/>
<path d="M-490.114 624H-413.818V700.3H-490.114V624Z" fill="#E6E6E7"/>
<path d="M-490.114 700.3H-413.818V776.6H-490.114V700.3Z" fill="#E6E6E7"/>
<path d="M-490.114 776.6H-413.818V852.9H-490.114V776.6Z" fill="#E6E6E7"/>
<path d="M-490.114 852.9H-413.818V929.2H-490.114V852.9Z" fill="#E6E6E7"/>
<path d="M-490.114 929.2H-413.818V1005.5H-490.114V929.2Z" fill="#E6E6E7"/>
<path d="M-490.114 1005.5H-413.818V1081.8H-490.114V1005.5Z" fill="#E6E6E7"/>
<path d="M-490.114 1081.8H-413.818V1158.1H-490.114V1081.8Z" fill="#E6E6E7"/>
<path d="M-490.114 1158.1H-413.818V1234.4H-490.114V1158.1Z" fill="#E6E6E7"/>
<path d="M-490.114 1234.4H-413.818V1310.7H-490.114V1234.4Z" fill="#E6E6E7"/>
<path d="M-490.114 1310.7H-413.818V1387H-490.114V1310.7Z" fill="#E6E6E7"/>
<path d="M-413.818 -139H-337.523V-62.7H-413.818V-139Z" fill="#E6E6E7"/>
<path d="M-413.818 -62.7H-337.523V13.6H-413.818V-62.7Z" fill="#E6E6E7"/>
<path d="M-413.818 13.6H-337.523V89.9H-413.818V13.6Z" fill="#E6E6E7"/>
<path d="M-413.818 89.9H-337.523V166.2H-413.818V89.9Z" fill="#E6E6E7"/>
<path d="M-413.818 166.2H-337.523V242.5H-413.818V166.2Z" fill="#E6E6E7"/>
<path d="M-413.818 242.5H-337.523V318.8H-413.818V242.5Z" fill="#E6E6E7"/>
<path d="M-413.818 318.8H-337.523V395.1H-413.818V318.8Z" fill="#E6E6E7"/>
<path d="M-413.818 395.1H-337.523V471.4H-413.818V395.1Z" fill="#E6E6E7"/>
<path d="M-413.818 471.4H-337.523V547.7H-413.818V471.4Z" fill="#E6E6E7"/>
<path d="M-413.818 547.7H-337.523V624H-413.818V547.7Z" fill="#E6E6E7"/>
<path d="M-413.818 624H-337.523V700.3H-413.818V624Z" fill="#E6E6E7"/>
<path d="M-413.818 700.3H-337.523V776.6H-413.818V700.3Z" fill="#E6E6E7"/>
<path d="M-413.818 776.6H-337.523V852.9H-413.818V776.6Z" fill="#E6E6E7"/>
<path d="M-413.818 852.9H-337.523V929.2H-413.818V852.9Z" fill="#E6E6E7"/>
<path d="M-413.818 929.2H-337.523V1005.5H-413.818V929.2Z" fill="#E6E6E7"/>
<path d="M-413.818 1005.5H-337.523V1081.8H-413.818V1005.5Z" fill="#E6E6E7"/>
<path d="M-413.818 1081.8H-337.523V1158.1H-413.818V1081.8Z" fill="#E6E6E7"/>
<path d="M-413.818 1158.1H-337.523V1234.4H-413.818V1158.1Z" fill="#E6E6E7"/>
<path d="M-413.818 1234.4H-337.523V1310.7H-413.818V1234.4Z" fill="#E6E6E7"/>
<path d="M-413.818 1310.7H-337.523V1387H-413.818V1310.7Z" fill="#E6E6E7"/>
<path d="M-337.523 -139H-261.227V-62.7H-337.523V-139Z" fill="#E6E6E7"/>
<path d="M-337.523 -62.7H-261.227V13.6H-337.523V-62.7Z" fill="#E6E6E7"/>
<path d="M-337.523 13.6H-261.227V89.9H-337.523V13.6Z" fill="#E6E6E7"/>
<path d="M-337.523 89.9H-261.227V166.2H-337.523V89.9Z" fill="#E6E6E7"/>
<path d="M-337.523 166.2H-261.227V242.5H-337.523V166.2Z" fill="#E6E6E7"/>
<path d="M-337.523 242.5H-261.227V318.8H-337.523V242.5Z" fill="#E6E6E7"/>
<path d="M-337.523 318.8H-261.227V395.1H-337.523V318.8Z" fill="#E6E6E7"/>
<path d="M-337.523 395.1H-261.227V471.4H-337.523V395.1Z" fill="#E6E6E7"/>
<path d="M-337.523 471.4H-261.227V547.7H-337.523V471.4Z" fill="#E6E6E7"/>
<path d="M-337.523 547.7H-261.227V624H-337.523V547.7Z" fill="#E6E6E7"/>
<path d="M-337.523 624H-261.227V700.3H-337.523V624Z" fill="#E6E6E7"/>
<path d="M-337.523 700.3H-261.227V776.6H-337.523V700.3Z" fill="#E6E6E7"/>
<path d="M-337.523 776.6H-261.227V852.9H-337.523V776.6Z" fill="#E6E6E7"/>
<path d="M-337.523 852.9H-261.227V929.2H-337.523V852.9Z" fill="#E6E6E7"/>
<path d="M-337.523 929.2H-261.227V1005.5H-337.523V929.2Z" fill="#E6E6E7"/>
<path d="M-337.523 1005.5H-261.227V1081.8H-337.523V1005.5Z" fill="#E6E6E7"/>
<path d="M-337.523 1081.8H-261.227V1158.1H-337.523V1081.8Z" fill="#E6E6E7"/>
<path d="M-337.523 1158.1H-261.227V1234.4H-337.523V1158.1Z" fill="#E6E6E7"/>
<path d="M-337.523 1234.4H-261.227V1310.7H-337.523V1234.4Z" fill="#E6E6E7"/>
<path d="M-337.523 1310.7H-261.227V1387H-337.523V1310.7Z" fill="#E6E6E7"/>
<path d="M-261.227 -139H-184.932V-62.7H-261.227V-139Z" fill="#E6E6E7"/>
<path d="M-261.227 -62.7H-184.932V13.6H-261.227V-62.7Z" fill="#E6E6E7"/>
<path d="M-261.227 13.6H-184.932V89.9H-261.227V13.6Z" fill="#E6E6E7"/>
<path d="M-261.227 89.9H-184.932V166.2H-261.227V89.9Z" fill="#E6E6E7"/>
<path d="M-261.227 166.2H-184.932V242.5H-261.227V166.2Z" fill="#E6E6E7"/>
<path d="M-261.227 242.5H-184.932V318.8H-261.227V242.5Z" fill="#E6E6E7"/>
<path d="M-261.227 318.8H-184.932V395.1H-261.227V318.8Z" fill="#E6E6E7"/>
<path d="M-261.227 471.4H-184.932V547.7H-261.227V471.4Z" fill="#E6E6E7"/>
<path d="M-261.227 547.7H-184.932V624H-261.227V547.7Z" fill="#E6E6E7"/>
<path d="M-261.227 624H-184.932V700.3H-261.227V624Z" fill="#E6E6E7"/>
<path d="M-261.227 700.3H-184.932V776.6H-261.227V700.3Z" fill="#E6E6E7"/>
<path d="M-261.227 776.6H-184.932V852.9H-261.227V776.6Z" fill="#E6E6E7"/>
<path d="M-261.227 852.9H-184.932V929.2H-261.227V852.9Z" fill="#E6E6E7"/>
<path d="M-261.227 929.2H-184.932V1005.5H-261.227V929.2Z" fill="#E6E6E7"/>
<path d="M-261.227 1005.5H-184.932V1081.8H-261.227V1005.5Z" fill="#E6E6E7"/>
<path d="M-261.227 1081.8H-184.932V1158.1H-261.227V1081.8Z" fill="#E6E6E7"/>
<path d="M-261.227 1158.1H-184.932V1234.4H-261.227V1158.1Z" fill="#E6E6E7"/>
<path d="M-261.227 1234.4H-184.932V1310.7H-261.227V1234.4Z" fill="#E6E6E7"/>
<path d="M-261.227 1310.7H-184.932V1387H-261.227V1310.7Z" fill="#E6E6E7"/>
<path d="M-184.932 -139H-108.636V-62.7H-184.932V-139Z" fill="#E6E6E7"/>
<path d="M-184.932 -62.7H-108.636V13.6H-184.932V-62.7Z" fill="#E6E6E7"/>
<path d="M-184.932 13.6H-108.636V89.9H-184.932V13.6Z" fill="#E6E6E7"/>
<path d="M-184.932 89.9H-108.636V166.2H-184.932V89.9Z" fill="#E6E6E7"/>
<path d="M-184.932 166.2H-108.636V242.5H-184.932V166.2Z" fill="#E6E6E7"/>
<path d="M-184.932 242.5H-108.636V318.8H-184.932V242.5Z" fill="#E6E6E7"/>
<path d="M-184.932 318.8H-108.636V395.1H-184.932V318.8Z" fill="#E6E6E7"/>
<path d="M-184.932 471.4H-108.636V547.7H-184.932V471.4Z" fill="#E6E6E7"/>
<path d="M-184.932 547.7H-108.636V624H-184.932V547.7Z" fill="#E6E6E7"/>
<path d="M-184.932 624H-108.636V700.3H-184.932V624Z" fill="#E6E6E7"/>
<path d="M-184.932 700.3H-108.636V776.6H-184.932V700.3Z" fill="#E6E6E7"/>
<path d="M-184.932 776.6H-108.636V852.9H-184.932V776.6Z" fill="#E6E6E7"/>
<path d="M-184.932 852.9H-108.636V929.2H-184.932V852.9Z" fill="#E6E6E7"/>
<path d="M-184.932 929.2H-108.636V1005.5H-184.932V929.2Z" fill="#E6E6E7"/>
<path d="M-184.932 1005.5H-108.636V1081.8H-184.932V1005.5Z" fill="#E6E6E7"/>
<path d="M-184.932 1081.8H-108.636V1158.1H-184.932V1081.8Z" fill="#E6E6E7"/>
<path d="M-184.932 1158.1H-108.636V1234.4H-184.932V1158.1Z" fill="#E6E6E7"/>
<path d="M-184.932 1234.4H-108.636V1310.7H-184.932V1234.4Z" fill="#E6E6E7"/>
<path d="M-184.932 1310.7H-108.636V1387H-184.932V1310.7Z" fill="#E6E6E7"/>
<path d="M-108.636 -139H-32.3409V-62.7H-108.636V-139Z" fill="#E6E6E7"/>
<path d="M-108.636 -62.7H-32.3409V13.6H-108.636V-62.7Z" fill="#E6E6E7"/>
<path d="M-108.636 13.6H-32.3409V89.9H-108.636V13.6Z" fill="#E6E6E7"/>
<path d="M-108.636 89.9H-32.3409V166.2H-108.636V89.9Z" fill="#E6E6E7"/>
<path d="M-108.636 166.2H-32.3409V242.5H-108.636V166.2Z" fill="#E6E6E7"/>
<path d="M-108.636 242.5H-32.3409V318.8H-108.636V242.5Z" fill="#E6E6E7"/>
<path d="M-108.636 318.8H-32.3409V395.1H-108.636V318.8Z" fill="#E6E6E7"/>
<path d="M-108.636 395.1H-32.3409V471.4H-108.636V395.1Z" fill="#E6E6E7"/>
<path d="M-108.636 471.4H-32.3409V547.7H-108.636V471.4Z" fill="#E6E6E7"/>
<path d="M-108.636 547.7H-32.3409V624H-108.636V547.7Z" fill="#E6E6E7"/>
<path d="M-108.636 624H-32.3409V700.3H-108.636V624Z" fill="#E6E6E7"/>
<path d="M-108.636 700.3H-32.3409V776.6H-108.636V700.3Z" fill="#E6E6E7"/>
<path d="M-108.636 776.6H-32.3409C-32.3409 776.6 -32.3409 823.103 -32.3409 852.9C-62.1361 852.9 -108.636 852.9 -108.636 852.9V776.6Z" fill="#E6E6E7"/>
<path d="M-108.636 852.9C-108.636 852.9 -62.1361 852.9 -32.3409 852.9C-32.3409 882.697 -32.3409 929.2 -32.3409 929.2H-108.636V852.9Z" fill="#E6E6E7"/>
<path d="M-108.636 929.2H-32.3409V1005.5H-108.636V929.2Z" fill="#E6E6E7"/>
<path d="M-108.636 1005.5H-32.3409V1081.8H-108.636V1005.5Z" fill="#E6E6E7"/>
<path d="M-108.636 1081.8H-32.3409V1158.1H-108.636V1081.8Z" fill="#E6E6E7"/>
<path d="M-108.636 1158.1H-32.3409V1234.4H-108.636V1158.1Z" fill="#E6E6E7"/>
<path d="M-108.636 1234.4H-32.3409V1310.7H-108.636V1234.4Z" fill="#E6E6E7"/>
<path d="M-108.636 1310.7H-32.3409V1387H-108.636V1310.7Z" fill="#E6E6E7"/>
<path d="M-32.3409 -139H43.9546V-62.7H-32.3409V-139Z" fill="#E6E6E7"/>
<path d="M-32.3409 -62.7H43.9546V13.6H-32.3409V-62.7Z" fill="#E6E6E7"/>
<path d="M-32.3409 13.6H43.9546V89.9H-32.3409V13.6Z" fill="#E6E6E7"/>
<path d="M-32.3409 89.9H43.9546V166.2H-32.3409V89.9Z" fill="#E6E6E7"/>
<path d="M-32.3409 166.2H43.9546V242.5H-32.3409V166.2Z" fill="#E6E6E7"/>
<path d="M-32.3409 242.5H43.9546V318.8H-32.3409V242.5Z" fill="#E6E6E7"/>
<path d="M-32.3409 318.8H43.9546V395.1H-32.3409V318.8Z" fill="#E6E6E7"/>
<path d="M-32.3409 395.1H43.9546V471.4H-32.3409V395.1Z" fill="#E6E6E7"/>
<path d="M-32.3409 471.4H43.9546V547.7H-32.3409V471.4Z" fill="#E6E6E7"/>
<path d="M-32.3409 547.7H43.9546V624H-32.3409V547.7Z" fill="#E6E6E7"/>
<path d="M-32.3409 624H43.9546V700.3H-32.3409V624Z" fill="#E6E6E7"/>
<path d="M-32.3409 700.3H43.9546V776.6H-32.3409V700.3Z" fill="#E6E6E7"/>
<path d="M-32.3409 776.6H43.9546V852.9C43.9546 852.9 -2.54565 852.9 -32.3409 852.9C-32.3409 823.103 -32.3409 776.6 -32.3409 776.6Z" fill="#E6E6E7"/>
<path d="M-32.3409 852.9C-2.54565 852.9 43.9546 852.9 43.9546 852.9V929.2H-32.3409C-32.3409 929.2 -32.3409 882.697 -32.3409 852.9Z" fill="#E6E6E7"/>
<path d="M-32.3409 929.2H43.9546V1005.5H-32.3409V929.2Z" fill="#E6E6E7"/>
<path d="M-32.3409 1005.5H43.9546V1081.8H-32.3409V1005.5Z" fill="#E6E6E7"/>
<path d="M-32.3409 1081.8H43.9546V1158.1H-32.3409V1081.8Z" fill="#E6E6E7"/>
<path d="M-32.3409 1158.1H43.9546V1234.4H-32.3409V1158.1Z" fill="#E6E6E7"/>
<path d="M-32.3409 1234.4H43.9546V1310.7H-32.3409V1234.4Z" fill="#E6E6E7"/>
<path d="M-32.3409 1310.7H43.9546V1387H-32.3409V1310.7Z" fill="#E6E6E7"/>
<path d="M43.9546 -139H120.25V-62.7H43.9546V-139Z" fill="#E6E6E7"/>
<path d="M43.9546 -62.7H120.25V13.6H43.9546V-62.7Z" fill="#E6E6E7"/>
<path d="M43.9546 13.6H120.25V89.9H43.9546V13.6Z" fill="#E6E6E7"/>
<path d="M43.9546 89.9H120.25V166.2H43.9546V89.9Z" fill="#E6E6E7"/>
<path d="M43.9546 166.2H120.25V242.5H43.9546V166.2Z" fill="#E6E6E7"/>
<path d="M43.9546 242.5H120.25V318.8H43.9546V242.5Z" fill="#E6E6E7"/>
<path d="M43.9546 318.8H120.25V395.1H43.9546V318.8Z" fill="#E6E6E7"/>
<path d="M43.9546 395.1H120.25V471.4H43.9546V395.1Z" fill="#E6E6E7"/>
<path d="M43.9546 471.4H120.25V547.7H43.9546V471.4Z" fill="#E6E6E7"/>
<path d="M43.9546 547.7H120.25V624H43.9546V547.7Z" fill="#E6E6E7"/>
<path d="M43.9546 624H120.25V700.3H43.9546V624Z" fill="#E6E6E7"/>
<path d="M43.9546 700.3H120.25V776.6H43.9546V700.3Z" fill="#E6E6E7"/>
<path d="M43.9546 776.6H120.25V852.9H43.9546V776.6Z" fill="#E6E6E7"/>
<path d="M43.9546 852.9H120.25V929.2H43.9546V852.9Z" fill="#E6E6E7"/>
<path d="M43.9546 929.2H120.25V1005.5H43.9546V929.2Z" fill="#E6E6E7"/>
<path d="M43.9546 1005.5H120.25V1081.8H43.9546V1005.5Z" fill="#E6E6E7"/>
<path d="M43.9546 1081.8H120.25V1158.1H43.9546V1081.8Z" fill="#E6E6E7"/>
<path d="M43.9546 1158.1H120.25V1234.4H43.9546V1158.1Z" fill="#E6E6E7"/>
<path d="M43.9546 1234.4H120.25V1310.7H43.9546V1234.4Z" fill="#E6E6E7"/>
<path d="M43.9546 1310.7H120.25V1387H43.9546V1310.7Z" fill="#E6E6E7"/>
<path d="M120.25 -139H196.545V-62.7H120.25V-139Z" fill="#E6E6E7"/>
<path d="M120.25 -62.7H196.545V13.6H120.25V-62.7Z" fill="#E6E6E7"/>
<path d="M120.25 13.6H196.545V89.9H120.25V13.6Z" fill="#E6E6E7"/>
<path d="M120.25 318.8H196.545V395.1H120.25V318.8Z" fill="#E6E6E7"/>
<path d="M120.25 395.1H196.545V471.4H120.25V395.1Z" fill="#E6E6E7"/>
<path d="M120.25 471.4H196.545V547.7H120.25V471.4Z" fill="#E6E6E7"/>
<path d="M120.25 547.7H196.545V624H120.25V547.7Z" fill="#E6E6E7"/>
<path d="M120.25 624H196.545V700.3H120.25V624Z" fill="#E6E6E7"/>
<path d="M120.25 700.3H196.545V776.6H120.25V700.3Z" fill="#E6E6E7"/>
<path d="M120.25 776.6H196.545V852.9H120.25V776.6Z" fill="#E6E6E7"/>
<path d="M120.25 852.9H196.545V929.2H120.25V852.9Z" fill="#E6E6E7"/>
<path d="M120.25 929.2H196.545V1005.5H120.25V929.2Z" fill="#E6E6E7"/>
<path d="M120.25 1005.5H196.545V1081.8H120.25V1005.5Z" fill="#E6E6E7"/>
<path d="M120.25 1081.8H196.545V1158.1H120.25V1081.8Z" fill="#E6E6E7"/>
<path d="M120.25 1158.1H196.545V1234.4H120.25V1158.1Z" fill="#E6E6E7"/>
<path d="M120.25 1234.4H196.545V1310.7H120.25V1234.4Z" fill="#E6E6E7"/>
<path d="M120.25 1310.7H196.545V1387H120.25V1310.7Z" fill="#E6E6E7"/>
<path d="M196.545 -139H272.841V-62.7H196.545V-139Z" fill="#E6E6E7"/>
<path d="M196.545 -62.7H272.841V13.6H196.545V-62.7Z" fill="#E6E6E7"/>
<path d="M196.545 13.6H272.841V89.9H196.545V13.6Z" fill="#E6E6E7"/>
<path d="M196.545 318.8H272.841V395.1H196.545V318.8Z" fill="#E6E6E7"/>
<path d="M196.545 395.1H272.841V471.4H196.545V395.1Z" fill="#E6E6E7"/>
<path d="M196.545 471.4H272.841V547.7H196.545V471.4Z" fill="#E6E6E7"/>
<path d="M196.545 547.7H272.841V624H196.545V547.7Z" fill="#E6E6E7"/>
<path d="M196.545 624H272.841V700.3H196.545V624Z" fill="#E6E6E7"/>
<path d="M196.545 700.3H272.841V776.6H196.545V700.3Z" fill="#E6E6E7"/>
<path d="M196.545 776.6H272.841V852.9H196.545V776.6Z" fill="#E6E6E7"/>
<path d="M196.545 852.9H272.841V929.2H196.545V852.9Z" fill="#E6E6E7"/>
<path d="M196.545 929.2H272.841V1005.5H196.545V929.2Z" fill="#E6E6E7"/>
<path d="M196.545 1005.5H272.841V1081.8H196.545V1005.5Z" fill="#E6E6E7"/>
<path d="M196.545 1081.8H272.841V1158.1H196.545V1081.8Z" fill="#E6E6E7"/>
<path d="M196.545 1158.1H272.841V1234.4H196.545V1158.1Z" fill="#E6E6E7"/>
<path d="M196.545 1234.4H272.841V1310.7H196.545V1234.4Z" fill="#E6E6E7"/>
<path d="M196.545 1310.7H272.841V1387H196.545V1310.7Z" fill="#E6E6E7"/>
<path d="M272.841 -139H349.136V-62.7H272.841V-139Z" fill="#E6E6E7"/>
<path d="M272.841 -62.7H349.136V13.6H272.841V-62.7Z" fill="#E6E6E7"/>
<path d="M272.841 13.6H349.136V89.9H272.841V13.6Z" fill="#E6E6E7"/>
<path d="M272.841 318.8H349.136V395.1H272.841V318.8Z" fill="#E6E6E7"/>
<path d="M272.841 395.1H349.136V471.4H272.841V395.1Z" fill="#E6E6E7"/>
<path d="M272.841 471.4H349.136V547.7H272.841V471.4Z" fill="#E6E6E7"/>
<path d="M272.841 547.7H349.136V624H272.841V547.7Z" fill="#E6E6E7"/>
<path d="M272.841 624H349.136V700.3H272.841V624Z" fill="#E6E6E7"/>
<path d="M272.841 700.3H349.136V776.6H272.841V700.3Z" fill="#E6E6E7"/>
<path d="M272.841 776.6H349.136V852.9H272.841V776.6Z" fill="#E6E6E7"/>
<path d="M272.841 852.9H349.136V929.2H272.841V852.9Z" fill="#E6E6E7"/>
<path d="M272.841 929.2H349.136V1005.5H272.841V929.2Z" fill="#E6E6E7"/>
<path d="M272.841 1005.5H349.136V1081.8H272.841V1005.5Z" fill="#E6E6E7"/>
<path d="M272.841 1081.8H349.136V1158.1H272.841V1081.8Z" fill="#E6E6E7"/>
<path d="M272.841 1158.1H349.136V1234.4H272.841V1158.1Z" fill="#E6E6E7"/>
<path d="M272.841 1234.4H349.136V1310.7H272.841V1234.4Z" fill="#E6E6E7"/>
<path d="M272.841 1310.7H349.136V1387H272.841V1310.7Z" fill="#E6E6E7"/>
<path d="M349.136 -139H425.432V-62.7H349.136V-139Z" fill="#E6E6E7"/>
<path d="M349.136 -62.7H425.432V13.6H349.136V-62.7Z" fill="#E6E6E7"/>
<path d="M349.136 13.6H425.432V89.9H349.136V13.6Z" fill="#E6E6E7"/>
<path d="M349.136 471.4H425.432V547.7H349.136V471.4Z" fill="#E6E6E7"/>
<path d="M349.136 547.7H425.432V624H349.136V547.7Z" fill="#E6E6E7"/>
<path d="M349.136 624H425.432V700.3H349.136V624Z" fill="#E6E6E7"/>
<path d="M349.136 700.3H425.432V776.6H349.136V700.3Z" fill="#E6E6E7"/>
<path d="M349.136 776.6H425.432V852.9H349.136V776.6Z" fill="#E6E6E7"/>
<path d="M349.136 852.9H425.432V929.2H349.136V852.9Z" fill="#E6E6E7"/>
<path d="M349.136 929.2H425.432V1005.5H349.136V929.2Z" fill="#E6E6E7"/>
<path d="M349.136 1005.5H425.432V1081.8H349.136V1005.5Z" fill="#E6E6E7"/>
<path d="M349.136 1081.8H425.432V1158.1H349.136V1081.8Z" fill="#E6E6E7"/>
<path d="M349.136 1158.1H425.432V1234.4H349.136V1158.1Z" fill="#E6E6E7"/>
<path d="M349.136 1234.4H425.432V1310.7H349.136V1234.4Z" fill="#E6E6E7"/>
<path d="M349.136 1310.7H425.432V1387H349.136V1310.7Z" fill="#E6E6E7"/>
<path d="M425.432 -139H501.727V-62.7H425.432V-139Z" fill="#E6E6E7"/>
<path d="M425.432 -62.7H501.727V13.6H425.432V-62.7Z" fill="#E6E6E7"/>
<path d="M425.432 13.6H501.727V89.9H425.432V13.6Z" fill="#E6E6E7"/>
<path d="M425.432 471.4H501.727V547.7H425.432V471.4Z" fill="#E6E6E7"/>
<path d="M425.432 547.7H501.727V624H425.432V547.7Z" fill="#E6E6E7"/>
<path d="M425.432 624H501.727V700.3H425.432V624Z" fill="#E6E6E7"/>
<path d="M425.432 700.3H501.727V776.6H425.432V700.3Z" fill="#E6E6E7"/>
<path d="M425.432 776.6H501.727V852.9H425.432V776.6Z" fill="#E6E6E7"/>
<path d="M425.432 852.9H501.727V929.2H425.432V852.9Z" fill="#E6E6E7"/>
<path d="M425.432 929.2H501.727V1005.5H425.432V929.2Z" fill="#E6E6E7"/>
<path d="M425.432 1005.5H501.727V1081.8H425.432V1005.5Z" fill="#E6E6E7"/>
<path d="M425.432 1081.8H501.727V1158.1H425.432V1081.8Z" fill="#E6E6E7"/>
<path d="M425.432 1158.1H501.727V1234.4H425.432V1158.1Z" fill="#E6E6E7"/>
<path d="M425.432 1234.4H501.727V1310.7H425.432V1234.4Z" fill="#E6E6E7"/>
<path d="M425.432 1310.7H501.727V1387H425.432V1310.7Z" fill="#E6E6E7"/>
<path d="M501.727 -139H578.023V-62.7H501.727V-139Z" fill="#E6E6E7"/>
<path d="M501.727 -62.7H578.023V13.6H501.727V-62.7Z" fill="#E6E6E7"/>
<path d="M501.727 13.6H578.023V89.9H501.727V13.6Z" fill="#E6E6E7"/>
<path d="M501.727 471.4H578.023V547.7H501.727V471.4Z" fill="#E6E6E7"/>
<path d="M501.727 547.7H578.023V624H501.727V547.7Z" fill="#E6E6E7"/>
<path d="M501.727 624H578.023V700.3H501.727V624Z" fill="#E6E6E7"/>
<path d="M501.727 700.3H578.023V776.6H501.727V700.3Z" fill="#E6E6E7"/>
<path d="M501.727 776.6H578.023V852.9H501.727V776.6Z" fill="#E6E6E7"/>
<path d="M501.727 852.9H578.023V929.2H501.727V852.9Z" fill="#E6E6E7"/>
<path d="M501.727 929.2H578.023V1005.5H501.727V929.2Z" fill="#E6E6E7"/>
<path d="M501.727 1005.5H578.023V1081.8H501.727V1005.5Z" fill="#E6E6E7"/>
<path d="M501.727 1081.8H578.023V1158.1H501.727V1081.8Z" fill="#E6E6E7"/>
<path d="M501.727 1158.1H578.023V1234.4H501.727V1158.1Z" fill="#E6E6E7"/>
<path d="M501.727 1234.4H578.023V1310.7H501.727V1234.4Z" fill="#E6E6E7"/>
<path d="M501.727 1310.7H578.023V1387H501.727V1310.7Z" fill="#E6E6E7"/>
<path d="M578.023 -139H654.318V-62.7H578.023V-139Z" fill="#E6E6E7"/>
<path d="M578.023 -62.7H654.318V13.6H578.023V-62.7Z" fill="#E6E6E7"/>
<path d="M578.023 13.6H654.318V89.9H578.023V13.6Z" fill="#E6E6E7"/>
<path d="M578.023 471.4H654.318V547.7H578.023V471.4Z" fill="#E6E6E7"/>
<path d="M578.023 547.7H654.318V624H578.023V547.7Z" fill="#E6E6E7"/>
<path d="M578.023 624H654.318V700.3H578.023V624Z" fill="#E6E6E7"/>
<path d="M578.023 700.3H654.318V776.6H578.023V700.3Z" fill="#E6E6E7"/>
<path d="M578.023 776.6H654.318V852.9H578.023V776.6Z" fill="#E6E6E7"/>
<path d="M578.023 852.9H654.318V929.2H578.023V852.9Z" fill="#E6E6E7"/>
<path d="M578.023 929.2H654.318V1005.5H578.023V929.2Z" fill="#E6E6E7"/>
<path d="M578.023 1005.5H654.318V1081.8H578.023V1005.5Z" fill="#E6E6E7"/>
<path d="M578.023 1081.8H654.318V1158.1H578.023V1081.8Z" fill="#E6E6E7"/>
<path d="M578.023 1158.1H654.318V1234.4H578.023V1158.1Z" fill="#E6E6E7"/>
<path d="M578.023 1234.4H654.318V1310.7H578.023V1234.4Z" fill="#E6E6E7"/>
<path d="M578.023 1310.7H654.318V1387H578.023V1310.7Z" fill="#E6E6E7"/>
<path d="M654.318 -139H730.614V-62.7H654.318V-139Z" fill="#E6E6E7"/>
<path d="M654.318 -62.7H730.614V13.6H654.318V-62.7Z" fill="#E6E6E7"/>
<path d="M654.318 13.6H730.614V89.9H654.318V13.6Z" fill="#E6E6E7"/>
<path d="M654.318 471.4H730.614V547.7H654.318V471.4Z" fill="#E6E6E7"/>
<path d="M654.318 547.7H730.614V624H654.318V547.7Z" fill="#E6E6E7"/>
<path d="M654.318 624H730.614V700.3H654.318V624Z" fill="#E6E6E7"/>
<path d="M654.318 700.3H730.614V776.6H654.318V700.3Z" fill="#E6E6E7"/>
<path d="M654.318 776.6H730.614V852.9H654.318V776.6Z" fill="#E6E6E7"/>
<path d="M654.318 852.9H730.614V929.2H654.318V852.9Z" fill="#E6E6E7"/>
<path d="M654.318 929.2H730.614V1005.5H654.318V929.2Z" fill="#E6E6E7"/>
<path d="M654.318 1005.5H730.614V1081.8H654.318V1005.5Z" fill="#E6E6E7"/>
<path d="M654.318 1081.8H730.614V1158.1H654.318V1081.8Z" fill="#E6E6E7"/>
<path d="M654.318 1158.1H730.614V1234.4H654.318V1158.1Z" fill="#E6E6E7"/>
<path d="M654.318 1234.4H730.614V1310.7H654.318V1234.4Z" fill="#E6E6E7"/>
<path d="M654.318 1310.7H730.614V1387H654.318V1310.7Z" fill="#E6E6E7"/>
<path d="M730.614 -139H806.909V-62.7H730.614V-139Z" fill="#E6E6E7"/>
<path d="M730.614 -62.7H806.909V13.6H730.614V-62.7Z" fill="#E6E6E7"/>
<path d="M730.614 13.6H806.909V89.9H730.614V13.6Z" fill="#E6E6E7"/>
<path d="M730.614 471.4H806.909V547.7H730.614V471.4Z" fill="#E6E6E7"/>
<path d="M730.614 547.7H806.909V624H730.614V547.7Z" fill="#E6E6E7"/>
<path d="M730.614 624H806.909V700.3H730.614V624Z" fill="#E6E6E7"/>
<path d="M730.614 700.3H806.909V776.6H730.614V700.3Z" fill="#E6E6E7"/>
<path d="M730.614 776.6H806.909V852.9H730.614V776.6Z" fill="#E6E6E7"/>
<path d="M730.614 852.9H806.909V929.2H730.614V852.9Z" fill="#E6E6E7"/>
<path d="M730.614 929.2H806.909V1005.5H730.614V929.2Z" fill="#E6E6E7"/>
<path d="M730.614 1005.5H806.909V1081.8H730.614V1005.5Z" fill="#E6E6E7"/>
<path d="M730.614 1081.8H806.909V1158.1H730.614V1081.8Z" fill="#E6E6E7"/>
<path d="M730.614 1158.1H806.909V1234.4H730.614V1158.1Z" fill="#E6E6E7"/>
<path d="M730.614 1234.4H806.909V1310.7H730.614V1234.4Z" fill="#E6E6E7"/>
<path d="M730.614 1310.7H806.909V1387H730.614V1310.7Z" fill="#E6E6E7"/>
<path d="M806.909 -139H883.205V-62.7H806.909V-139Z" fill="#E6E6E7"/>
<path d="M806.909 13.6H883.205V89.9H806.909V13.6Z" fill="#E6E6E7"/>
<path d="M806.909 471.4H883.205V547.7H806.909V471.4Z" fill="#E6E6E7"/>
<path d="M806.909 547.7H883.205V624H806.909V547.7Z" fill="#E6E6E7"/>
<path d="M806.909 624H883.205V700.3H806.909V624Z" fill="#E6E6E7"/>
<path d="M806.909 700.3H883.205V776.6H806.909V700.3Z" fill="#E6E6E7"/>
<path d="M806.909 776.6H883.205V852.9H806.909V776.6Z" fill="#E6E6E7"/>
<path d="M806.909 852.9H883.205V929.2H806.909V852.9Z" fill="#E6E6E7"/>
<path d="M806.909 929.2H883.205V1005.5H806.909V929.2Z" fill="#E6E6E7"/>
<path d="M806.909 1005.5H883.205V1081.8H806.909V1005.5Z" fill="#E6E6E7"/>
<path d="M806.909 1081.8H883.205V1158.1H806.909V1081.8Z" fill="#E6E6E7"/>
<path d="M806.909 1158.1H883.205V1234.4H806.909V1158.1Z" fill="#E6E6E7"/>
<path d="M806.909 1234.4H883.205V1310.7H806.909V1234.4Z" fill="#E6E6E7"/>
<path d="M806.909 1310.7H883.205V1387H806.909V1310.7Z" fill="#E6E6E7"/>
<path d="M883.205 -139H959.5V-62.7H883.205V-139Z" fill="#E6E6E7"/>
<path d="M883.205 13.6H959.5V89.9H883.205V13.6Z" fill="#E6E6E7"/>
<path d="M883.205 471.4H959.5V547.7H883.205V471.4Z" fill="#E6E6E7"/>
<path d="M883.205 547.7H959.5V624H883.205V547.7Z" fill="#E6E6E7"/>
<path d="M883.205 624H959.5V700.3H883.205V624Z" fill="#E6E6E7"/>
<path d="M883.205 700.3H959.5V776.6H883.205V700.3Z" fill="#E6E6E7"/>
<path d="M883.205 776.6H959.5V852.9H883.205V776.6Z" fill="#E6E6E7"/>
<path d="M883.205 852.9H959.5V929.2H883.205V852.9Z" fill="#E6E6E7"/>
<path d="M883.205 929.2H959.5V1005.5H883.205V929.2Z" fill="#E6E6E7"/>
<path d="M883.205 1005.5H959.5V1081.8H883.205V1005.5Z" fill="#E6E6E7"/>
<path d="M883.205 1081.8H959.5V1158.1H883.205V1081.8Z" fill="#E6E6E7"/>
<path d="M883.205 1158.1H959.5V1234.4H883.205V1158.1Z" fill="#E6E6E7"/>
<path d="M883.205 1234.4H959.5V1310.7H883.205V1234.4Z" fill="#E6E6E7"/>
<path d="M883.205 1310.7H959.5V1387H883.205V1310.7Z" fill="#E6E6E7"/>
<path d="M959.5 -139H1035.8V-62.7H959.5V-139Z" fill="#E6E6E7"/>
<path d="M959.5 13.6H1035.8V89.9H959.5V13.6Z" fill="#E6E6E7"/>
<path d="M959.5 471.4H1035.8V547.7H959.5V471.4Z" fill="#E6E6E7"/>
<path d="M959.5 547.7H1035.8V624H959.5V547.7Z" fill="#E6E6E7"/>
<path d="M959.5 624H1035.8V700.3H959.5V624Z" fill="#E6E6E7"/>
<path d="M959.5 700.3H1035.8V776.6H959.5V700.3Z" fill="#E6E6E7"/>
<path d="M959.5 776.6H1035.8V852.9H959.5V776.6Z" fill="#E6E6E7"/>
<path d="M959.5 852.9H1035.8V929.2H959.5V852.9Z" fill="#E6E6E7"/>
<path d="M959.5 929.2H1035.8V1005.5H959.5V929.2Z" fill="#E6E6E7"/>
<path d="M959.5 1005.5H1035.8V1081.8H959.5V1005.5Z" fill="#E6E6E7"/>
<path d="M959.5 1081.8H1035.8V1158.1H959.5V1081.8Z" fill="#E6E6E7"/>
<path d="M959.5 1158.1H1035.8V1234.4H959.5V1158.1Z" fill="#E6E6E7"/>
<path d="M959.5 1234.4H1035.8V1310.7H959.5V1234.4Z" fill="#E6E6E7"/>
<path d="M959.5 1310.7H1035.8V1387H959.5V1310.7Z" fill="#E6E6E7"/>
<path d="M1035.8 -139H1112.09V-62.7H1035.8V-139Z" fill="#E6E6E7"/>
<path d="M1035.8 13.6H1112.09V89.9H1035.8V13.6Z" fill="#E6E6E7"/>
<path d="M1035.8 471.4H1112.09V547.7H1035.8V471.4Z" fill="#E6E6E7"/>
<path d="M1035.8 547.7H1112.09V624H1035.8V547.7Z" fill="#E6E6E7"/>
<path d="M1035.8 624H1112.09V700.3H1035.8V624Z" fill="#E6E6E7"/>
<path d="M1035.8 700.3H1112.09V776.6H1035.8V700.3Z" fill="#E6E6E7"/>
<path d="M1035.8 776.6H1112.09V852.9H1035.8V776.6Z" fill="#E6E6E7"/>
<path d="M1035.8 852.9H1112.09V929.2H1035.8V852.9Z" fill="#E6E6E7"/>
<path d="M1035.8 929.2H1112.09V1005.5H1035.8V929.2Z" fill="#E6E6E7"/>
<path d="M1035.8 1005.5H1112.09V1081.8H1035.8V1005.5Z" fill="#E6E6E7"/>
<path d="M1035.8 1081.8H1112.09V1158.1H1035.8V1081.8Z" fill="#E6E6E7"/>
<path d="M1035.8 1158.1H1112.09V1234.4H1035.8V1158.1Z" fill="#E6E6E7"/>
<path d="M1035.8 1234.4H1112.09V1310.7H1035.8V1234.4Z" fill="#E6E6E7"/>
<path d="M1035.8 1310.7H1112.09V1387H1035.8V1310.7Z" fill="#E6E6E7"/>
<path d="M1112.09 -139H1188.39V-62.7H1112.09V-139Z" fill="#E6E6E7"/>
<path d="M1112.09 13.6H1188.39V89.9H1112.09V13.6Z" fill="#E6E6E7"/>
<path d="M1112.09 471.4H1188.39V547.7H1112.09V471.4Z" fill="#E6E6E7"/>
<path d="M1112.09 547.7H1188.39V624H1112.09V547.7Z" fill="#E6E6E7"/>
<path d="M1112.09 624H1188.39V700.3H1112.09V624Z" fill="#E6E6E7"/>
<path d="M1112.09 700.3H1188.39V776.6H1112.09V700.3Z" fill="#E6E6E7"/>
<path d="M1112.09 776.6H1188.39V852.9H1112.09V776.6Z" fill="#E6E6E7"/>
<path d="M1112.09 852.9H1188.39V929.2H1112.09V852.9Z" fill="#E6E6E7"/>
<path d="M1112.09 929.2H1188.39V1005.5H1112.09V929.2Z" fill="#E6E6E7"/>
<path d="M1112.09 1005.5H1188.39V1081.8H1112.09V1005.5Z" fill="#E6E6E7"/>
<path d="M1112.09 1081.8H1188.39V1158.1H1112.09V1081.8Z" fill="#E6E6E7"/>
<path d="M1112.09 1158.1H1188.39V1234.4H1112.09V1158.1Z" fill="#E6E6E7"/>
<path d="M1112.09 1234.4H1188.39V1310.7H1112.09V1234.4Z" fill="#E6E6E7"/>
<path d="M1112.09 1310.7H1188.39V1387H1112.09V1310.7Z" fill="#E6E6E7"/>
<path d="M1188.39 -139H1264.68V-62.7H1188.39V-139Z" fill="#E6E6E7"/>
<path d="M1188.39 -62.7H1264.68V13.6H1188.39V-62.7Z" fill="#E6E6E7"/>
<path d="M1188.39 13.6H1264.68V89.9H1188.39V13.6Z" fill="#E6E6E7"/>
<path d="M1188.39 471.4H1264.68V547.7H1188.39V471.4Z" fill="#E6E6E7"/>
<path d="M1188.39 547.7H1264.68V624H1188.39V547.7Z" fill="#E6E6E7"/>
<path d="M1188.39 624H1264.68V700.3H1188.39V624Z" fill="#E6E6E7"/>
<path d="M1188.39 700.3H1264.68V776.6H1188.39V700.3Z" fill="#E6E6E7"/>
<path d="M1188.39 776.6H1264.68V852.9H1188.39V776.6Z" fill="#E6E6E7"/>
<path d="M1188.39 852.9H1264.68V929.2H1188.39V852.9Z" fill="#E6E6E7"/>
<path d="M1188.39 929.2H1264.68V1005.5H1188.39V929.2Z" fill="#E6E6E7"/>
<path d="M1188.39 1005.5H1264.68V1081.8H1188.39V1005.5Z" fill="#E6E6E7"/>
<path d="M1188.39 1081.8H1264.68V1158.1H1188.39V1081.8Z" fill="#E6E6E7"/>
<path d="M1188.39 1158.1H1264.68V1234.4H1188.39V1158.1Z" fill="#E6E6E7"/>
<path d="M1188.39 1234.4H1264.68V1310.7H1188.39V1234.4Z" fill="#E6E6E7"/>
<path d="M1188.39 1310.7H1264.68V1387H1188.39V1310.7Z" fill="#E6E6E7"/>
<path d="M1264.68 -139H1340.98V-62.7H1264.68V-139Z" fill="#E6E6E7"/>
<path d="M1264.68 -62.7H1340.98V13.6H1264.68V-62.7Z" fill="#E6E6E7"/>
<path d="M1264.68 13.6H1340.98V89.9H1264.68V13.6Z" fill="#E6E6E7"/>
<path d="M1264.68 471.4H1340.98V547.7H1264.68V471.4Z" fill="#E6E6E7"/>
<path d="M1264.68 547.7H1340.98V624H1264.68V547.7Z" fill="#E6E6E7"/>
<path d="M1264.68 624H1340.98V700.3H1264.68V624Z" fill="#E6E6E7"/>
<path d="M1264.68 700.3H1340.98V776.6H1264.68V700.3Z" fill="#E6E6E7"/>
<path d="M1264.68 776.6H1340.98V852.9H1264.68V776.6Z" fill="#E6E6E7"/>
<path d="M1264.68 852.9H1340.98V929.2H1264.68V852.9Z" fill="#E6E6E7"/>
<path d="M1264.68 929.2H1340.98V1005.5H1264.68V929.2Z" fill="#E6E6E7"/>
<path d="M1264.68 1005.5H1340.98V1081.8H1264.68V1005.5Z" fill="#E6E6E7"/>
<path d="M1264.68 1081.8H1340.98V1158.1H1264.68V1081.8Z" fill="#E6E6E7"/>
<path d="M1264.68 1158.1H1340.98V1234.4H1264.68V1158.1Z" fill="#E6E6E7"/>
<path d="M1264.68 1234.4H1340.98V1310.7H1264.68V1234.4Z" fill="#E6E6E7"/>
<path d="M1264.68 1310.7H1340.98V1387H1264.68V1310.7Z" fill="#E6E6E7"/>
<path d="M1340.98 -139H1417.27V-62.7H1340.98V-139Z" fill="#E6E6E7"/>
<path d="M1340.98 -62.7H1417.27V13.6H1340.98V-62.7Z" fill="#E6E6E7"/>
<path d="M1340.98 13.6H1417.27V89.9H1340.98V13.6Z" fill="#E6E6E7"/>
<path d="M1340.98 471.4H1417.27V547.7H1340.98V471.4Z" fill="#E6E6E7"/>
<path d="M1340.98 547.7H1417.27V624H1340.98V547.7Z" fill="#E6E6E7"/>
<path d="M1340.98 624H1417.27V700.3H1340.98V624Z" fill="#E6E6E7"/>
<path d="M1340.98 700.3H1417.27V776.6H1340.98V700.3Z" fill="#E6E6E7"/>
<path d="M1340.98 776.6H1417.27V852.9H1340.98V776.6Z" fill="#E6E6E7"/>
<path d="M1340.98 852.9H1417.27V929.2H1340.98V852.9Z" fill="#E6E6E7"/>
<path d="M1340.98 929.2H1417.27V1005.5H1340.98V929.2Z" fill="#E6E6E7"/>
<path d="M1340.98 1005.5H1417.27V1081.8H1340.98V1005.5Z" fill="#E6E6E7"/>
<path d="M1340.98 1081.8H1417.27V1158.1H1340.98V1081.8Z" fill="#E6E6E7"/>
<path d="M1340.98 1158.1H1417.27V1234.4H1340.98V1158.1Z" fill="#E6E6E7"/>
<path d="M1340.98 1234.4H1417.27V1310.7H1340.98V1234.4Z" fill="#E6E6E7"/>
<path d="M1340.98 1310.7H1417.27V1387H1340.98V1310.7Z" fill="#E6E6E7"/>
<path d="M1417.27 -139H1493.57V-62.7H1417.27V-139Z" fill="#E6E6E7"/>
<path d="M1417.27 -62.7H1493.57V13.6H1417.27V-62.7Z" fill="#E6E6E7"/>
<path d="M1417.27 13.6H1493.57V89.9H1417.27V13.6Z" fill="#E6E6E7"/>
<path d="M1417.27 471.4H1493.57V547.7H1417.27V471.4Z" fill="#E6E6E7"/>
<path d="M1417.27 547.7H1493.57V624H1417.27V547.7Z" fill="#E6E6E7"/>
<path d="M1417.27 624H1493.57V700.3H1417.27V624Z" fill="#E6E6E7"/>
<path d="M1417.27 700.3H1493.57V776.6H1417.27V700.3Z" fill="#E6E6E7"/>
<path d="M1417.27 776.6H1493.57V852.9H1417.27V776.6Z" fill="#E6E6E7"/>
<path d="M1417.27 852.9H1493.57V929.2H1417.27V852.9Z" fill="#E6E6E7"/>
<path d="M1417.27 929.2H1493.57V1005.5H1417.27V929.2Z" fill="#E6E6E7"/>
<path d="M1417.27 1005.5H1493.57V1081.8H1417.27V1005.5Z" fill="#E6E6E7"/>
<path d="M1417.27 1081.8H1493.57V1158.1H1417.27V1081.8Z" fill="#E6E6E7"/>
<path d="M1417.27 1158.1H1493.57V1234.4H1417.27V1158.1Z" fill="#E6E6E7"/>
<path d="M1417.27 1234.4H1493.57V1310.7H1417.27V1234.4Z" fill="#E6E6E7"/>
<path d="M1417.27 1310.7H1493.57V1387H1417.27V1310.7Z" fill="#E6E6E7"/>
<path d="M1493.57 -139H1569.86V-62.7H1493.57V-139Z" fill="#E6E6E7"/>
<path d="M1493.57 -62.7H1569.86V13.6H1493.57V-62.7Z" fill="#E6E6E7"/>
<path d="M1493.57 13.6H1569.86V89.9H1493.57V13.6Z" fill="#E6E6E7"/>
<path d="M1493.57 471.4H1569.86V547.7H1493.57V471.4Z" fill="#E6E6E7"/>
<path d="M1493.57 547.7H1569.86V624H1493.57V547.7Z" fill="#E6E6E7"/>
<path d="M1493.57 624H1569.86V700.3H1493.57V624Z" fill="#E6E6E7"/>
<path d="M1493.57 700.3H1569.86V776.6H1493.57V700.3Z" fill="#E6E6E7"/>
<path d="M1493.57 776.6H1569.86V852.9H1493.57V776.6Z" fill="#E6E6E7"/>
<path d="M1493.57 852.9H1569.86V929.2H1493.57V852.9Z" fill="#E6E6E7"/>
<path d="M1493.57 929.2H1569.86V1005.5H1493.57V929.2Z" fill="#E6E6E7"/>
<path d="M1493.57 1005.5H1569.86V1081.8H1493.57V1005.5Z" fill="#E6E6E7"/>
<path d="M1493.57 1081.8H1569.86V1158.1H1493.57V1081.8Z" fill="#E6E6E7"/>
<path d="M1493.57 1158.1H1569.86V1234.4H1493.57V1158.1Z" fill="#E6E6E7"/>
<path d="M1493.57 1234.4H1569.86V1310.7H1493.57V1234.4Z" fill="#E6E6E7"/>
<path d="M1493.57 1310.7H1569.86V1387H1493.57V1310.7Z" fill="#E6E6E7"/>
<path d="M1569.86 -139H1646.16V-62.7H1569.86V-139Z" fill="#E6E6E7"/>
<path d="M1569.86 -62.7H1646.16V13.6H1569.86V-62.7Z" fill="#E6E6E7"/>
<path d="M1569.86 13.6H1646.16V89.9H1569.86V13.6Z" fill="#E6E6E7"/>
<path d="M1569.86 318.8H1646.16V395.1H1569.86V318.8Z" fill="#E6E6E7"/>
<path d="M1569.86 395.1H1646.16V471.4H1569.86V395.1Z" fill="#E6E6E7"/>
<path d="M1569.86 471.4H1646.16V547.7H1569.86V471.4Z" fill="#E6E6E7"/>
<path d="M1569.86 547.7H1646.16V624H1569.86V547.7Z" fill="#E6E6E7"/>
<path d="M1569.86 624H1646.16V700.3H1569.86V624Z" fill="#E6E6E7"/>
<path d="M1569.86 700.3H1646.16V776.6H1569.86V700.3Z" fill="#E6E6E7"/>
<path d="M1569.86 776.6H1646.16V852.9H1569.86V776.6Z" fill="#E6E6E7"/>
<path d="M1569.86 852.9H1646.16V929.2H1569.86V852.9Z" fill="#E6E6E7"/>
<path d="M1569.86 929.2H1646.16V1005.5H1569.86V929.2Z" fill="#E6E6E7"/>
<path d="M1569.86 1005.5H1646.16V1081.8H1569.86V1005.5Z" fill="#E6E6E7"/>
<path d="M1569.86 1081.8H1646.16V1158.1H1569.86V1081.8Z" fill="#E6E6E7"/>
<path d="M1569.86 1158.1H1646.16V1234.4H1569.86V1158.1Z" fill="#E6E6E7"/>
<path d="M1569.86 1234.4H1646.16V1310.7H1569.86V1234.4Z" fill="#E6E6E7"/>
<path d="M1569.86 1310.7H1646.16V1387H1569.86V1310.7Z" fill="#E6E6E7"/>
<path d="M1646.16 -139H1722.45V-62.7H1646.16V-139Z" fill="#E6E6E7"/>
<path d="M1646.16 -62.7H1722.45V13.6H1646.16V-62.7Z" fill="#E6E6E7"/>
<path d="M1646.16 13.6H1722.45V89.9H1646.16V13.6Z" fill="#E6E6E7"/>
<path d="M1646.16 318.8H1722.45V395.1H1646.16V318.8Z" fill="#E6E6E7"/>
<path d="M1646.16 395.1H1722.45V471.4H1646.16V395.1Z" fill="#E6E6E7"/>
<path d="M1646.16 471.4H1722.45V547.7H1646.16V471.4Z" fill="#E6E6E7"/>
<path d="M1646.16 547.7H1722.45V624H1646.16V547.7Z" fill="#E6E6E7"/>
<path d="M1646.16 624H1722.45V700.3H1646.16V624Z" fill="#E6E6E7"/>
<path d="M1646.16 700.3H1722.45V776.6H1646.16V700.3Z" fill="#E6E6E7"/>
<path d="M1646.16 776.6H1722.45V852.9H1646.16V776.6Z" fill="#E6E6E7"/>
<path d="M1646.16 852.9H1722.45V929.2H1646.16V852.9Z" fill="#E6E6E7"/>
<path d="M1646.16 929.2H1722.45V1005.5H1646.16V929.2Z" fill="#E6E6E7"/>
<path d="M1646.16 1005.5H1722.45V1081.8H1646.16V1005.5Z" fill="#E6E6E7"/>
<path d="M1646.16 1081.8H1722.45V1158.1H1646.16V1081.8Z" fill="#E6E6E7"/>
<path d="M1646.16 1158.1H1722.45V1234.4H1646.16V1158.1Z" fill="#E6E6E7"/>
<path d="M1646.16 1234.4H1722.45V1310.7H1646.16V1234.4Z" fill="#E6E6E7"/>
<path d="M1646.16 1310.7H1722.45V1387H1646.16V1310.7Z" fill="#E6E6E7"/>
<path d="M1722.45 -139H1798.75V-62.7H1722.45V-139Z" fill="#E6E6E7"/>
<path d="M1722.45 -62.7H1798.75V13.6H1722.45V-62.7Z" fill="#E6E6E7"/>
<path d="M1722.45 13.6H1798.75V89.9H1722.45V13.6Z" fill="#E6E6E7"/>
<path d="M1722.45 318.8H1798.75V395.1H1722.45V318.8Z" fill="#E6E6E7"/>
<path d="M1722.45 395.1H1798.75V471.4H1722.45V395.1Z" fill="#E6E6E7"/>
<path d="M1722.45 471.4H1798.75V547.7H1722.45V471.4Z" fill="#E6E6E7"/>
<path d="M1722.45 547.7H1798.75V624H1722.45V547.7Z" fill="#E6E6E7"/>
<path d="M1722.45 624H1798.75V700.3H1722.45V624Z" fill="#E6E6E7"/>
<path d="M1722.45 700.3H1798.75V776.6H1722.45V700.3Z" fill="#E6E6E7"/>
<path d="M1722.45 776.6H1798.75V852.9H1722.45V776.6Z" fill="#E6E6E7"/>
<path d="M1722.45 852.9H1798.75V929.2H1722.45V852.9Z" fill="#E6E6E7"/>
<path d="M1722.45 929.2H1798.75V1005.5H1722.45V929.2Z" fill="#E6E6E7"/>
<path d="M1722.45 1005.5H1798.75V1081.8H1722.45V1005.5Z" fill="#E6E6E7"/>
<path d="M1722.45 1081.8H1798.75V1158.1H1722.45V1081.8Z" fill="#E6E6E7"/>
<path d="M1722.45 1158.1H1798.75V1234.4H1722.45V1158.1Z" fill="#E6E6E7"/>
<path d="M1722.45 1234.4H1798.75V1310.7H1722.45V1234.4Z" fill="#E6E6E7"/>
<path d="M1722.45 1310.7H1798.75V1387H1722.45V1310.7Z" fill="#E6E6E7"/>
<path d="M1798.75 -139H1875.05V-62.7H1798.75V-139Z" fill="#E6E6E7"/>
<path d="M1798.75 -62.7H1875.05V13.6H1798.75V-62.7Z" fill="#E6E6E7"/>
<path d="M1798.75 13.6H1875.05V89.9H1798.75V13.6Z" fill="#E6E6E7"/>
<path d="M1798.75 89.9H1875.05V166.2H1798.75V89.9Z" fill="#E6E6E7"/>
<path d="M1798.75 166.2H1875.05V242.5H1798.75V166.2Z" fill="#E6E6E7"/>
<path d="M1798.75 242.5H1875.05V318.8H1798.75V242.5Z" fill="#E6E6E7"/>
<path d="M1798.75 318.8H1875.05V395.1H1798.75V318.8Z" fill="#E6E6E7"/>
<path d="M1798.75 395.1H1875.05V471.4H1798.75V395.1Z" fill="#E6E6E7"/>
<path d="M1798.75 471.4H1875.05V547.7H1798.75V471.4Z" fill="#E6E6E7"/>
<path d="M1798.75 547.7H1875.05V624H1798.75V547.7Z" fill="#E6E6E7"/>
<path d="M1798.75 624H1875.05V700.3H1798.75V624Z" fill="#E6E6E7"/>
<path d="M1798.75 700.3H1875.05V776.6H1798.75V700.3Z" fill="#E6E6E7"/>
<path d="M1798.75 776.6H1875.05V852.9H1798.75V776.6Z" fill="#E6E6E7"/>
<path d="M1798.75 852.9H1875.05V929.2H1798.75V852.9Z" fill="#E6E6E7"/>
<path d="M1798.75 929.2H1875.05V1005.5H1798.75V929.2Z" fill="#E6E6E7"/>
<path d="M1798.75 1005.5H1875.05V1081.8H1798.75V1005.5Z" fill="#E6E6E7"/>
<path d="M1798.75 1081.8H1875.05V1158.1H1798.75V1081.8Z" fill="#E6E6E7"/>
<path d="M1798.75 1158.1H1875.05V1234.4H1798.75V1158.1Z" fill="#E6E6E7"/>
<path d="M1798.75 1234.4H1875.05V1310.7H1798.75V1234.4Z" fill="#E6E6E7"/>
<path d="M1798.75 1310.7H1875.05V1387H1798.75V1310.7Z" fill="#E6E6E7"/>
<path d="M1875.05 -139H1951.34V-62.7H1875.05V-139Z" fill="#E6E6E7"/>
<path d="M1875.05 -62.7H1951.34V13.6H1875.05V-62.7Z" fill="#E6E6E7"/>
<path d="M1875.05 13.6H1951.34V89.9H1875.05V13.6Z" fill="#E6E6E7"/>
<path d="M1875.05 89.9H1951.34V166.2H1875.05V89.9Z" fill="#E6E6E7"/>
<path d="M1875.05 166.2H1951.34V242.5H1875.05V166.2Z" fill="#E6E6E7"/>
<path d="M1875.05 242.5H1951.34V318.8H1875.05V242.5Z" fill="#E6E6E7"/>
<path d="M1875.05 318.8H1951.34V395.1H1875.05V318.8Z" fill="#E6E6E7"/>
<path d="M1875.05 395.1H1951.34V471.4H1875.05V395.1Z" fill="#E6E6E7"/>
<path d="M1875.05 471.4H1951.34V547.7H1875.05V471.4Z" fill="#E6E6E7"/>
<path d="M1875.05 547.7H1951.34V624H1875.05V547.7Z" fill="#E6E6E7"/>
<path d="M1875.05 624H1951.34V700.3H1875.05V624Z" fill="#E6E6E7"/>
<path d="M1875.05 700.3H1951.34V776.6H1875.05V700.3Z" fill="#E6E6E7"/>
<path d="M1875.05 776.6H1951.34V852.9H1875.05V776.6Z" fill="#E6E6E7"/>
<path d="M1875.05 852.9H1951.34V929.2H1875.05V852.9Z" fill="#E6E6E7"/>
<path d="M1875.05 929.2H1951.34V1005.5H1875.05V929.2Z" fill="#E6E6E7"/>
<path d="M1875.05 1005.5H1951.34V1081.8H1875.05V1005.5Z" fill="#E6E6E7"/>
<path d="M1875.05 1081.8H1951.34V1158.1H1875.05V1081.8Z" fill="#E6E6E7"/>
<path d="M1875.05 1158.1H1951.34V1234.4H1875.05V1158.1Z" fill="#E6E6E7"/>
<path d="M1875.05 1234.4H1951.34V1310.7H1875.05V1234.4Z" fill="#E6E6E7"/>
<path d="M1875.05 1310.7H1951.34V1387H1875.05V1310.7Z" fill="#E6E6E7"/>
<path d="M1951.34 -139H2027.64V-62.7H1951.34V-139Z" fill="#E6E6E7"/>
<path d="M1951.34 -62.7H2027.64V13.6H1951.34V-62.7Z" fill="#E6E6E7"/>
<path d="M1951.34 13.6H2027.64V89.9H1951.34V13.6Z" fill="#E6E6E7"/>
<path d="M1951.34 89.9H2027.64V166.2H1951.34V89.9Z" fill="#E6E6E7"/>
<path d="M1951.34 166.2H2027.64V242.5H1951.34V166.2Z" fill="#E6E6E7"/>
<path d="M1951.34 242.5H2027.64V318.8H1951.34V242.5Z" fill="#E6E6E7"/>
<path d="M1951.34 318.8H2027.64V395.1H1951.34V318.8Z" fill="#E6E6E7"/>
<path d="M1951.34 395.1H2027.64V471.4H1951.34V395.1Z" fill="#E6E6E7"/>
<path d="M1951.34 471.4H2027.64V547.7H1951.34V471.4Z" fill="#E6E6E7"/>
<path d="M1951.34 547.7H2027.64V624H1951.34V547.7Z" fill="#E6E6E7"/>
<path d="M1951.34 624H2027.64V700.3H1951.34V624Z" fill="#E6E6E7"/>
<path d="M1951.34 700.3H2027.64V776.6H1951.34V700.3Z" fill="#E6E6E7"/>
<path d="M1951.34 776.6H2027.64V852.9H1951.34V776.6Z" fill="#E6E6E7"/>
<path d="M1951.34 852.9H2027.64V929.2H1951.34V852.9Z" fill="#E6E6E7"/>
<path d="M1951.34 929.2H2027.64V1005.5H1951.34V929.2Z" fill="#E6E6E7"/>
<path d="M1951.34 1005.5H2027.64V1081.8H1951.34V1005.5Z" fill="#E6E6E7"/>
<path d="M1951.34 1081.8H2027.64V1158.1H1951.34V1081.8Z" fill="#E6E6E7"/>
<path d="M1951.34 1158.1H2027.64V1234.4H1951.34V1158.1Z" fill="#E6E6E7"/>
<path d="M1951.34 1234.4H2027.64V1310.7H1951.34V1234.4Z" fill="#E6E6E7"/>
<path d="M1951.34 1310.7H2027.64V1387H1951.34V1310.7Z" fill="#E6E6E7"/>
<path d="M2027.64 -139H2103.93V-62.7H2027.64V-139Z" fill="#E6E6E7"/>
<path d="M2027.64 -62.7H2103.93V13.6H2027.64V-62.7Z" fill="#E6E6E7"/>
<path d="M2027.64 13.6H2103.93V89.9H2027.64V13.6Z" fill="#E6E6E7"/>
<path d="M2027.64 89.9H2103.93V166.2H2027.64V89.9Z" fill="#E6E6E7"/>
<path d="M2027.64 166.2H2103.93V242.5H2027.64V166.2Z" fill="#E6E6E7"/>
<path d="M2027.64 242.5H2103.93V318.8H2027.64V242.5Z" fill="#E6E6E7"/>
<path d="M2027.64 318.8H2103.93V395.1H2027.64V318.8Z" fill="#E6E6E7"/>
<path d="M2027.64 471.4H2103.93V547.7H2027.64V471.4Z" fill="#E6E6E7"/>
<path d="M2027.64 547.7H2103.93V624H2027.64V547.7Z" fill="#E6E6E7"/>
<path d="M2027.64 624H2103.93V700.3H2027.64V624Z" fill="#E6E6E7"/>
<path d="M2027.64 700.3H2103.93V776.6H2027.64V700.3Z" fill="#E6E6E7"/>
<path d="M2027.64 776.6H2103.93V852.9H2027.64V776.6Z" fill="#E6E6E7"/>
<path d="M2027.64 852.9H2103.93V929.2H2027.64V852.9Z" fill="#E6E6E7"/>
<path d="M2027.64 929.2H2103.93V1005.5H2027.64V929.2Z" fill="#E6E6E7"/>
<path d="M2027.64 1005.5H2103.93V1081.8H2027.64V1005.5Z" fill="#E6E6E7"/>
<path d="M2027.64 1081.8H2103.93V1158.1H2027.64V1081.8Z" fill="#E6E6E7"/>
<path d="M2027.64 1158.1H2103.93V1234.4H2027.64V1158.1Z" fill="#E6E6E7"/>
<path d="M2027.64 1234.4H2103.93V1310.7H2027.64V1234.4Z" fill="#E6E6E7"/>
<path d="M2027.64 1310.7H2103.93V1387H2027.64V1310.7Z" fill="#E6E6E7"/>
<path d="M2103.93 -139H2180.23V-62.7H2103.93V-139Z" fill="#E6E6E7"/>
<path d="M2103.93 -62.7H2180.23V13.6H2103.93V-62.7Z" fill="#E6E6E7"/>
<path d="M2103.93 13.6H2180.23V89.9H2103.93V13.6Z" fill="#E6E6E7"/>
<path d="M2103.93 89.9H2180.23V166.2H2103.93V89.9Z" fill="#E6E6E7"/>
<path d="M2103.93 166.2H2180.23V242.5H2103.93V166.2Z" fill="#E6E6E7"/>
<path d="M2103.93 242.5H2180.23V318.8H2103.93V242.5Z" fill="#E6E6E7"/>
<path d="M2103.93 318.8H2180.23V395.1H2103.93V318.8Z" fill="#E6E6E7"/>
<path d="M2103.93 471.4H2180.23V547.7H2103.93V471.4Z" fill="#E6E6E7"/>
<path d="M2103.93 547.7H2180.23V624H2103.93V547.7Z" fill="#E6E6E7"/>
<path d="M2103.93 624H2180.23V700.3H2103.93V624Z" fill="#E6E6E7"/>
<path d="M2103.93 700.3H2180.23V776.6H2103.93V700.3Z" fill="#E6E6E7"/>
<path d="M2103.93 776.6H2180.23V852.9H2103.93V776.6Z" fill="#E6E6E7"/>
<path d="M2103.93 852.9H2180.23V929.2H2103.93V852.9Z" fill="#E6E6E7"/>
<path d="M2103.93 929.2H2180.23V1005.5H2103.93V929.2Z" fill="#E6E6E7"/>
<path d="M2103.93 1005.5H2180.23V1081.8H2103.93V1005.5Z" fill="#E6E6E7"/>
<path d="M2103.93 1081.8H2180.23V1158.1H2103.93V1081.8Z" fill="#E6E6E7"/>
<path d="M2103.93 1158.1H2180.23V1234.4H2103.93V1158.1Z" fill="#E6E6E7"/>
<path d="M2103.93 1234.4H2180.23V1310.7H2103.93V1234.4Z" fill="#E6E6E7"/>
<path d="M2103.93 1310.7H2180.23V1387H2103.93V1310.7Z" fill="#E6E6E7"/>
<path d="M2180.23 -139H2256.52V-62.7H2180.23V-139Z" fill="#E6E6E7"/>
<path d="M2180.23 -62.7H2256.52V13.6H2180.23V-62.7Z" fill="#E6E6E7"/>
<path d="M2180.23 13.6H2256.52V89.9H2180.23V13.6Z" fill="#E6E6E7"/>
<path d="M2180.23 89.9H2256.52V166.2H2180.23V89.9Z" fill="#E6E6E7"/>
<path d="M2180.23 166.2H2256.52V242.5H2180.23V166.2Z" fill="#E6E6E7"/>
<path d="M2180.23 242.5H2256.52V318.8H2180.23V242.5Z" fill="#E6E6E7"/>
<path d="M2180.23 318.8H2256.52V395.1H2180.23V318.8Z" fill="#E6E6E7"/>
<path d="M2180.23 395.1H2256.52V471.4H2180.23V395.1Z" fill="#E6E6E7"/>
<path d="M2180.23 471.4H2256.52V547.7H2180.23V471.4Z" fill="#E6E6E7"/>
<path d="M2180.23 547.7H2256.52V624H2180.23V547.7Z" fill="#E6E6E7"/>
<path d="M2180.23 624H2256.52V700.3H2180.23V624Z" fill="#E6E6E7"/>
<path d="M2180.23 700.3H2256.52V776.6H2180.23V700.3Z" fill="#E6E6E7"/>
<path d="M2180.23 776.6H2256.52V852.9H2180.23V776.6Z" fill="#E6E6E7"/>
<path d="M2180.23 852.9H2256.52V929.2H2180.23V852.9Z" fill="#E6E6E7"/>
<path d="M2180.23 929.2H2256.52V1005.5H2180.23V929.2Z" fill="#E6E6E7"/>
<path d="M2180.23 1005.5H2256.52V1081.8H2180.23V1005.5Z" fill="#E6E6E7"/>
<path d="M2180.23 1081.8H2256.52V1158.1H2180.23V1081.8Z" fill="#E6E6E7"/>
<path d="M2180.23 1158.1H2256.52V1234.4H2180.23V1158.1Z" fill="#E6E6E7"/>
<path d="M2180.23 1234.4H2256.52V1310.7H2180.23V1234.4Z" fill="#E6E6E7"/>
<path d="M2180.23 1310.7H2256.52V1387H2180.23V1310.7Z" fill="#E6E6E7"/>
<path d="M2256.52 -139H2332.82V-62.7H2256.52V-139Z" fill="#E6E6E7"/>
<path d="M2256.52 -62.7H2332.82V13.6H2256.52V-62.7Z" fill="#E6E6E7"/>
<path d="M2256.52 13.6H2332.82V89.9H2256.52V13.6Z" fill="#E6E6E7"/>
<path d="M2256.52 89.9H2332.82V166.2H2256.52V89.9Z" fill="#E6E6E7"/>
<path d="M2256.52 166.2H2332.82V242.5H2256.52V166.2Z" fill="#E6E6E7"/>
<path d="M2256.52 242.5H2332.82V318.8H2256.52V242.5Z" fill="#E6E6E7"/>
<path d="M2256.52 318.8H2332.82V395.1H2256.52V318.8Z" fill="#E6E6E7"/>
<path d="M2256.52 395.1H2332.82V471.4H2256.52V395.1Z" fill="#E6E6E7"/>
<path d="M2256.52 471.4H2332.82V547.7H2256.52V471.4Z" fill="#E6E6E7"/>
<path d="M2256.52 547.7H2332.82V624H2256.52V547.7Z" fill="#E6E6E7"/>
<path d="M2256.52 624H2332.82V700.3H2256.52V624Z" fill="#E6E6E7"/>
<path d="M2256.52 700.3H2332.82V776.6H2256.52V700.3Z" fill="#E6E6E7"/>
<path d="M2256.52 776.6H2332.82V852.9H2256.52V776.6Z" fill="#E6E6E7"/>
<path d="M2256.52 852.9H2332.82V929.2H2256.52V852.9Z" fill="#E6E6E7"/>
<path d="M2256.52 929.2H2332.82V1005.5H2256.52V929.2Z" fill="#E6E6E7"/>
<path d="M2256.52 1005.5H2332.82V1081.8H2256.52V1005.5Z" fill="#E6E6E7"/>
<path d="M2256.52 1081.8H2332.82V1158.1H2256.52V1081.8Z" fill="#E6E6E7"/>
<path d="M2256.52 1158.1H2332.82V1234.4H2256.52V1158.1Z" fill="#E6E6E7"/>
<path d="M2256.52 1234.4H2332.82V1310.7H2256.52V1234.4Z" fill="#E6E6E7"/>
<path d="M2256.52 1310.7H2332.82V1387H2256.52V1310.7Z" fill="#E6E6E7"/>
<path d="M2332.82 -139H2409.11V-62.7H2332.82V-139Z" fill="#E6E6E7"/>
<path d="M2332.82 -62.7H2409.11V13.6H2332.82V-62.7Z" fill="#E6E6E7"/>
<path d="M2332.82 13.6H2409.11V89.9H2332.82V13.6Z" fill="#E6E6E7"/>
<path d="M2332.82 89.9H2409.11V166.2H2332.82V89.9Z" fill="#E6E6E7"/>
<path d="M2332.82 166.2H2409.11V242.5H2332.82V166.2Z" fill="#E6E6E7"/>
<path d="M2332.82 242.5H2409.11V318.8H2332.82V242.5Z" fill="#E6E6E7"/>
<path d="M2332.82 318.8H2409.11V395.1H2332.82V318.8Z" fill="#E6E6E7"/>
<path d="M2332.82 395.1H2409.11V471.4H2332.82V395.1Z" fill="#E6E6E7"/>
<path d="M2332.82 471.4H2409.11V547.7H2332.82V471.4Z" fill="#E6E6E7"/>
<path d="M2332.82 547.7H2409.11V624H2332.82V547.7Z" fill="#E6E6E7"/>
<path d="M2332.82 624H2409.11V700.3H2332.82V624Z" fill="#E6E6E7"/>
<path d="M2332.82 700.3H2409.11V776.6H2332.82V700.3Z" fill="#E6E6E7"/>
<path d="M2332.82 776.6H2409.11V852.9H2332.82V776.6Z" fill="#E6E6E7"/>
<path d="M2332.82 852.9H2409.11V929.2H2332.82V852.9Z" fill="#E6E6E7"/>
<path d="M2332.82 929.2H2409.11V1005.5H2332.82V929.2Z" fill="#E6E6E7"/>
<path d="M2332.82 1005.5H2409.11V1081.8H2332.82V1005.5Z" fill="#E6E6E7"/>
<path d="M2332.82 1081.8H2409.11V1158.1H2332.82V1081.8Z" fill="#E6E6E7"/>
<path d="M2332.82 1158.1H2409.11V1234.4H2332.82V1158.1Z" fill="#E6E6E7"/>
<path d="M2332.82 1234.4H2409.11V1310.7H2332.82V1234.4Z" fill="#E6E6E7"/>
<path d="M2332.82 1310.7H2409.11V1387H2332.82V1310.7Z" fill="#E6E6E7"/>
<path d="M2409.11 -139H2485.41V-62.7H2409.11V-139Z" fill="#E6E6E7"/>
<path d="M2409.11 -62.7H2485.41V13.6H2409.11V-62.7Z" fill="#E6E6E7"/>
<path d="M2409.11 13.6H2485.41V89.9H2409.11V13.6Z" fill="#E6E6E7"/>
<path d="M2409.11 89.9H2485.41V166.2H2409.11V89.9Z" fill="#E6E6E7"/>
<path d="M2409.11 166.2H2485.41V242.5H2409.11V166.2Z" fill="#E6E6E7"/>
<path d="M2409.11 242.5H2485.41V318.8H2409.11V242.5Z" fill="#E6E6E7"/>
<path d="M2409.11 318.8H2485.41V395.1H2409.11V318.8Z" fill="#E6E6E7"/>
<path d="M2409.11 395.1H2485.41V471.4H2409.11V395.1Z" fill="#E6E6E7"/>
<path d="M2409.11 471.4H2485.41V547.7H2409.11V471.4Z" fill="#E6E6E7"/>
<path d="M2409.11 547.7H2485.41V624H2409.11V547.7Z" fill="#E6E6E7"/>
<path d="M2409.11 624H2485.41V700.3H2409.11V624Z" fill="#E6E6E7"/>
<path d="M2409.11 700.3H2485.41V776.6H2409.11V700.3Z" fill="#E6E6E7"/>
<path d="M2409.11 776.6H2485.41V852.9H2409.11V776.6Z" fill="#E6E6E7"/>
<path d="M2409.11 852.9H2485.41V929.2H2409.11V852.9Z" fill="#E6E6E7"/>
<path d="M2409.11 929.2H2485.41V1005.5H2409.11V929.2Z" fill="#E6E6E7"/>
<path d="M2409.11 1005.5H2485.41V1081.8H2409.11V1005.5Z" fill="#E6E6E7"/>
<path d="M2409.11 1081.8H2485.41V1158.1H2409.11V1081.8Z" fill="#E6E6E7"/>
<path d="M2409.11 1158.1H2485.41V1234.4H2409.11V1158.1Z" fill="#E6E6E7"/>
<path d="M2409.11 1234.4H2485.41V1310.7H2409.11V1234.4Z" fill="#E6E6E7"/>
<path d="M2409.11 1310.7H2485.41V1387H2409.11V1310.7Z" fill="#E6E6E7"/>
<path d="M2485.41 -139H2561.7V-62.7H2485.41V-139Z" fill="#E6E6E7"/>
<path d="M2485.41 -62.7H2561.7V13.6H2485.41V-62.7Z" fill="#E6E6E7"/>
<path d="M2485.41 13.6H2561.7V89.9H2485.41V13.6Z" fill="#E6E6E7"/>
<path d="M2485.41 89.9H2561.7V166.2H2485.41V89.9Z" fill="#E6E6E7"/>
<path d="M2485.41 166.2H2561.7V242.5H2485.41V166.2Z" fill="#E6E6E7"/>
<path d="M2485.41 242.5H2561.7V318.8H2485.41V242.5Z" fill="#E6E6E7"/>
<path d="M2485.41 318.8H2561.7V395.1H2485.41V318.8Z" fill="#E6E6E7"/>
<path d="M2485.41 395.1H2561.7V471.4H2485.41V395.1Z" fill="#E6E6E7"/>
<path d="M2485.41 471.4H2561.7V547.7H2485.41V471.4Z" fill="#E6E6E7"/>
<path d="M2485.41 547.7H2561.7V624H2485.41V547.7Z" fill="#E6E6E7"/>
<path d="M2485.41 624H2561.7V700.3H2485.41V624Z" fill="#E6E6E7"/>
<path d="M2485.41 700.3H2561.7V776.6H2485.41V700.3Z" fill="#E6E6E7"/>
<path d="M2485.41 776.6H2561.7V852.9H2485.41V776.6Z" fill="#E6E6E7"/>
<path d="M2485.41 852.9H2561.7V929.2H2485.41V852.9Z" fill="#E6E6E7"/>
<path d="M2485.41 929.2H2561.7V1005.5H2485.41V929.2Z" fill="#E6E6E7"/>
<path d="M2485.41 1005.5H2561.7V1081.8H2485.41V1005.5Z" fill="#E6E6E7"/>
<path d="M2485.41 1081.8H2561.7V1158.1H2485.41V1081.8Z" fill="#E6E6E7"/>
<path d="M2485.41 1158.1H2561.7V1234.4H2485.41V1158.1Z" fill="#E6E6E7"/>
<path d="M2485.41 1234.4H2561.7V1310.7H2485.41V1234.4Z" fill="#E6E6E7"/>
<path d="M2485.41 1310.7H2561.7V1387H2485.41V1310.7Z" fill="#E6E6E7"/>
<path d="M2561.7 -139H2638V-62.7H2561.7V-139Z" fill="#E6E6E7"/>
<path d="M2561.7 -62.7H2638V13.6H2561.7V-62.7Z" fill="#E6E6E7"/>
<path d="M2561.7 13.6H2638V89.9H2561.7V13.6Z" fill="#E6E6E7"/>
<path d="M2561.7 89.9H2638V166.2H2561.7V89.9Z" fill="#E6E6E7"/>
<path d="M2561.7 166.2H2638V242.5H2561.7V166.2Z" fill="#E6E6E7"/>
<path d="M2561.7 242.5H2638V318.8H2561.7V242.5Z" fill="#E6E6E7"/>
<path d="M2561.7 318.8H2638V395.1H2561.7V318.8Z" fill="#E6E6E7"/>
<path d="M2561.7 395.1H2638V471.4H2561.7V395.1Z" fill="#E6E6E7"/>
<path d="M2561.7 471.4H2638V547.7H2561.7V471.4Z" fill="#E6E6E7"/>
<path d="M2561.7 547.7H2638V624H2561.7V547.7Z" fill="#E6E6E7"/>
<path d="M2561.7 624H2638V700.3H2561.7V624Z" fill="#E6E6E7"/>
<path d="M2561.7 700.3H2638V776.6H2561.7V700.3Z" fill="#E6E6E7"/>
<path d="M2561.7 776.6H2638V852.9H2561.7V776.6Z" fill="#E6E6E7"/>
<path d="M2561.7 852.9H2638V929.2H2561.7V852.9Z" fill="#E6E6E7"/>
<path d="M2561.7 929.2H2638V1005.5H2561.7V929.2Z" fill="#E6E6E7"/>
<path d="M2561.7 1005.5H2638V1081.8H2561.7V1005.5Z" fill="#E6E6E7"/>
<path d="M2561.7 1081.8H2638V1158.1H2561.7V1081.8Z" fill="#E6E6E7"/>
<path d="M2561.7 1158.1H2638V1234.4H2561.7V1158.1Z" fill="#E6E6E7"/>
<path d="M2561.7 1234.4H2638V1310.7H2561.7V1234.4Z" fill="#E6E6E7"/>
<path d="M2561.7 1310.7H2638V1387H2561.7V1310.7Z" fill="#E6E6E7"/>
<path d="M-642.705 -139H-719V-62.7M-642.705 -139V-62.7M-642.705 -139H-566.409M-642.705 -62.7H-719M-642.705 -62.7V13.6M-642.705 -62.7H-566.409M-719 -62.7V13.6M-642.705 13.6H-719M-642.705 13.6V89.9M-642.705 13.6H-566.409M-719 13.6V89.9M-642.705 89.9H-719M-642.705 89.9V166.2M-642.705 89.9H-566.409M-719 89.9V166.2M-642.705 166.2H-719M-642.705 166.2V242.5M-642.705 166.2H-566.409M-719 166.2V242.5M-642.705 242.5H-719M-642.705 242.5V318.8M-642.705 242.5H-566.409M-719 242.5V318.8M-642.705 318.8H-719M-642.705 318.8V395.1M-642.705 318.8H-566.409M-719 318.8V395.1M-642.705 395.1H-719M-642.705 395.1V471.4M-642.705 395.1H-566.409M-719 395.1V471.4M-642.705 471.4H-719M-642.705 471.4V547.7M-642.705 471.4H-566.409M-719 471.4V547.7M-642.705 547.7H-719M-642.705 547.7V624M-642.705 547.7H-566.409M-719 547.7V624M-642.705 624H-719M-642.705 624V700.3M-642.705 624H-566.409M-719 624V700.3M-642.705 700.3H-719M-642.705 700.3V776.6M-642.705 700.3H-566.409M-719 700.3V776.6M-642.705 776.6H-719M-642.705 776.6V852.9M-642.705 776.6H-566.409M-719 776.6V852.9M-642.705 852.9H-719M-642.705 852.9V929.2M-642.705 852.9H-566.409M-719 852.9V929.2M-642.705 929.2H-719M-642.705 929.2V1005.5M-642.705 929.2H-566.409M-719 929.2V1005.5M-642.705 1005.5H-719M-642.705 1005.5V1081.8M-642.705 1005.5H-566.409M-719 1005.5V1081.8M-642.705 1081.8H-719M-642.705 1081.8V1158.1M-642.705 1081.8H-566.409M-719 1081.8V1158.1M-642.705 1158.1H-719M-642.705 1158.1V1234.4M-642.705 1158.1H-566.409M-719 1158.1V1234.4M-642.705 1234.4H-719M-642.705 1234.4V1310.7M-642.705 1234.4H-566.409M-719 1234.4V1310.7M-642.705 1310.7H-719M-642.705 1310.7V1387M-642.705 1310.7H-566.409M-719 1310.7V1387H-642.705M-642.705 1387H-566.409M-566.409 -139V-62.7M-566.409 -139H-490.114M-566.409 -62.7V13.6M-566.409 -62.7H-490.114M-566.409 13.6V89.9M-566.409 13.6H-490.114M-566.409 89.9V166.2M-566.409 89.9H-490.114M-566.409 166.2V242.5M-566.409 166.2H-490.114M-566.409 242.5V318.8M-566.409 242.5H-490.114M-566.409 318.8V395.1M-566.409 318.8H-490.114M-566.409 395.1V471.4M-566.409 395.1H-490.114M-566.409 471.4V547.7M-566.409 471.4H-490.114M-566.409 547.7V624M-566.409 547.7H-490.114M-566.409 624V700.3M-566.409 624H-490.114M-566.409 700.3V776.6M-566.409 700.3H-490.114M-566.409 776.6V852.9M-566.409 776.6H-490.114M-566.409 852.9V929.2M-566.409 852.9H-490.114M-566.409 929.2V1005.5M-566.409 929.2H-490.114M-566.409 1005.5V1081.8M-566.409 1005.5H-490.114M-566.409 1081.8V1158.1M-566.409 1081.8H-490.114M-566.409 1158.1V1234.4M-566.409 1158.1H-490.114M-566.409 1234.4V1310.7M-566.409 1234.4H-490.114M-566.409 1310.7V1387M-566.409 1310.7H-490.114M-566.409 1387H-490.114M-490.114 -139V-62.7M-490.114 -139H-413.818M-490.114 -62.7V13.6M-490.114 -62.7H-413.818M-490.114 13.6V89.9M-490.114 13.6H-413.818M-490.114 89.9V166.2M-490.114 89.9H-413.818M-490.114 166.2V242.5M-490.114 166.2H-413.818M-490.114 242.5V318.8M-490.114 242.5H-413.818M-490.114 318.8V395.1M-490.114 318.8H-413.818M-490.114 395.1V471.4M-490.114 395.1H-413.818M-490.114 471.4V547.7M-490.114 471.4H-413.818M-490.114 547.7V624M-490.114 547.7H-413.818M-490.114 624V700.3M-490.114 624H-413.818M-490.114 700.3V776.6M-490.114 700.3H-413.818M-490.114 776.6V852.9M-490.114 776.6H-413.818M-490.114 852.9V929.2M-490.114 852.9H-413.818M-490.114 929.2V1005.5M-490.114 929.2H-413.818M-490.114 1005.5V1081.8M-490.114 1005.5H-413.818M-490.114 1081.8V1158.1M-490.114 1081.8H-413.818M-490.114 1158.1V1234.4M-490.114 1158.1H-413.818M-490.114 1234.4V1310.7M-490.114 1234.4H-413.818M-490.114 1310.7V1387M-490.114 1310.7H-413.818M-490.114 1387H-413.818M-413.818 -139V-62.7M-413.818 -139H-337.523M-413.818 -62.7V13.6M-413.818 -62.7H-337.523M-413.818 13.6V89.9M-413.818 13.6H-337.523M-413.818 89.9V166.2M-413.818 89.9H-337.523M-413.818 166.2V242.5M-413.818 166.2H-337.523M-413.818 242.5V318.8M-413.818 242.5H-337.523M-413.818 318.8V395.1M-413.818 318.8H-337.523M-413.818 395.1V471.4M-413.818 395.1H-337.523M-413.818 471.4V547.7M-413.818 471.4H-337.523M-413.818 547.7V624M-413.818 547.7H-337.523M-413.818 624V700.3M-413.818 624H-337.523M-413.818 700.3V776.6M-413.818 700.3H-337.523M-413.818 776.6V852.9M-413.818 776.6H-337.523M-413.818 852.9V929.2M-413.818 852.9H-337.523M-413.818 929.2V1005.5M-413.818 929.2H-337.523M-413.818 1005.5V1081.8M-413.818 1005.5H-337.523M-413.818 1081.8V1158.1M-413.818 1081.8H-337.523M-413.818 1158.1V1234.4M-413.818 1158.1H-337.523M-413.818 1234.4V1310.7M-413.818 1234.4H-337.523M-413.818 1310.7V1387M-413.818 1310.7H-337.523M-413.818 1387H-337.523M-337.523 -139V-62.7M-337.523 -139H-261.227M-337.523 -62.7V13.6M-337.523 -62.7H-261.227M-337.523 13.6V89.9M-337.523 13.6H-261.227M-337.523 89.9V166.2M-337.523 89.9H-261.227M-337.523 166.2V242.5M-337.523 166.2H-261.227M-337.523 242.5V318.8M-337.523 242.5H-261.227M-337.523 318.8V395.1M-337.523 318.8H-261.227M-337.523 395.1V471.4M-337.523 395.1H-261.227M-337.523 471.4V547.7M-337.523 471.4H-261.227M-337.523 547.7V624M-337.523 547.7H-261.227M-337.523 624V700.3M-337.523 624H-261.227M-337.523 700.3V776.6M-337.523 700.3H-261.227M-337.523 776.6V852.9M-337.523 776.6H-261.227M-337.523 852.9V929.2M-337.523 852.9H-261.227M-337.523 929.2V1005.5M-337.523 929.2H-261.227M-337.523 1005.5V1081.8M-337.523 1005.5H-261.227M-337.523 1081.8V1158.1M-337.523 1081.8H-261.227M-337.523 1158.1V1234.4M-337.523 1158.1H-261.227M-337.523 1234.4V1310.7M-337.523 1234.4H-261.227M-337.523 1310.7V1387M-337.523 1310.7H-261.227M-337.523 1387H-261.227M-261.227 -139V-62.7M-261.227 -139H-184.932M-261.227 -62.7V13.6M-261.227 -62.7H-184.932M-261.227 13.6V89.9M-261.227 13.6H-184.932M-261.227 89.9V166.2M-261.227 89.9H-184.932M-261.227 166.2V242.5M-261.227 166.2H-184.932M-261.227 242.5V318.8M-261.227 242.5H-184.932M-261.227 318.8V395.1M-261.227 318.8H-184.932M-261.227 395.1V471.4M-261.227 395.1H-184.932M-261.227 471.4V547.7M-261.227 471.4H-184.932M-261.227 547.7V624M-261.227 547.7H-184.932M-261.227 624V700.3M-261.227 624H-184.932M-261.227 700.3V776.6M-261.227 700.3H-184.932M-261.227 776.6V852.9M-261.227 776.6H-184.932M-261.227 852.9V929.2M-261.227 852.9H-184.932M-261.227 929.2V1005.5M-261.227 929.2H-184.932M-261.227 1005.5V1081.8M-261.227 1005.5H-184.932M-261.227 1081.8V1158.1M-261.227 1081.8H-184.932M-261.227 1158.1V1234.4M-261.227 1158.1H-184.932M-261.227 1234.4V1310.7M-261.227 1234.4H-184.932M-261.227 1310.7V1387M-261.227 1310.7H-184.932M-261.227 1387H-184.932M-184.932 -139V-62.7M-184.932 -139H-108.636M-184.932 -62.7V13.6M-184.932 -62.7H-108.636M-184.932 13.6V89.9M-184.932 13.6H-108.636M-184.932 89.9V166.2M-184.932 89.9H-108.636M-184.932 166.2V242.5M-184.932 166.2H-108.636M-184.932 242.5V318.8M-184.932 242.5H-108.636M-184.932 318.8V395.1M-184.932 318.8H-108.636M-184.932 395.1H-108.636M-184.932 395.1V471.4M-184.932 471.4V547.7M-184.932 471.4H-108.636M-184.932 547.7V624M-184.932 547.7H-108.636M-184.932 624V700.3M-184.932 624H-108.636M-184.932 700.3V776.6M-184.932 700.3H-108.636M-184.932 776.6V852.9M-184.932 776.6H-108.636M-184.932 852.9V929.2M-184.932 852.9H-108.636M-184.932 929.2V1005.5M-184.932 929.2H-108.636M-184.932 1005.5V1081.8M-184.932 1005.5H-108.636M-184.932 1081.8V1158.1M-184.932 1081.8H-108.636M-184.932 1158.1V1234.4M-184.932 1158.1H-108.636M-184.932 1234.4V1310.7M-184.932 1234.4H-108.636M-184.932 1310.7V1387M-184.932 1310.7H-108.636M-184.932 1387H-108.636M-108.636 -139V-62.7M-108.636 -139H-32.3409M-108.636 -62.7V13.6M-108.636 -62.7H-32.3409M-108.636 13.6V89.9M-108.636 13.6H-32.3409M-108.636 89.9V166.2M-108.636 89.9H-32.3409M-108.636 166.2V242.5M-108.636 166.2H-32.3409M-108.636 242.5V318.8M-108.636 242.5H-32.3409M-108.636 318.8V395.1M-108.636 318.8H-32.3409M-108.636 395.1V471.4M-108.636 395.1H-32.3409M-108.636 471.4V547.7M-108.636 471.4H-32.3409M-108.636 547.7V624M-108.636 547.7H-32.3409M-108.636 624V700.3M-108.636 624H-32.3409M-108.636 700.3V776.6M-108.636 700.3H-32.3409M-108.636 776.6V852.9M-108.636 776.6H-32.3409M-108.636 852.9V929.2M-108.636 852.9C-108.636 852.9 -62.1361 852.9 -32.3409 852.9M-108.636 929.2V1005.5M-108.636 929.2H-32.3409M-108.636 1005.5V1081.8M-108.636 1005.5H-32.3409M-108.636 1081.8V1158.1M-108.636 1081.8H-32.3409M-108.636 1158.1V1234.4M-108.636 1158.1H-32.3409M-108.636 1234.4V1310.7M-108.636 1234.4H-32.3409M-108.636 1310.7V1387M-108.636 1310.7H-32.3409M-108.636 1387H-32.3409M-32.3409 -139V-62.7M-32.3409 -139H43.9546M-32.3409 -62.7V13.6M-32.3409 -62.7H43.9546M-32.3409 13.6V89.9M-32.3409 13.6H43.9546M-32.3409 89.9V166.2M-32.3409 89.9H43.9546M-32.3409 166.2V242.5M-32.3409 166.2H43.9546M-32.3409 242.5V318.8M-32.3409 242.5H43.9546M-32.3409 318.8V395.1M-32.3409 318.8H43.9546M-32.3409 395.1V471.4M-32.3409 395.1H43.9546M-32.3409 471.4V547.7M-32.3409 471.4H43.9546M-32.3409 547.7V624M-32.3409 547.7H43.9546M-32.3409 624V700.3M-32.3409 624H43.9546M-32.3409 700.3V776.6M-32.3409 700.3H43.9546M-32.3409 776.6C-32.3409 776.6 -32.3409 823.103 -32.3409 852.9M-32.3409 776.6H43.9546M-32.3409 852.9C-32.3409 882.697 -32.3409 929.2 -32.3409 929.2M-32.3409 852.9C-2.54566 852.9 43.9546 852.9 43.9546 852.9M-32.3409 929.2V1005.5M-32.3409 929.2H43.9546M-32.3409 1005.5V1081.8M-32.3409 1005.5H43.9546M-32.3409 1081.8V1158.1M-32.3409 1081.8H43.9546M-32.3409 1158.1V1234.4M-32.3409 1158.1H43.9546M-32.3409 1234.4V1310.7M-32.3409 1234.4H43.9546M-32.3409 1310.7V1387M-32.3409 1310.7H43.9546M-32.3409 1387H43.9546M43.9546 -139V-62.7M43.9546 -139H120.25M43.9546 -62.7V13.6M43.9546 -62.7H120.25M43.9546 13.6V89.9M43.9546 13.6H120.25M43.9546 89.9V166.2M43.9546 89.9H120.25M43.9546 166.2V242.5M43.9546 166.2H120.25M43.9546 242.5V318.8M43.9546 242.5H120.25M43.9546 318.8V395.1M43.9546 318.8H120.25M43.9546 395.1V471.4M43.9546 395.1H120.25M43.9546 471.4V547.7M43.9546 471.4H120.25M43.9546 547.7V624M43.9546 547.7H120.25M43.9546 624V700.3M43.9546 624H120.25M43.9546 700.3V776.6M43.9546 700.3H120.25M43.9546 776.6V852.9M43.9546 776.6H120.25M43.9546 852.9V929.2M43.9546 852.9H120.25M43.9546 929.2V1005.5M43.9546 929.2H120.25M43.9546 1005.5V1081.8M43.9546 1005.5H120.25M43.9546 1081.8V1158.1M43.9546 1081.8H120.25M43.9546 1158.1V1234.4M43.9546 1158.1H120.25M43.9546 1234.4V1310.7M43.9546 1234.4H120.25M43.9546 1310.7V1387M43.9546 1310.7H120.25M43.9546 1387H120.25M120.25 -139V-62.7M120.25 -139H196.545M120.25 -62.7V13.6M120.25 -62.7H196.545M120.25 13.6V89.9M120.25 13.6H196.545M120.25 89.9V166.2M120.25 89.9H196.545M120.25 166.2V242.5M120.25 166.2H1798.75M120.25 242.5V318.8M120.25 242.5H1798.75M120.25 318.8V395.1M120.25 318.8H196.545M120.25 395.1V471.4M120.25 395.1H196.545M120.25 471.4V547.7M120.25 471.4H196.545M120.25 547.7V624M120.25 547.7H196.545M120.25 624V700.3M120.25 624H196.545M120.25 700.3V776.6M120.25 700.3H196.545M120.25 776.6V852.9M120.25 776.6H196.545M120.25 852.9V929.2M120.25 852.9H196.545M120.25 929.2V1005.5M120.25 929.2H196.545M120.25 1005.5V1081.8M120.25 1005.5H196.545M120.25 1081.8V1158.1M120.25 1081.8H196.545M120.25 1158.1V1234.4M120.25 1158.1H196.545M120.25 1234.4V1310.7M120.25 1234.4H196.545M120.25 1310.7V1387M120.25 1310.7H196.545M120.25 1387H196.545M196.545 -139V-62.7M196.545 -139H272.841M196.545 -62.7V13.6M196.545 -62.7H272.841M196.545 13.6V89.9M196.545 13.6H272.841M196.545 89.9H272.841M196.545 89.9V318.8M196.545 318.8V395.1M196.545 318.8H272.841M196.545 395.1V471.4M196.545 395.1H272.841M196.545 471.4V547.7M196.545 471.4H272.841M196.545 547.7V624M196.545 547.7H272.841M196.545 624V700.3M196.545 624H272.841M196.545 700.3V776.6M196.545 700.3H272.841M196.545 776.6V852.9M196.545 776.6H272.841M196.545 852.9V929.2M196.545 852.9H272.841M196.545 929.2V1005.5M196.545 929.2H272.841M196.545 1005.5V1081.8M196.545 1005.5H272.841M196.545 1081.8V1158.1M196.545 1081.8H272.841M196.545 1158.1V1234.4M196.545 1158.1H272.841M196.545 1234.4V1310.7M196.545 1234.4H272.841M196.545 1310.7V1387M196.545 1310.7H272.841M196.545 1387H272.841M272.841 -139V-62.7M272.841 -139H349.136M272.841 -62.7V13.6M272.841 -62.7H349.136M272.841 13.6V89.9M272.841 13.6H349.136M272.841 89.9H349.136M272.841 89.9V318.8M272.841 318.8V395.1M272.841 318.8H349.136M272.841 395.1V471.4M272.841 395.1H349.136M272.841 471.4V547.7M272.841 471.4H349.136M272.841 547.7V624M272.841 547.7H349.136M272.841 624V700.3M272.841 624H349.136M272.841 700.3V776.6M272.841 700.3H349.136M272.841 776.6V852.9M272.841 776.6H349.136M272.841 852.9V929.2M272.841 852.9H349.136M272.841 929.2V1005.5M272.841 929.2H349.136M272.841 1005.5V1081.8M272.841 1005.5H349.136M272.841 1081.8V1158.1M272.841 1081.8H349.136M272.841 1158.1V1234.4M272.841 1158.1H349.136M272.841 1234.4V1310.7M272.841 1234.4H349.136M272.841 1310.7V1387M272.841 1310.7H349.136M272.841 1387H349.136M349.136 -139V-62.7M349.136 -139H425.432M349.136 -62.7V13.6M349.136 -62.7H425.432M349.136 13.6V89.9M349.136 13.6H425.432M349.136 89.9H425.432M349.136 89.9V318.8M349.136 318.8V395.1M349.136 318.8H1569.86M349.136 395.1V471.4M349.136 395.1H1569.86M349.136 471.4V547.7M349.136 471.4H425.432M349.136 547.7V624M349.136 547.7H425.432M349.136 624V700.3M349.136 624H425.432M349.136 700.3V776.6M349.136 700.3H425.432M349.136 776.6V852.9M349.136 776.6H425.432M349.136 852.9V929.2M349.136 852.9H425.432M349.136 929.2V1005.5M349.136 929.2H425.432M349.136 1005.5V1081.8M349.136 1005.5H425.432M349.136 1081.8V1158.1M349.136 1081.8H425.432M349.136 1158.1V1234.4M349.136 1158.1H425.432M349.136 1234.4V1310.7M349.136 1234.4H425.432M349.136 1310.7V1387M349.136 1310.7H425.432M349.136 1387H425.432M425.432 -139V-62.7M425.432 -139H501.727M425.432 -62.7V13.6M425.432 -62.7H501.727M425.432 13.6V89.9M425.432 13.6H501.727M425.432 89.9H501.727M425.432 89.9V471.4M425.432 471.4V547.7M425.432 471.4H501.727M425.432 547.7V624M425.432 547.7H501.727M425.432 624V700.3M425.432 624H501.727M425.432 700.3V776.6M425.432 700.3H501.727M425.432 776.6V852.9M425.432 776.6H501.727M425.432 852.9V929.2M425.432 852.9H501.727M425.432 929.2V1005.5M425.432 929.2H501.727M425.432 1005.5V1081.8M425.432 1005.5H501.727M425.432 1081.8V1158.1M425.432 1081.8H501.727M425.432 1158.1V1234.4M425.432 1158.1H501.727M425.432 1234.4V1310.7M425.432 1234.4H501.727M425.432 1310.7V1387M425.432 1310.7H501.727M425.432 1387H501.727M501.727 -139V-62.7M501.727 -139H578.023M501.727 -62.7V13.6M501.727 -62.7H578.023M501.727 13.6V89.9M501.727 13.6H578.023M501.727 89.9H578.023M501.727 89.9V471.4M501.727 471.4V547.7M501.727 471.4H578.023M501.727 547.7V624M501.727 547.7H578.023M501.727 624V700.3M501.727 624H578.023M501.727 700.3V776.6M501.727 700.3H578.023M501.727 776.6V852.9M501.727 776.6H578.023M501.727 852.9V929.2M501.727 852.9H578.023M501.727 929.2V1005.5M501.727 929.2H578.023M501.727 1005.5V1081.8M501.727 1005.5H578.023M501.727 1081.8V1158.1M501.727 1081.8H578.023M501.727 1158.1V1234.4M501.727 1158.1H578.023M501.727 1234.4V1310.7M501.727 1234.4H578.023M501.727 1310.7V1387M501.727 1310.7H578.023M501.727 1387H578.023M578.023 -139V-62.7M578.023 -139H654.318M578.023 -62.7V13.6M578.023 -62.7H654.318M578.023 13.6V89.9M578.023 13.6H654.318M578.023 89.9H654.318M578.023 89.9V471.4M578.023 471.4V547.7M578.023 471.4H654.318M578.023 547.7V624M578.023 547.7H654.318M578.023 624V700.3M578.023 624H654.318M578.023 700.3V776.6M578.023 700.3H654.318M578.023 776.6V852.9M578.023 776.6H654.318M578.023 852.9V929.2M578.023 852.9H654.318M578.023 929.2V1005.5M578.023 929.2H654.318M578.023 1005.5V1081.8M578.023 1005.5H654.318M578.023 1081.8V1158.1M578.023 1081.8H654.318M578.023 1158.1V1234.4M578.023 1158.1H654.318M578.023 1234.4V1310.7M578.023 1234.4H654.318M578.023 1310.7V1387M578.023 1310.7H654.318M578.023 1387H654.318M654.318 -139V-62.7M654.318 -139H730.614M654.318 -62.7V13.6M654.318 -62.7H730.614M654.318 13.6V89.9M654.318 13.6H730.614M654.318 89.9H730.614M654.318 89.9V471.4M654.318 471.4V547.7M654.318 471.4H730.614M654.318 547.7V624M654.318 547.7H730.614M654.318 624V700.3M654.318 624H730.614M654.318 700.3V776.6M654.318 700.3H730.614M654.318 776.6V852.9M654.318 776.6H730.614M654.318 852.9V929.2M654.318 852.9H730.614M654.318 929.2V1005.5M654.318 929.2H730.614M654.318 1005.5V1081.8M654.318 1005.5H730.614M654.318 1081.8V1158.1M654.318 1081.8H730.614M654.318 1158.1V1234.4M654.318 1158.1H730.614M654.318 1234.4V1310.7M654.318 1234.4H730.614M654.318 1310.7V1387M654.318 1310.7H730.614M654.318 1387H730.614M730.614 -139V-62.7M730.614 -139H806.909M730.614 -62.7V13.6M730.614 -62.7H806.909M730.614 13.6V89.9M730.614 13.6H806.909M730.614 89.9H806.909M730.614 89.9V471.4M730.614 471.4V547.7M730.614 471.4H806.909M730.614 547.7V624M730.614 547.7H806.909M730.614 624V700.3M730.614 624H806.909M730.614 700.3V776.6M730.614 700.3H806.909M730.614 776.6V852.9M730.614 776.6H806.909M730.614 852.9V929.2M730.614 852.9H806.909M730.614 929.2V1005.5M730.614 929.2H806.909M730.614 1005.5V1081.8M730.614 1005.5H806.909M730.614 1081.8V1158.1M730.614 1081.8H806.909M730.614 1158.1V1234.4M730.614 1158.1H806.909M730.614 1234.4V1310.7M730.614 1234.4H806.909M730.614 1310.7V1387M730.614 1310.7H806.909M730.614 1387H806.909M806.909 -139V-62.7M806.909 -139H883.205M806.909 -62.7V13.6M806.909 -62.7H883.205M806.909 13.6V89.9M806.909 13.6H883.205M806.909 89.9H883.205M806.909 89.9V471.4M806.909 471.4V547.7M806.909 471.4H883.205M806.909 547.7V624M806.909 547.7H883.205M806.909 624V700.3M806.909 624H883.205M806.909 700.3V776.6M806.909 700.3H883.205M806.909 776.6V852.9M806.909 776.6H883.205M806.909 852.9V929.2M806.909 852.9H883.205M806.909 929.2V1005.5M806.909 929.2H883.205M806.909 1005.5V1081.8M806.909 1005.5H883.205M806.909 1081.8V1158.1M806.909 1081.8H883.205M806.909 1158.1V1234.4M806.909 1158.1H883.205M806.909 1234.4V1310.7M806.909 1234.4H883.205M806.909 1310.7V1387M806.909 1310.7H883.205M806.909 1387H883.205M883.205 -139V-62.7M883.205 -139H959.5M883.205 -62.7H959.5M883.205 -62.7V13.6M883.205 13.6V89.9M883.205 13.6H959.5M883.205 89.9H959.5M883.205 89.9V471.4M883.205 471.4V547.7M883.205 471.4H959.5M883.205 547.7V624M883.205 547.7H959.5M883.205 624V700.3M883.205 624H959.5M883.205 700.3V776.6M883.205 700.3H959.5M883.205 776.6V852.9M883.205 776.6H959.5M883.205 852.9V929.2M883.205 852.9H959.5M883.205 929.2V1005.5M883.205 929.2H959.5M883.205 1005.5V1081.8M883.205 1005.5H959.5M883.205 1081.8V1158.1M883.205 1081.8H959.5M883.205 1158.1V1234.4M883.205 1158.1H959.5M883.205 1234.4V1310.7M883.205 1234.4H959.5M883.205 1310.7V1387M883.205 1310.7H959.5M883.205 1387H959.5M959.5 -139V-62.7M959.5 -139H1035.8M959.5 -62.7H1035.8M959.5 -62.7V13.6M959.5 13.6V89.9M959.5 13.6H1035.8M959.5 89.9H1035.8M959.5 89.9V471.4M959.5 471.4V547.7M959.5 471.4H1035.8M959.5 547.7V624M959.5 547.7H1035.8M959.5 624V700.3M959.5 624H1035.8M959.5 700.3V776.6M959.5 700.3H1035.8M959.5 776.6V852.9M959.5 776.6H1035.8M959.5 852.9V929.2M959.5 852.9H1035.8M959.5 929.2V1005.5M959.5 929.2H1035.8M959.5 1005.5V1081.8M959.5 1005.5H1035.8M959.5 1081.8V1158.1M959.5 1081.8H1035.8M959.5 1158.1V1234.4M959.5 1158.1H1035.8M959.5 1234.4V1310.7M959.5 1234.4H1035.8M959.5 1310.7V1387M959.5 1310.7H1035.8M959.5 1387H1035.8M1035.8 -139V-62.7M1035.8 -139H1112.09M1035.8 -62.7H1112.09M1035.8 -62.7V13.6M1035.8 13.6V89.9M1035.8 13.6H1112.09M1035.8 89.9H1112.09M1035.8 89.9V471.4M1035.8 471.4V547.7M1035.8 471.4H1112.09M1035.8 547.7V624M1035.8 547.7H1112.09M1035.8 624V700.3M1035.8 624H1112.09M1035.8 700.3V776.6M1035.8 700.3H1112.09M1035.8 776.6V852.9M1035.8 776.6H1112.09M1035.8 852.9V929.2M1035.8 852.9H1112.09M1035.8 929.2V1005.5M1035.8 929.2H1112.09M1035.8 1005.5V1081.8M1035.8 1005.5H1112.09M1035.8 1081.8V1158.1M1035.8 1081.8H1112.09M1035.8 1158.1V1234.4M1035.8 1158.1H1112.09M1035.8 1234.4V1310.7M1035.8 1234.4H1112.09M1035.8 1310.7V1387M1035.8 1310.7H1112.09M1035.8 1387H1112.09M1112.09 -139V-62.7M1112.09 -139H1188.39M1112.09 -62.7H1188.39M1112.09 -62.7V13.6M1112.09 13.6V89.9M1112.09 13.6H1188.39M1112.09 89.9H1188.39M1112.09 89.9V471.4M1112.09 471.4V547.7M1112.09 471.4H1188.39M1112.09 547.7V624M1112.09 547.7H1188.39M1112.09 624V700.3M1112.09 624H1188.39M1112.09 700.3V776.6M1112.09 700.3H1188.39M1112.09 776.6V852.9M1112.09 776.6H1188.39M1112.09 852.9V929.2M1112.09 852.9H1188.39M1112.09 929.2V1005.5M1112.09 929.2H1188.39M1112.09 1005.5V1081.8M1112.09 1005.5H1188.39M1112.09 1081.8V1158.1M1112.09 1081.8H1188.39M1112.09 1158.1V1234.4M1112.09 1158.1H1188.39M1112.09 1234.4V1310.7M1112.09 1234.4H1188.39M1112.09 1310.7V1387M1112.09 1310.7H1188.39M1112.09 1387H1188.39M1188.39 -139V-62.7M1188.39 -139H1264.68M1188.39 -62.7V13.6M1188.39 -62.7H1264.68M1188.39 13.6V89.9M1188.39 13.6H1264.68M1188.39 89.9H1264.68M1188.39 89.9V471.4M1188.39 471.4V547.7M1188.39 471.4H1264.68M1188.39 547.7V624M1188.39 547.7H1264.68M1188.39 624V700.3M1188.39 624H1264.68M1188.39 700.3V776.6M1188.39 700.3H1264.68M1188.39 776.6V852.9M1188.39 776.6H1264.68M1188.39 852.9V929.2M1188.39 852.9H1264.68M1188.39 929.2V1005.5M1188.39 929.2H1264.68M1188.39 1005.5V1081.8M1188.39 1005.5H1264.68M1188.39 1081.8V1158.1M1188.39 1081.8H1264.68M1188.39 1158.1V1234.4M1188.39 1158.1H1264.68M1188.39 1234.4V1310.7M1188.39 1234.4H1264.68M1188.39 1310.7V1387M1188.39 1310.7H1264.68M1188.39 1387H1264.68M1264.68 -139V-62.7M1264.68 -139H1340.98M1264.68 -62.7V13.6M1264.68 -62.7H1340.98M1264.68 13.6V89.9M1264.68 13.6H1340.98M1264.68 89.9H1340.98M1264.68 89.9V471.4M1264.68 471.4V547.7M1264.68 471.4H1340.98M1264.68 547.7V624M1264.68 547.7H1340.98M1264.68 624V700.3M1264.68 624H1340.98M1264.68 700.3V776.6M1264.68 700.3H1340.98M1264.68 776.6V852.9M1264.68 776.6H1340.98M1264.68 852.9V929.2M1264.68 852.9H1340.98M1264.68 929.2V1005.5M1264.68 929.2H1340.98M1264.68 1005.5V1081.8M1264.68 1005.5H1340.98M1264.68 1081.8V1158.1M1264.68 1081.8H1340.98M1264.68 1158.1V1234.4M1264.68 1158.1H1340.98M1264.68 1234.4V1310.7M1264.68 1234.4H1340.98M1264.68 1310.7V1387M1264.68 1310.7H1340.98M1264.68 1387H1340.98M1340.98 -139V-62.7M1340.98 -139H1417.27M1340.98 -62.7V13.6M1340.98 -62.7H1417.27M1340.98 13.6V89.9M1340.98 13.6H1417.27M1340.98 89.9H1417.27M1340.98 89.9V471.4M1340.98 471.4V547.7M1340.98 471.4H1417.27M1340.98 547.7V624M1340.98 547.7H1417.27M1340.98 624V700.3M1340.98 624H1417.27M1340.98 700.3V776.6M1340.98 700.3H1417.27M1340.98 776.6V852.9M1340.98 776.6H1417.27M1340.98 852.9V929.2M1340.98 852.9H1417.27M1340.98 929.2V1005.5M1340.98 929.2H1417.27M1340.98 1005.5V1081.8M1340.98 1005.5H1417.27M1340.98 1081.8V1158.1M1340.98 1081.8H1417.27M1340.98 1158.1V1234.4M1340.98 1158.1H1417.27M1340.98 1234.4V1310.7M1340.98 1234.4H1417.27M1340.98 1310.7V1387M1340.98 1310.7H1417.27M1340.98 1387H1417.27M1417.27 -139V-62.7M1417.27 -139H1493.57M1417.27 -62.7V13.6M1417.27 -62.7H1493.57M1417.27 13.6V89.9M1417.27 13.6H1493.57M1417.27 89.9H1493.57M1417.27 89.9V471.4M1417.27 471.4V547.7M1417.27 471.4H1493.57M1417.27 547.7V624M1417.27 547.7H1493.57M1417.27 624V700.3M1417.27 624H1493.57M1417.27 700.3V776.6M1417.27 700.3H1493.57M1417.27 776.6V852.9M1417.27 776.6H1493.57M1417.27 852.9V929.2M1417.27 852.9H1493.57M1417.27 929.2V1005.5M1417.27 929.2H1493.57M1417.27 1005.5V1081.8M1417.27 1005.5H1493.57M1417.27 1081.8V1158.1M1417.27 1081.8H1493.57M1417.27 1158.1V1234.4M1417.27 1158.1H1493.57M1417.27 1234.4V1310.7M1417.27 1234.4H1493.57M1417.27 1310.7V1387M1417.27 1310.7H1493.57M1417.27 1387H1493.57M1493.57 -139V-62.7M1493.57 -139H1569.86M1493.57 -62.7V13.6M1493.57 -62.7H1569.86M1493.57 13.6V89.9M1493.57 13.6H1569.86M1493.57 89.9H1569.86M1493.57 89.9V471.4M1493.57 471.4V547.7M1493.57 471.4H1569.86M1493.57 547.7V624M1493.57 547.7H1569.86M1493.57 624V700.3M1493.57 624H1569.86M1493.57 700.3V776.6M1493.57 700.3H1569.86M1493.57 776.6V852.9M1493.57 776.6H1569.86M1493.57 852.9V929.2M1493.57 852.9H1569.86M1493.57 929.2V1005.5M1493.57 929.2H1569.86M1493.57 1005.5V1081.8M1493.57 1005.5H1569.86M1493.57 1081.8V1158.1M1493.57 1081.8H1569.86M1493.57 1158.1V1234.4M1493.57 1158.1H1569.86M1493.57 1234.4V1310.7M1493.57 1234.4H1569.86M1493.57 1310.7V1387M1493.57 1310.7H1569.86M1493.57 1387H1569.86M1569.86 -139V-62.7M1569.86 -139H1646.16M1569.86 -62.7V13.6M1569.86 -62.7H1646.16M1569.86 13.6V89.9M1569.86 13.6H1646.16M1569.86 89.9H1646.16M1569.86 89.9V318.8M1569.86 318.8V395.1M1569.86 318.8H1646.16M1569.86 395.1V471.4M1569.86 395.1H1646.16M1569.86 471.4V547.7M1569.86 471.4H1646.16M1569.86 547.7V624M1569.86 547.7H1646.16M1569.86 624V700.3M1569.86 624H1646.16M1569.86 700.3V776.6M1569.86 700.3H1646.16M1569.86 776.6V852.9M1569.86 776.6H1646.16M1569.86 852.9V929.2M1569.86 852.9H1646.16M1569.86 929.2V1005.5M1569.86 929.2H1646.16M1569.86 1005.5V1081.8M1569.86 1005.5H1646.16M1569.86 1081.8V1158.1M1569.86 1081.8H1646.16M1569.86 1158.1V1234.4M1569.86 1158.1H1646.16M1569.86 1234.4V1310.7M1569.86 1234.4H1646.16M1569.86 1310.7V1387M1569.86 1310.7H1646.16M1569.86 1387H1646.16M1646.16 -139V-62.7M1646.16 -139H1722.45M1646.16 -62.7V13.6M1646.16 -62.7H1722.45M1646.16 13.6V89.9M1646.16 13.6H1722.45M1646.16 89.9H1722.45M1646.16 89.9V318.8M1646.16 318.8V395.1M1646.16 318.8H1722.45M1646.16 395.1V471.4M1646.16 395.1H1722.45M1646.16 471.4V547.7M1646.16 471.4H1722.45M1646.16 547.7V624M1646.16 547.7H1722.45M1646.16 624V700.3M1646.16 624H1722.45M1646.16 700.3V776.6M1646.16 700.3H1722.45M1646.16 776.6V852.9M1646.16 776.6H1722.45M1646.16 852.9V929.2M1646.16 852.9H1722.45M1646.16 929.2V1005.5M1646.16 929.2H1722.45M1646.16 1005.5V1081.8M1646.16 1005.5H1722.45M1646.16 1081.8V1158.1M1646.16 1081.8H1722.45M1646.16 1158.1V1234.4M1646.16 1158.1H1722.45M1646.16 1234.4V1310.7M1646.16 1234.4H1722.45M1646.16 1310.7V1387M1646.16 1310.7H1722.45M1646.16 1387H1722.45M1722.45 -139V-62.7M1722.45 -139H1798.75M1722.45 -62.7V13.6M1722.45 -62.7H1798.75M1722.45 13.6V89.9M1722.45 13.6H1798.75M1722.45 89.9H1798.75M1722.45 89.9V318.8M1722.45 318.8V395.1M1722.45 318.8H1798.75M1722.45 395.1V471.4M1722.45 395.1H1798.75M1722.45 471.4V547.7M1722.45 471.4H1798.75M1722.45 547.7V624M1722.45 547.7H1798.75M1722.45 624V700.3M1722.45 624H1798.75M1722.45 700.3V776.6M1722.45 700.3H1798.75M1722.45 776.6V852.9M1722.45 776.6H1798.75M1722.45 852.9V929.2M1722.45 852.9H1798.75M1722.45 929.2V1005.5M1722.45 929.2H1798.75M1722.45 1005.5V1081.8M1722.45 1005.5H1798.75M1722.45 1081.8V1158.1M1722.45 1081.8H1798.75M1722.45 1158.1V1234.4M1722.45 1158.1H1798.75M1722.45 1234.4V1310.7M1722.45 1234.4H1798.75M1722.45 1310.7V1387M1722.45 1310.7H1798.75M1722.45 1387H1798.75M1798.75 -139V-62.7M1798.75 -139H1875.05M1798.75 -62.7V13.6M1798.75 -62.7H1875.05M1798.75 13.6V89.9M1798.75 13.6H1875.05M1798.75 89.9V166.2M1798.75 89.9H1875.05M1798.75 166.2V242.5M1798.75 166.2H1875.05M1798.75 242.5V318.8M1798.75 242.5H1875.05M1798.75 318.8V395.1M1798.75 318.8H1875.05M1798.75 395.1V471.4M1798.75 395.1H1875.05M1798.75 471.4V547.7M1798.75 471.4H1875.05M1798.75 547.7V624M1798.75 547.7H1875.05M1798.75 624V700.3M1798.75 624H1875.05M1798.75 700.3V776.6M1798.75 700.3H1875.05M1798.75 776.6V852.9M1798.75 776.6H1875.05M1798.75 852.9V929.2M1798.75 852.9H1875.05M1798.75 929.2V1005.5M1798.75 929.2H1875.05M1798.75 1005.5V1081.8M1798.75 1005.5H1875.05M1798.75 1081.8V1158.1M1798.75 1081.8H1875.05M1798.75 1158.1V1234.4M1798.75 1158.1H1875.05M1798.75 1234.4V1310.7M1798.75 1234.4H1875.05M1798.75 1310.7V1387M1798.75 1310.7H1875.05M1798.75 1387H1875.05M1875.05 -139V-62.7M1875.05 -139H1951.34M1875.05 -62.7V13.6M1875.05 -62.7H1951.34M1875.05 13.6V89.9M1875.05 13.6H1951.34M1875.05 89.9V166.2M1875.05 89.9H1951.34M1875.05 166.2V242.5M1875.05 166.2H1951.34M1875.05 242.5V318.8M1875.05 242.5H1951.34M1875.05 318.8V395.1M1875.05 318.8H1951.34M1875.05 395.1V471.4M1875.05 395.1H1951.34M1875.05 471.4V547.7M1875.05 471.4H1951.34M1875.05 547.7V624M1875.05 547.7H1951.34M1875.05 624V700.3M1875.05 624H1951.34M1875.05 700.3V776.6M1875.05 700.3H1951.34M1875.05 776.6V852.9M1875.05 776.6H1951.34M1875.05 852.9V929.2M1875.05 852.9H1951.34M1875.05 929.2V1005.5M1875.05 929.2H1951.34M1875.05 1005.5V1081.8M1875.05 1005.5H1951.34M1875.05 1081.8V1158.1M1875.05 1081.8H1951.34M1875.05 1158.1V1234.4M1875.05 1158.1H1951.34M1875.05 1234.4V1310.7M1875.05 1234.4H1951.34M1875.05 1310.7V1387M1875.05 1310.7H1951.34M1875.05 1387H1951.34M1951.34 -139V-62.7M1951.34 -139H2027.64M1951.34 -62.7V13.6M1951.34 -62.7H2027.64M1951.34 13.6V89.9M1951.34 13.6H2027.64M1951.34 89.9V166.2M1951.34 89.9H2027.64M1951.34 166.2V242.5M1951.34 166.2H2027.64M1951.34 242.5V318.8M1951.34 242.5H2027.64M1951.34 318.8V395.1M1951.34 318.8H2027.64M1951.34 395.1V471.4M1951.34 395.1H2027.64M1951.34 471.4V547.7M1951.34 471.4H2027.64M1951.34 547.7V624M1951.34 547.7H2027.64M1951.34 624V700.3M1951.34 624H2027.64M1951.34 700.3V776.6M1951.34 700.3H2027.64M1951.34 776.6V852.9M1951.34 776.6H2027.64M1951.34 852.9V929.2M1951.34 852.9H2027.64M1951.34 929.2V1005.5M1951.34 929.2H2027.64M1951.34 1005.5V1081.8M1951.34 1005.5H2027.64M1951.34 1081.8V1158.1M1951.34 1081.8H2027.64M1951.34 1158.1V1234.4M1951.34 1158.1H2027.64M1951.34 1234.4V1310.7M1951.34 1234.4H2027.64M1951.34 1310.7V1387M1951.34 1310.7H2027.64M1951.34 1387H2027.64M2027.64 -139V-62.7M2027.64 -139H2103.93M2027.64 -62.7V13.6M2027.64 -62.7H2103.93M2027.64 13.6V89.9M2027.64 13.6H2103.93M2027.64 89.9V166.2M2027.64 89.9H2103.93M2027.64 166.2V242.5M2027.64 166.2H2103.93M2027.64 242.5V318.8M2027.64 242.5H2103.93M2027.64 318.8V395.1M2027.64 318.8H2103.93M2027.64 395.1V471.4M2027.64 395.1H2103.93M2027.64 471.4V547.7M2027.64 471.4H2103.93M2027.64 547.7V624M2027.64 547.7H2103.93M2027.64 624V700.3M2027.64 624H2103.93M2027.64 700.3V776.6M2027.64 700.3H2103.93M2027.64 776.6V852.9M2027.64 776.6H2103.93M2027.64 852.9V929.2M2027.64 852.9H2103.93M2027.64 929.2V1005.5M2027.64 929.2H2103.93M2027.64 1005.5V1081.8M2027.64 1005.5H2103.93M2027.64 1081.8V1158.1M2027.64 1081.8H2103.93M2027.64 1158.1V1234.4M2027.64 1158.1H2103.93M2027.64 1234.4V1310.7M2027.64 1234.4H2103.93M2027.64 1310.7V1387M2027.64 1310.7H2103.93M2027.64 1387H2103.93M2103.93 -139V-62.7M2103.93 -139H2180.23M2103.93 -62.7V13.6M2103.93 -62.7H2180.23M2103.93 13.6V89.9M2103.93 13.6H2180.23M2103.93 89.9V166.2M2103.93 89.9H2180.23M2103.93 166.2V242.5M2103.93 166.2H2180.23M2103.93 242.5V318.8M2103.93 242.5H2180.23M2103.93 318.8V395.1M2103.93 318.8H2180.23M2103.93 395.1H2180.23M2103.93 395.1V471.4M2103.93 471.4V547.7M2103.93 471.4H2180.23M2103.93 547.7V624M2103.93 547.7H2180.23M2103.93 624V700.3M2103.93 624H2180.23M2103.93 700.3V776.6M2103.93 700.3H2180.23M2103.93 776.6V852.9M2103.93 776.6H2180.23M2103.93 852.9V929.2M2103.93 852.9H2180.23M2103.93 929.2V1005.5M2103.93 929.2H2180.23M2103.93 1005.5V1081.8M2103.93 1005.5H2180.23M2103.93 1081.8V1158.1M2103.93 1081.8H2180.23M2103.93 1158.1V1234.4M2103.93 1158.1H2180.23M2103.93 1234.4V1310.7M2103.93 1234.4H2180.23M2103.93 1310.7V1387M2103.93 1310.7H2180.23M2103.93 1387H2180.23M2180.23 -139V-62.7M2180.23 -139H2256.52M2180.23 -62.7V13.6M2180.23 -62.7H2256.52M2180.23 13.6V89.9M2180.23 13.6H2256.52M2180.23 89.9V166.2M2180.23 89.9H2256.52M2180.23 166.2V242.5M2180.23 166.2H2256.52M2180.23 242.5V318.8M2180.23 242.5H2256.52M2180.23 318.8V395.1M2180.23 318.8H2256.52M2180.23 395.1V471.4M2180.23 395.1H2256.52M2180.23 471.4V547.7M2180.23 471.4H2256.52M2180.23 547.7V624M2180.23 547.7H2256.52M2180.23 624V700.3M2180.23 624H2256.52M2180.23 700.3V776.6M2180.23 700.3H2256.52M2180.23 776.6V852.9M2180.23 776.6H2256.52M2180.23 852.9V929.2M2180.23 852.9H2256.52M2180.23 929.2V1005.5M2180.23 929.2H2256.52M2180.23 1005.5V1081.8M2180.23 1005.5H2256.52M2180.23 1081.8V1158.1M2180.23 1081.8H2256.52M2180.23 1158.1V1234.4M2180.23 1158.1H2256.52M2180.23 1234.4V1310.7M2180.23 1234.4H2256.52M2180.23 1310.7V1387M2180.23 1310.7H2256.52M2180.23 1387H2256.52M2256.52 -139V-62.7M2256.52 -139H2332.82M2256.52 -62.7V13.6M2256.52 -62.7H2332.82M2256.52 13.6V89.9M2256.52 13.6H2332.82M2256.52 89.9V166.2M2256.52 89.9H2332.82M2256.52 166.2V242.5M2256.52 166.2H2332.82M2256.52 242.5V318.8M2256.52 242.5H2332.82M2256.52 318.8V395.1M2256.52 318.8H2332.82M2256.52 395.1V471.4M2256.52 395.1H2332.82M2256.52 471.4V547.7M2256.52 471.4H2332.82M2256.52 547.7V624M2256.52 547.7H2332.82M2256.52 624V700.3M2256.52 624H2332.82M2256.52 700.3V776.6M2256.52 700.3H2332.82M2256.52 776.6V852.9M2256.52 776.6H2332.82M2256.52 852.9V929.2M2256.52 852.9H2332.82M2256.52 929.2V1005.5M2256.52 929.2H2332.82M2256.52 1005.5V1081.8M2256.52 1005.5H2332.82M2256.52 1081.8V1158.1M2256.52 1081.8H2332.82M2256.52 1158.1V1234.4M2256.52 1158.1H2332.82M2256.52 1234.4V1310.7M2256.52 1234.4H2332.82M2256.52 1310.7V1387M2256.52 1310.7H2332.82M2256.52 1387H2332.82M2332.82 -139V-62.7M2332.82 -139H2409.11M2332.82 -62.7V13.6M2332.82 -62.7H2409.11M2332.82 13.6V89.9M2332.82 13.6H2409.11M2332.82 89.9V166.2M2332.82 89.9H2409.11M2332.82 166.2V242.5M2332.82 166.2H2409.11M2332.82 242.5V318.8M2332.82 242.5H2409.11M2332.82 318.8V395.1M2332.82 318.8H2409.11M2332.82 395.1V471.4M2332.82 395.1H2409.11M2332.82 471.4V547.7M2332.82 471.4H2409.11M2332.82 547.7V624M2332.82 547.7H2409.11M2332.82 624V700.3M2332.82 624H2409.11M2332.82 700.3V776.6M2332.82 700.3H2409.11M2332.82 776.6V852.9M2332.82 776.6H2409.11M2332.82 852.9V929.2M2332.82 852.9H2409.11M2332.82 929.2V1005.5M2332.82 929.2H2409.11M2332.82 1005.5V1081.8M2332.82 1005.5H2409.11M2332.82 1081.8V1158.1M2332.82 1081.8H2409.11M2332.82 1158.1V1234.4M2332.82 1158.1H2409.11M2332.82 1234.4V1310.7M2332.82 1234.4H2409.11M2332.82 1310.7V1387M2332.82 1310.7H2409.11M2332.82 1387H2409.11M2409.11 -139V-62.7M2409.11 -139H2485.41M2409.11 -62.7V13.6M2409.11 -62.7H2485.41M2409.11 13.6V89.9M2409.11 13.6H2485.41M2409.11 89.9V166.2M2409.11 89.9H2485.41M2409.11 166.2V242.5M2409.11 166.2H2485.41M2409.11 242.5V318.8M2409.11 242.5H2485.41M2409.11 318.8V395.1M2409.11 318.8H2485.41M2409.11 395.1V471.4M2409.11 395.1H2485.41M2409.11 471.4V547.7M2409.11 471.4H2485.41M2409.11 547.7V624M2409.11 547.7H2485.41M2409.11 624V700.3M2409.11 624H2485.41M2409.11 700.3V776.6M2409.11 700.3H2485.41M2409.11 776.6V852.9M2409.11 776.6H2485.41M2409.11 852.9V929.2M2409.11 852.9H2485.41M2409.11 929.2V1005.5M2409.11 929.2H2485.41M2409.11 1005.5V1081.8M2409.11 1005.5H2485.41M2409.11 1081.8V1158.1M2409.11 1081.8H2485.41M2409.11 1158.1V1234.4M2409.11 1158.1H2485.41M2409.11 1234.4V1310.7M2409.11 1234.4H2485.41M2409.11 1310.7V1387M2409.11 1310.7H2485.41M2409.11 1387H2485.41M2485.41 -139V-62.7M2485.41 -139H2561.7M2485.41 -62.7V13.6M2485.41 -62.7H2561.7M2485.41 13.6V89.9M2485.41 13.6H2561.7M2485.41 89.9V166.2M2485.41 89.9H2561.7M2485.41 166.2V242.5M2485.41 166.2H2561.7M2485.41 242.5V318.8M2485.41 242.5H2561.7M2485.41 318.8V395.1M2485.41 318.8H2561.7M2485.41 395.1V471.4M2485.41 395.1H2561.7M2485.41 471.4V547.7M2485.41 471.4H2561.7M2485.41 547.7V624M2485.41 547.7H2561.7M2485.41 624V700.3M2485.41 624H2561.7M2485.41 700.3V776.6M2485.41 700.3H2561.7M2485.41 776.6V852.9M2485.41 776.6H2561.7M2485.41 852.9V929.2M2485.41 852.9H2561.7M2485.41 929.2V1005.5M2485.41 929.2H2561.7M2485.41 1005.5V1081.8M2485.41 1005.5H2561.7M2485.41 1081.8V1158.1M2485.41 1081.8H2561.7M2485.41 1158.1V1234.4M2485.41 1158.1H2561.7M2485.41 1234.4V1310.7M2485.41 1234.4H2561.7M2485.41 1310.7V1387M2485.41 1310.7H2561.7M2485.41 1387H2561.7M2561.7 -139V-62.7M2561.7 -139H2638V-62.7M2561.7 -62.7V13.6M2561.7 -62.7H2638M2561.7 13.6V89.9M2561.7 13.6H2638M2561.7 89.9V166.2M2561.7 89.9H2638M2561.7 166.2V242.5M2561.7 166.2H2638M2561.7 242.5V318.8M2561.7 242.5H2638M2561.7 318.8V395.1M2561.7 318.8H2638M2561.7 395.1V471.4M2561.7 395.1H2638M2561.7 471.4V547.7M2561.7 471.4H2638M2561.7 547.7V624M2561.7 547.7H2638M2561.7 624V700.3M2561.7 624H2638M2561.7 700.3V776.6M2561.7 700.3H2638M2561.7 776.6V852.9M2561.7 776.6H2638M2561.7 852.9V929.2M2561.7 852.9H2638M2561.7 929.2V1005.5M2561.7 929.2H2638M2561.7 1005.5V1081.8M2561.7 1005.5H2638M2561.7 1081.8V1158.1M2561.7 1081.8H2638M2561.7 1158.1V1234.4M2561.7 1158.1H2638M2561.7 1234.4V1310.7M2561.7 1234.4H2638M2561.7 1310.7V1387M2561.7 1310.7H2638M2561.7 1387H2638V1310.7M2638 -62.7V13.6M2638 13.6V89.9M2638 89.9V166.2M2638 166.2V242.5M2638 242.5V318.8M2638 318.8V395.1M2638 395.1V471.4M2638 471.4V547.7M2638 547.7V624M2638 624V700.3M2638 700.3V776.6M2638 776.6V852.9M2638 852.9V929.2M2638 929.2V1005.5M2638 1005.5V1081.8M2638 1081.8V1158.1M2638 1158.1V1234.4M2638 1234.4V1310.7" stroke="url(#paint0_linear_358_147)" stroke-opacity="0.2" stroke-width="1.61"/>
<defs>
<linearGradient id="paint0_linear_358_147" x1="959.5" y1="311.17" x2="959.5" y2="1761.82" gradientUnits="userSpaceOnUse">
<stop stop-color="#B8B8B9"/>
<stop offset="1" stop-color="#B8B8B9"/>
</linearGradient>
</defs>
</svg>
