<svg width="96" height="96" viewBox="0 0 96 96" fill="none" xmlns="http://www.w3.org/2000/svg">
<g clip-path="url(#clip0_103_2)">
<path d="M96 82.6667C96 90.032 90.032 96 82.6667 96H13.3333C5.97067 96 0 90.032 0 82.6667V13.3333C0 5.968 5.97067 0 13.3333 0H82.6667C90.032 0 96 5.968 96 13.3333V82.6667Z" fill="#F2F6FA"/>
<path d="M24 38H34V72H24V38ZM28.97 34H28.914C25.93 34 24 31.776 24 28.998C24 26.16 25.99 24 29.028 24C32.07 24 33.944 26.16 34 28.998C34 31.774 32.07 34 28.97 34ZM72 72H62V53.802C62 49.406 59.55 46.406 55.616 46.406C52.614 46.406 50.99 48.43 50.202 50.386C49.914 51.086 50 53.022 50 54V72H40V38H50V43.232C51.442 41 53.7 38 59.476 38C66.632 38 71.998 42.5 71.998 52.548L72 72Z" fill="#060913"/>
</g>
<defs>
<clipPath id="clip0_103_2">
<rect width="96" height="96" fill="white"/>
</clipPath>
</defs>
</svg>
