<svg width="40" height="40" viewBox="0 0 40 40" fill="none" xmlns="http://www.w3.org/2000/svg">
<path d="M8 0C3.58172 0 0 3.58172 0 8V32C0 36.4183 3.58172 40 8 40H32C36.4183 40 40 36.4183 40 32V8C40 3.58172 36.4183 0 32 0H8ZM9.80957 7.86377C11.3939 7.8816 12.9546 8.9746 13.0225 10.8667C13.0563 12.5492 11.5901 13.8307 9.76807 13.8696H9.72413C8.15557 13.8515 6.62373 12.7311 6.55273 10.8667C6.5751 9.20293 7.97363 7.90323 9.80957 7.86377ZM26.8066 15.813C28.5485 15.8238 30.1924 16.3405 31.543 17.7173C32.9465 19.2827 33.3971 21.441 33.4473 23.6353V30.7397C33.4473 32.3281 32.1596 33.6157 30.5713 33.6157V33.6157C28.9829 33.6157 27.6953 32.3281 27.6953 30.7397V24.314C27.6825 22.5706 27.0853 20.4514 24.7778 20.3809C23.4255 20.3953 22.4718 21.1811 21.8188 22.4951C21.6406 22.9181 21.6149 23.4042 21.6064 23.8892V30.7475C21.6064 32.3316 20.3223 33.6157 18.7382 33.6157V33.6157C17.149 33.6157 15.8629 32.3237 15.8706 30.7345C15.8893 26.8325 15.907 22.9305 15.8984 19.0283V19.0283C15.8984 17.5141 17.1338 16.2378 18.648 16.2378H21.0173C21.3427 16.2378 21.6064 16.5015 21.6064 16.8269V16.8269C21.6064 17.4022 22.3845 17.6611 22.8049 17.2683C22.9785 17.1061 23.1632 16.9516 23.3618 16.8066C24.3466 16.1038 25.5296 15.8344 26.8066 15.813ZM6.8921 19.1125C6.8921 17.5249 8.17917 16.2378 9.76685 16.2378V16.2378C11.3545 16.2378 12.6416 17.5249 12.6416 19.1125V30.741C12.6416 32.3287 11.3545 33.6157 9.76685 33.6157V33.6157C8.17917 33.6157 6.8921 32.3287 6.8921 30.741V19.1125Z" fill="#3F424A"/>
</svg>
