<svg width="40" height="30" viewBox="0 0 40 30" fill="none" xmlns="http://www.w3.org/2000/svg">
<path fill-rule="evenodd" clip-rule="evenodd" d="M14.344 17.668L20.004 21.538L25.46 17.774L37.69 29.84C37.3673 29.9453 37.026 29.9987 36.666 30H3.334C2.894 30 2.474 29.914 2.088 29.76L14.344 17.668ZM40 7.752V26.666C40 27.16 39.892 27.628 39.7 28.05L27.712 16.222L40 7.752ZM0 7.858L12.084 16.122L0.212 27.838C0.0729255 27.4629 0.00115798 27.0661 0 26.666L0 7.858ZM36.666 0C38.506 0 40 1.492 40 3.334V4.506L19.996 18.296L0 4.62V3.334C0 1.494 1.492 0 3.334 0H36.666Z" fill="#3F424A"/>
</svg>
