<svg width="27" height="27" viewBox="0 0 27 27" fill="none" xmlns="http://www.w3.org/2000/svg">
<path d="M13.9821 27C10.2738 27 6.7174 25.5269 4.09525 22.9047C1.47311 20.2826 0 16.7262 0 13.0179C0 7.35279 3.25445 2.27344 8.29341 0.0803058C8.471 0.00290719 8.66779 -0.0192064 8.85813 0.0168468C9.04847 0.0528999 9.22354 0.145448 9.36052 0.282432C9.49751 0.419416 9.59005 0.594483 9.62611 0.784823C9.66216 0.975163 9.64005 1.17195 9.56265 1.34954C8.98408 2.67784 8.67852 4.37919 8.67852 6.26797C8.67852 12.9143 14.0857 18.3215 20.732 18.3215C22.6208 18.3215 24.3222 18.0159 25.6505 17.4374C25.828 17.36 26.0248 17.3378 26.2152 17.3739C26.4055 17.4099 26.5806 17.5025 26.7176 17.6395C26.8546 17.7765 26.9471 17.9515 26.9832 18.1419C27.0192 18.3322 26.9971 18.529 26.9197 18.7066C24.7266 23.7456 19.6472 27 13.9821 27Z" fill="#3F424A"/>
</svg>
