<svg width="32" height="31" viewBox="0 0 32 31" fill="none" xmlns="http://www.w3.org/2000/svg">
<path d="M7.90943 0L0.31133 5.5441L6.92291 7.58786L14.6064 1.47028L7.90943 0ZM15.709 2.18333L7.56007 8.50251L11.0855 17.7117L11.6746 17.188L11.9666 16.0846C11.7689 15.9536 11.5995 15.7404 11.4857 15.4797C11.372 15.219 11.3206 14.926 11.3398 14.6481C11.3587 14.3783 11.4431 14.1379 11.5802 13.9638C11.7173 13.7896 11.8995 13.6913 12.0989 13.6839C12.1814 13.6808 12.2654 13.6933 12.3488 13.7211C12.4221 13.7459 12.4942 13.7823 12.5637 13.8296L13.1118 11.7588C13.1185 11.7339 13.1266 11.7095 13.1362 11.6857L13.1402 11.6767C13.1469 11.6604 13.1543 11.6443 13.1623 11.6286L13.1685 11.6178C13.1764 11.6029 13.1849 11.5882 13.194 11.5739C13.2055 11.5564 13.2178 11.5394 13.2309 11.5232L13.2354 11.518C13.2473 11.5035 13.2597 11.4896 13.2727 11.4762C13.287 11.4616 13.302 11.4477 13.3176 11.4346L13.3179 11.4344C13.3282 11.4261 13.3388 11.4181 13.3496 11.4104C13.3557 11.4057 13.3618 11.4011 13.368 11.3966C13.3793 11.3892 13.3909 11.3821 13.4026 11.3755C13.4088 11.3717 13.415 11.368 13.4213 11.3645C13.4313 11.3593 13.4414 11.3545 13.4517 11.3499C13.4603 11.3455 13.469 11.3413 13.4779 11.3374C13.4878 11.3335 13.4979 11.33 13.5081 11.3267C13.5174 11.3231 13.5268 11.3198 13.5364 11.3166C13.5456 11.3141 13.5549 11.3117 13.5642 11.3096C13.575 11.3066 13.5858 11.304 13.5967 11.3016C13.6084 11.2996 13.6201 11.298 13.6319 11.2967C13.6404 11.2953 13.6489 11.2942 13.6574 11.2932H13.6581L13.6588 11.293L15.9799 11.0912C16.0331 10.8895 16.1272 10.7194 16.2526 10.5986C16.3779 10.4778 16.5299 10.4108 16.6927 10.4044C16.7752 10.4013 16.8593 10.4138 16.9428 10.4416C17.1678 10.5173 17.3771 10.7003 17.5314 10.9563L18.4318 10.8781L15.709 2.18305L15.709 2.18333ZM7.80257 2.71761C8.09466 2.72379 8.3422 2.78826 8.50321 2.90008C8.66423 3.0119 8.72882 3.16418 8.68603 3.33112C8.63689 3.523 8.44974 3.71959 8.16573 3.87764C7.88173 4.03569 7.52414 4.14227 7.17163 4.17392C6.99707 4.18959 6.82901 4.18639 6.67705 4.1645C6.52509 4.14262 6.39221 4.10247 6.28599 4.04636C6.17977 3.99025 6.1023 3.91928 6.058 3.83749C6.01369 3.75569 6.00343 3.66469 6.02778 3.56967C6.05208 3.47466 6.11053 3.37749 6.19979 3.2837C6.28905 3.18992 6.40737 3.10136 6.548 3.02308C6.68863 2.94481 6.84881 2.87835 7.01939 2.8275C7.18997 2.77666 7.36762 2.74242 7.54219 2.72674C7.63084 2.71883 7.71802 2.71577 7.80243 2.71761H7.80257ZM14.7215 4.36955C14.804 4.36648 14.8881 4.379 14.9714 4.40678C15.2161 4.48823 15.4416 4.69636 15.5984 4.98538C15.7552 5.2744 15.8304 5.62064 15.8075 5.94794C15.7962 6.11001 15.7611 6.26255 15.7042 6.39684C15.6474 6.53114 15.5699 6.64456 15.4762 6.73064C15.3825 6.81671 15.2744 6.87375 15.1581 6.8985C15.0419 6.92325 14.9197 6.91523 14.7985 6.87488C14.6774 6.83457 14.5596 6.76273 14.452 6.66346C14.3444 6.56419 14.2491 6.43944 14.1714 6.29633C14.0938 6.15322 14.0353 5.99455 13.9995 5.82939C13.9636 5.66422 13.9509 5.49579 13.9623 5.33372C13.9812 5.06391 14.0656 4.82354 14.2028 4.64941C14.3399 4.47527 14.5221 4.37697 14.7215 4.36955ZM0 6.7693L3.2439 14.7859L9.74911 17.6223L6.57451 8.80175L0 6.76923V6.7693ZM10.2087 7.99366C10.2912 7.99052 10.3753 8.003 10.4587 8.03075C10.7034 8.11225 10.9289 8.32039 11.0857 8.60941C11.2424 8.89843 11.3176 9.24464 11.2947 9.57191C11.2834 9.73398 11.2483 9.88652 11.1914 10.0208C11.1346 10.1551 11.0571 10.2685 10.9634 10.3546C10.8697 10.4407 10.7616 10.4978 10.6454 10.5225C10.5291 10.5473 10.4069 10.5393 10.2858 10.4989C10.0411 10.4175 9.81556 10.2093 9.65876 9.92032C9.50196 9.6313 9.42674 9.28506 9.44965 8.95776C9.46854 8.68799 9.55299 8.44764 9.69008 8.27351C9.82717 8.09938 10.0093 8.00112 10.2087 7.99366ZM5.0229 8.90796C5.194 8.89848 5.40851 9.0016 5.62478 9.19731C5.84105 9.39302 6.04367 9.66736 6.19332 9.9671C6.27259 10.1259 6.33472 10.2872 6.37615 10.4419C6.41758 10.5966 6.4375 10.7416 6.43477 10.8687C6.43205 10.9958 6.40673 11.1025 6.36027 11.1826C6.31381 11.2628 6.24711 11.3148 6.16398 11.3358C5.99607 11.3781 5.77147 11.2913 5.53957 11.0945C5.30768 10.8977 5.08748 10.607 4.92743 10.2864C4.76743 9.96592 4.68064 9.64173 4.68613 9.38514C4.69162 9.12854 4.78894 8.96054 4.9567 8.91808C4.97782 8.91267 4.99987 8.9093 5.0229 8.90796ZM23.2052 11.7325L15.4667 12.4052L23.3198 18.0196L31.1616 16.8285L23.2052 11.7323V11.7325ZM3.21684 12.4108C3.38794 12.4012 3.60247 12.5043 3.81877 12.7C4.03508 12.8957 4.23773 13.1701 4.3874 13.4699C4.54748 13.7905 4.63432 14.1148 4.62882 14.3715C4.62332 14.6282 4.52593 14.7962 4.35806 14.8385C4.19016 14.8809 3.96556 14.7941 3.73367 14.5973C3.50177 14.4005 3.28157 14.1098 3.12151 13.7892C2.96147 13.4687 2.87465 13.1444 2.88015 12.8878C2.88566 12.6311 2.98303 12.4632 3.15085 12.4207C3.17197 12.4154 3.19409 12.4122 3.21712 12.4109L3.21684 12.4108ZM14.0808 12.9596L11.2134 23.7904L19.1945 30.7765L22.4491 18.9424L14.0808 12.9597V12.9596ZM22.8468 13.7441C23.061 13.7481 23.2968 13.7808 23.5337 13.8394C23.7706 13.8979 24.0014 13.9805 24.2063 14.08C24.3717 14.1604 24.5165 14.2501 24.6324 14.3439C24.7483 14.4376 24.8331 14.5337 24.8818 14.6267C24.9306 14.7196 24.9424 14.8075 24.9166 14.8854C24.8908 14.9633 24.8278 15.0296 24.7314 15.0806C24.635 15.1316 24.5069 15.1663 24.3545 15.1827C24.2021 15.1991 24.0284 15.1968 23.8432 15.1761C23.658 15.1553 23.4651 15.1165 23.2753 15.0617C23.0856 15.007 22.9028 14.9375 22.7374 14.8571C22.4033 14.6948 22.1603 14.4982 22.0617 14.3105C21.9632 14.1229 22.0173 13.9596 22.212 13.8565C22.3601 13.7783 22.5813 13.7391 22.8468 13.7441L22.8468 13.7441ZM32 17.9796L23.6555 19.247L20.4233 31L28.4514 28.7683L32 17.9796ZM19.4496 18.7382C19.5471 18.7383 19.6455 18.7606 19.7422 18.8045C19.8826 18.8682 20.017 18.9764 20.1376 19.1229C20.2583 19.2694 20.3628 19.4513 20.4453 19.6582C20.5279 19.8651 20.5867 20.093 20.6185 20.3288C20.6504 20.5646 20.6545 20.8038 20.6308 21.0326C20.5829 21.4947 20.4243 21.8868 20.1899 22.1225C19.9555 22.3582 19.6646 22.4183 19.381 22.2895C19.2406 22.2258 19.1062 22.1176 18.9855 21.9711C18.8649 21.8246 18.7603 21.6427 18.6778 21.4358C18.5953 21.2289 18.5364 21.001 18.5046 20.7652C18.4727 20.5294 18.4686 20.2902 18.4923 20.0613C18.5318 19.6805 18.6468 19.3449 18.8197 19.1059C18.9926 18.8669 19.2139 18.7378 19.4496 18.7382ZM30.0863 19.5556C30.3116 19.5488 30.4982 19.6511 30.616 19.8457C30.7543 20.0744 30.7871 20.4134 30.7072 20.788C30.6272 21.1625 30.4411 21.5421 30.1897 21.8431C29.9383 22.1441 29.6422 22.3419 29.3666 22.3929C29.0911 22.444 28.8585 22.3442 28.7202 22.1155C28.5819 21.8868 28.5491 21.5479 28.629 21.1733C28.7089 20.7987 28.8951 20.4192 29.1465 20.1182C29.2893 19.9472 29.448 19.8079 29.6107 19.7104C29.7735 19.613 29.9361 19.5601 30.0864 19.5557L30.0863 19.5556ZM25.3442 20.3047C25.5694 20.2979 25.756 20.4002 25.8738 20.5948C26.0121 20.8235 26.0449 21.1625 25.965 21.5371C25.885 21.9116 25.6988 22.2912 25.4474 22.5922C25.196 22.8932 24.9 23.0909 24.6244 23.142C24.3488 23.1931 24.1163 23.0933 23.978 22.8645C23.8397 22.6358 23.8069 22.2968 23.8869 21.9223C23.9668 21.5477 24.153 21.1682 24.4044 20.8672C24.5472 20.6963 24.7059 20.5569 24.8686 20.4595C25.0314 20.3621 25.1939 20.3092 25.3442 20.3047H25.3442ZM13.3331 21.2393C13.4306 21.2394 13.5291 21.2617 13.6257 21.3057C13.7662 21.3694 13.9005 21.4776 14.0212 21.6241C14.1418 21.7706 14.2464 21.9525 14.3289 22.1594C14.4114 22.3663 14.4702 22.5942 14.5021 22.83C14.5339 23.0658 14.538 23.305 14.5143 23.5338C14.4906 23.7626 14.4394 23.9767 14.3638 24.1637C14.2881 24.3507 14.1895 24.5071 14.0734 24.6238C13.9573 24.7405 13.8262 24.8153 13.6874 24.844C13.5486 24.8726 13.4049 24.8545 13.2644 24.7908C13.124 24.727 12.9897 24.6188 12.869 24.4723C12.7484 24.3258 12.6438 24.1439 12.5613 23.937C12.4787 23.7301 12.4199 23.5023 12.3881 23.2664C12.3563 23.0306 12.3521 22.7915 12.3758 22.5626C12.4153 22.1817 12.5303 21.8461 12.7031 21.6071C12.876 21.368 13.0972 21.2388 13.333 21.2392L13.3331 21.2393ZM27.9868 25.515C28.212 25.5083 28.3986 25.6106 28.5163 25.8052C28.6546 26.0339 28.6875 26.3728 28.6075 26.7474C28.5276 27.1219 28.3415 27.5015 28.0901 27.8025C27.8387 28.1035 27.5426 28.3012 27.267 28.3523C26.9915 28.4033 26.7589 28.3035 26.6206 28.0747C26.4823 27.846 26.4495 27.5071 26.5294 27.1325C26.6094 26.758 26.7955 26.3784 27.0469 26.0774C27.1897 25.9065 27.3484 25.7671 27.5112 25.6697C27.6739 25.5723 27.8365 25.5194 27.9868 25.5149V25.515ZM23.1317 26.884C23.3569 26.8773 23.5435 26.9796 23.6612 27.1742C23.7995 27.4029 23.8324 27.7418 23.7524 28.1164C23.6725 28.491 23.4864 28.8705 23.235 29.1715C23.1105 29.3206 22.9737 29.4458 22.8325 29.5401C22.6913 29.6345 22.5484 29.696 22.4119 29.7213C22.2755 29.7466 22.1482 29.735 22.0372 29.6874C21.9263 29.6398 21.834 29.557 21.7655 29.4437C21.6272 29.2149 21.5944 28.876 21.6744 28.5014C21.7543 28.1269 21.9405 27.7473 22.1919 27.4463C22.3347 27.2754 22.4934 27.136 22.6561 27.0386C22.8189 26.9413 22.9815 26.8884 23.1318 26.8839L23.1317 26.884Z" fill="#F2EFE9"/>
</svg>
