<svg width="130" height="121" viewBox="0 0 130 121" fill="none" xmlns="http://www.w3.org/2000/svg">
<g opacity="0.3">
<path d="M19.4781 81.7567H23.0401L30.7183 98.3218L38.3766 81.7567H41.8595L30.7578 104.991L19.4781 81.7567Z" fill="#060913"/>
<path d="M46.3715 81.7567H49.5773V104.093H46.3715V81.7567Z" fill="#060913"/>
<path d="M57.1763 81.7569H64.2014C71.6816 81.6927 76.0946 86.5447 76.0946 92.957C76.0946 99.3693 71.6816 104.093 64.2014 104.093H57.1763V81.7569ZM64.2014 100.951C70.1183 100.951 72.9086 97.6593 72.9086 92.957C72.9086 88.2546 70.1381 84.8989 64.2014 84.8561H60.3623V100.951H64.2014Z" fill="#060913"/>
<path d="M81.319 92.9356C81.319 86.4805 86.0683 81.3507 92.381 81.3507C98.6938 81.3507 103.463 86.4805 103.463 92.9356C103.463 99.3906 98.7135 104.52 92.381 104.52C86.0486 104.52 81.319 99.3692 81.319 92.9356ZM100.277 92.9356C100.277 88.1691 96.8336 84.5782 92.381 84.5782C87.9285 84.5782 84.505 88.1905 84.505 92.9356C84.505 97.6807 87.9483 101.272 92.381 101.272C96.8138 101.272 100.277 97.6593 100.277 92.9356Z" fill="#060913"/>
<path d="M109.914 81.7567H113.1L125.844 99.1126V81.7567H129.03V104.093H125.864L113.12 86.7797V104.093H109.914V81.7567Z" fill="#060913"/>
<path d="M59.0167 73.2497C59.0167 71.4543 60.3228 70.0009 62.1038 70.0009C63.0933 70.0009 63.9244 70.4283 64.4983 71.1123L63.8057 71.6894C63.3901 71.1978 62.7964 70.8986 62.084 70.8986C60.8373 70.8986 59.8875 71.9032 59.8875 73.2284C59.8875 74.5536 60.8373 75.5582 62.084 75.5582C62.7371 75.5582 63.3901 75.2376 63.8255 74.6818V73.207H64.716V75.0024C64.1223 75.8574 63.1724 76.4773 62.084 76.4773C60.3228 76.4773 58.9969 75.0452 58.9969 73.2497H59.0167Z" fill="#060913"/>
<path d="M69.7424 76.3704L66.9719 73.6132V76.3704H66.0814V70.1292H68.7925C70.059 70.1292 70.8902 70.7917 70.8902 72.0101C70.8902 73.2284 70.1184 73.8483 68.8519 73.8483H68.377L71.0089 76.3704H69.7226H69.7424ZM66.9719 73.0147H68.8519C69.5247 73.0147 69.9799 72.6941 69.9799 72.0101C69.9799 71.3261 69.5247 71.0055 68.8519 71.0055H66.9719V73.036V73.0147Z" fill="#060913"/>
<path d="M71.7805 73.2499C71.7805 71.4544 73.1064 70.0223 74.8676 70.0223C76.6288 70.0223 77.9745 71.4544 77.9745 73.2499C77.9745 75.0453 76.6486 76.4774 74.8676 76.4774C73.0866 76.4774 71.7805 75.0453 71.7805 73.2499ZM77.084 73.2499C77.084 71.9247 76.1143 70.9201 74.8676 70.9201C73.6209 70.9201 72.671 71.9247 72.671 73.2499C72.671 74.5751 73.6407 75.5797 74.8676 75.5797C76.0945 75.5797 77.084 74.5751 77.084 73.2499Z" fill="#060913"/>
<path d="M79.1223 73.3566V70.1077H80.0128V73.3566C80.0128 74.7459 80.5669 75.5367 81.7938 75.5367C83.0208 75.5367 83.5749 74.7673 83.5749 73.3566V70.1077H84.4851V73.3566C84.4851 75.2589 83.5749 76.4131 81.8136 76.4131C80.0524 76.4131 79.1421 75.2589 79.1421 73.3352L79.1223 73.3566Z" fill="#060913"/>
<path d="M85.9495 70.1292H88.5815C89.848 70.1292 90.6791 70.8986 90.6791 72.1383C90.6791 73.378 89.8876 74.1475 88.6211 74.1475H86.8202V76.3704H85.9297V70.1292H85.9495ZM88.6013 73.2925C89.3335 73.2925 89.7886 72.8651 89.7886 72.1597C89.7886 71.4544 89.3335 71.0269 88.6013 71.0269H86.84V73.3139H88.6013V73.2925Z" fill="#060913"/>
<path d="M91.8863 70.1292H96.3982V71.0055H92.757V72.6086H95.389V73.4635H92.757V75.4941H96.3982V76.3704H91.8665V70.1292H91.8863Z" fill="#060913"/>
<path d="M25.593 115.549H26.3648V120.914H25.593V115.549Z" fill="#060913"/>
<path d="M28.0072 115.549H28.779L31.8463 119.717V115.549H32.6181V120.914H31.8463L28.779 116.746V120.914H28.0072V115.549Z" fill="#060913"/>
<path d="M35.4479 116.298H33.7064V115.549H37.9413V116.298H36.1998V120.914H35.4479V116.298Z" fill="#060913"/>
<path d="M39.0297 115.549H42.9281V116.297H39.8014V117.665H42.0772V118.392H39.8014V120.145H42.9281V120.893H39.0297V115.528V115.549Z" fill="#060913"/>
<path d="M44.2738 115.549H45.0456V120.166H47.8358V120.914H44.2738V115.549Z" fill="#060913"/>
<path d="M48.9639 115.549H49.7356V120.166H52.5259V120.914H48.9639V115.549Z" fill="#060913"/>
<path d="M53.6538 115.549H57.5523V116.297H54.4256V117.665H56.7013V118.392H54.4256V120.145H57.5523V120.893H53.6538V115.528V115.549Z" fill="#060913"/>
<path d="M58.2844 118.221C58.2844 116.661 59.4321 115.443 60.9361 115.443C61.7475 115.443 62.4599 115.785 62.9744 116.404L62.3807 116.896C62.0047 116.447 61.4902 116.212 60.9163 116.212C59.8675 116.212 59.0364 117.067 59.0364 118.2C59.0364 119.333 59.8675 120.209 60.9163 120.209C61.4902 120.209 62.0047 119.974 62.4005 119.525L62.9942 120.017C62.4599 120.637 61.7475 121 60.9163 121C59.4124 121 58.2646 119.782 58.2646 118.221H58.2844Z" fill="#060913"/>
<path d="M65.4283 116.298H63.6869V115.549H67.9217V116.298H66.1803V120.914H65.4283V116.298Z" fill="#060913"/>
<path d="M68.931 118.328V115.528H69.7028V118.328C69.7028 119.525 70.1778 120.209 71.2266 120.209C72.2754 120.209 72.7503 119.546 72.7503 118.349V115.549H73.5221V118.349C73.5221 119.995 72.7305 121 71.2068 121C69.683 121 68.9113 120.017 68.9113 118.349L68.931 118.328Z" fill="#060913"/>
<path d="M76.9059 115.336L79.6961 120.936H78.865L78.2911 119.76H75.5009L74.927 120.936H74.076L76.9059 115.336ZM77.9547 119.055L76.9059 116.896L75.8373 119.055H77.9547Z" fill="#060913"/>
<path d="M80.5868 115.549H81.3586V120.166H84.1488V120.914H80.5868V115.549Z" fill="#060913"/>
<path d="M87.4931 115.549H89.7688C90.8572 115.549 91.5696 116.212 91.5696 117.281C91.5696 118.349 90.8968 119.012 89.8084 119.012H88.2649V120.936H87.4931V115.571V115.549ZM89.7688 118.264C90.4021 118.264 90.7781 117.901 90.7781 117.281C90.7781 116.661 90.3823 116.298 89.7688 116.298H88.2649V118.264H89.7688Z" fill="#060913"/>
<path d="M96.0222 120.914L93.6475 118.542V120.914H92.8757V115.549H95.2108C96.2992 115.549 97.0314 116.127 97.0314 117.174C97.0314 118.221 96.3586 118.756 95.2702 118.756H94.8546L97.1304 120.914H96.0222ZM93.6475 118.029H95.2702C95.8441 118.029 96.2399 117.751 96.2399 117.153C96.2399 116.554 95.8441 116.276 95.2702 116.276H93.6475V118.007V118.029Z" fill="#060913"/>
<path d="M98.0407 118.221C98.0407 116.661 99.1885 115.443 100.692 115.443C102.196 115.443 103.364 116.682 103.364 118.221C103.364 119.76 102.216 121 100.692 121C99.1687 121 98.0407 119.76 98.0407 118.221ZM102.592 118.221C102.592 117.067 101.761 116.212 100.692 116.212C99.6238 116.212 98.7927 117.088 98.7927 118.221C98.7927 119.354 99.6238 120.23 100.692 120.23C101.761 120.23 102.592 119.354 102.592 118.221Z" fill="#060913"/>
<path d="M104.729 115.549H107.005C108.094 115.549 108.806 116.212 108.806 117.281C108.806 118.349 108.133 119.012 107.045 119.012H105.501V120.936H104.729V115.571V115.549ZM107.005 118.264C107.638 118.264 108.014 117.901 108.014 117.281C108.014 116.661 107.619 116.298 107.005 116.298H105.501V118.264H107.005Z" fill="#060913"/>
<path d="M110.112 115.549H114.01V116.297H110.884V117.665H113.16V118.392H110.884V120.145H114.01V120.893H110.112V115.528V115.549Z" fill="#060913"/>
<path d="M118.502 120.914L116.128 118.542V120.914H115.356V115.549H117.691C118.78 115.549 119.512 116.127 119.512 117.174C119.512 118.221 118.839 118.756 117.751 118.756H117.335L119.611 120.914H118.502ZM116.128 118.029H117.751C118.324 118.029 118.72 117.751 118.72 117.153C118.72 116.554 118.324 116.276 117.751 116.276H116.128V118.007V118.029Z" fill="#060913"/>
<path d="M122.065 116.298H120.323V115.549H124.558V116.298H122.817V120.914H122.065V116.298Z" fill="#060913"/>
<path d="M127.071 118.606L124.894 115.549H125.805L127.447 117.836L129.09 115.549H130L127.823 118.606V120.914H127.051V118.606H127.071Z" fill="#060913"/>
<path d="M24.7421 110.462H129.426" stroke="#060913" stroke-width="0.09" stroke-miterlimit="10"/>
<path d="M18.0335 62.7549C39.6629 79.5124 53.9902 64.8496 55.415 47.4082C57.8293 23.298 42.1959 2.94965 39.5838 0C39.5838 0 60.5602 16.5865 60.58 46.3395C60.8372 80.2605 28.1853 81.6926 18.0335 62.7763V62.7549Z" fill="#060913"/>
<path d="M43.1854 48.9472C22.209 31.2279 7.32764 45.2281 5.24979 62.6054C1.90544 86.5874 16.7472 107.62 19.2407 110.698C19.2407 110.698 -1.0827 93.192 0.0452742 63.4604C1.09409 29.5607 33.7856 29.5821 43.1854 48.9472Z" fill="#060913"/>
</g>
</svg>
