<svg width="29" height="28" viewBox="0 0 29 28" fill="none" xmlns="http://www.w3.org/2000/svg">
<path d="M14.4708 26.7222C21.9105 26.7222 27.9416 20.4942 27.9416 16.2449C27.9416 11.9956 21.9105 5.76758 14.4708 5.76758C7.03118 5.76758 1 12.0001 1 16.2449C1 20.4897 7.03118 26.7222 14.4708 26.7222Z" stroke="#3F424A" stroke-width="2" stroke-linejoin="round"/>
<path d="M14.4707 20.7354C15.6616 20.7354 16.8038 20.2623 17.6458 19.4203C18.4879 18.5782 18.961 17.436 18.961 16.2452C18.961 15.0543 18.4879 13.9121 17.6458 13.0701C16.8038 12.228 15.6616 11.7549 14.4707 11.7549C13.2798 11.7549 12.1377 12.228 11.2956 13.0701C10.4535 13.9121 9.98047 15.0543 9.98047 16.2452C9.98047 17.436 10.4535 18.5782 11.2956 19.4203C12.1377 20.2623 13.2798 20.7354 14.4707 20.7354Z" stroke="#3F424A" stroke-width="2" stroke-linejoin="round"/>
<path d="M6.43652 4.46993L8.37782 7.17906M23.171 4.80221L21.229 7.51134M14.4779 1.27734V5.76762" stroke="#3F424A" stroke-width="2" stroke-linecap="round"/>
</svg>
