<svg width="17" height="20" viewBox="0 0 17 20" fill="none" xmlns="http://www.w3.org/2000/svg">
<path d="M15.8271 2.07524L4.29574 0.021625C3.92582 -0.0440275 3.54518 0.0411831 3.23754 0.258518C2.9299 0.475854 2.72044 0.807518 2.65523 1.18058L0.0213832 16.2702C-0.0108313 16.455 -0.00661106 16.6445 0.0338027 16.8277C0.0742165 17.0109 0.150031 17.1843 0.256915 17.3379C0.363799 17.4916 0.499657 17.6225 0.656725 17.7232C0.813792 17.8238 0.988991 17.8923 1.17231 17.9247L12.7037 19.9783C12.8871 20.0109 13.075 20.0067 13.2568 19.966C13.4385 19.9253 13.6105 19.8489 13.763 19.7411C13.9154 19.6333 14.0453 19.4962 14.1452 19.3378C14.2451 19.1793 14.313 19.0025 14.3451 18.8175L16.9789 3.72795C17.0435 3.35475 16.9584 2.97099 16.7424 2.66105C16.5264 2.35112 16.1972 2.1404 15.8271 2.07524ZM12.948 18.5711L1.41577 16.5175L4.04962 1.4279L15.581 3.48152L12.948 18.5711ZM5.07572 3.78688C5.10852 3.60042 5.2134 3.43474 5.3673 3.32624C5.5212 3.21774 5.71151 3.17532 5.89641 3.2083L13.2446 4.51636C13.4193 4.54721 13.5761 4.643 13.6841 4.7848C13.7921 4.9266 13.8434 5.1041 13.828 5.28223C13.8125 5.46036 13.7314 5.62616 13.6006 5.74688C13.4698 5.8676 13.2989 5.93446 13.1216 5.93425C13.08 5.93417 13.0386 5.93059 12.9976 5.92353L5.64941 4.61458C5.46453 4.58149 5.30024 4.47571 5.19266 4.32051C5.08508 4.1653 5.04302 3.97336 5.07572 3.78688ZM4.58524 6.60122C4.60139 6.50882 4.63542 6.42053 4.68541 6.34139C4.73539 6.26225 4.80035 6.19383 4.87656 6.14001C4.95277 6.0862 5.03875 6.04806 5.12958 6.02777C5.22042 6.00747 5.31433 6.00543 5.40594 6.02175L12.7542 7.3307C12.93 7.36037 13.0883 7.45584 13.1975 7.59806C13.3066 7.74028 13.3585 7.91877 13.3429 8.09791C13.3272 8.27704 13.2451 8.44363 13.113 8.56442C12.9809 8.6852 12.8085 8.75129 12.6302 8.74948C12.5883 8.74954 12.5465 8.74565 12.5054 8.73787L5.15717 7.42981C4.97243 7.39632 4.80843 7.29024 4.70119 7.13488C4.59395 6.97951 4.55225 6.78758 4.58524 6.60122ZM4.09389 9.41467C4.12731 9.22871 4.23245 9.06368 4.38627 8.95574C4.5401 8.8478 4.73007 8.80574 4.91459 8.83877L8.58692 9.48968C8.76149 9.52052 8.91824 9.61624 9.02625 9.75794C9.13425 9.89965 9.18565 10.077 9.17031 10.2551C9.15497 10.4332 9.07399 10.599 8.94337 10.7197C8.81275 10.8405 8.64197 10.9076 8.46475 10.9076C8.42321 10.9075 8.38174 10.9039 8.3408 10.8968L4.66669 10.2424C4.48198 10.2091 4.31791 10.1032 4.21051 9.94803C4.10312 9.79284 4.06117 9.60102 4.09389 9.41467Z" fill="#B7B7B8"/>
</svg>
