<svg width="19" height="20" viewBox="0 0 19 20" fill="none" xmlns="http://www.w3.org/2000/svg">
<path d="M8.41225 0.420128C8.70623 0.150328 9.09544 0 9.5 0C9.90456 0 10.2938 0.150328 10.5878 0.420128L18.2574 7.45806C18.7324 7.89303 19 8.50015 19 9.13339V17.6945C19 18.306 18.7498 18.8924 18.3044 19.3247C17.859 19.7571 17.2549 20 16.625 20H13.4583C13.1463 20 12.8373 19.9403 12.5491 19.8244C12.2608 19.7084 11.999 19.5384 11.7784 19.3242C11.5578 19.1099 11.3829 18.8556 11.2637 18.5757C11.1444 18.2958 11.0831 17.9959 11.0833 17.693V13.8505C11.0833 13.6466 10.9999 13.4512 10.8515 13.307C10.703 13.1629 10.5016 13.082 10.2917 13.082H8.70833C8.49837 13.082 8.29701 13.1629 8.14854 13.307C8.00007 13.4512 7.91667 13.6466 7.91667 13.8505V17.693C7.91667 18.3044 7.66644 18.8908 7.22105 19.3232C6.77565 19.7556 6.17156 19.9985 5.54167 19.9985H2.375C1.74511 19.9985 1.14102 19.7556 0.695621 19.3232C0.250223 18.8908 0 18.3044 0 17.693V9.13186C0 8.49861 0.269167 7.8915 0.744167 7.45652L8.41225 0.420128ZM9.5 1.53599L1.83033 8.57546C1.75247 8.64712 1.69043 8.73339 1.64797 8.82903C1.60551 8.92468 1.58352 9.02771 1.58333 9.13186V17.693C1.58333 17.8968 1.66674 18.0923 1.81521 18.2364C1.96367 18.3805 2.16504 18.4615 2.375 18.4615H5.54167C5.75163 18.4615 5.95299 18.3805 6.10146 18.2364C6.24993 18.0923 6.33333 17.8968 6.33333 17.693V13.8505C6.33333 13.239 6.58356 12.6526 7.02895 12.2202C7.47435 11.7879 8.07844 11.545 8.70833 11.545H10.2917C10.9216 11.545 11.5256 11.7879 11.971 12.2202C12.4164 12.6526 12.6667 13.239 12.6667 13.8505V17.693C12.6667 17.8968 12.7501 18.0923 12.8985 18.2364C13.047 18.3805 13.2484 18.4615 13.4583 18.4615H16.625C16.835 18.4615 17.0363 18.3805 17.1848 18.2364C17.3333 18.0923 17.4167 17.8968 17.4167 17.693V9.13186C17.4167 9.02745 17.3948 8.92413 17.3523 8.8282C17.3099 8.73228 17.2477 8.64576 17.1697 8.57392L9.5 1.53599Z" fill="#B7B7B8"/>
</svg>
