<svg width="20" height="20" viewBox="0 0 20 20" fill="none" xmlns="http://www.w3.org/2000/svg">
<path d="M6.01281 0.990428C3.81032 0.819215 1.88605 2.46589 1.71483 4.66839L0.990427 13.9872C0.819215 16.1897 2.46589 18.114 4.66839 18.2852L13.9872 19.0096C16.1897 19.1808 18.114 17.5341 18.2852 15.3316L19.0096 6.01281C19.1808 3.81032 17.5341 1.88605 15.3316 1.71483L6.01281 0.990428ZM6.00188 4.41017C6.6863 4.47113 7.32435 4.99617 7.29011 5.81653C7.2482 6.54513 6.57118 7.04994 5.78208 7.00552L5.76309 7.00405C5.08549 6.9435 4.46084 6.40758 4.4928 5.59908C4.55839 4.88047 5.20676 4.36553 6.00188 4.41017ZM13.0837 8.41845C13.8365 8.48166 14.5299 8.76034 15.0675 9.40102C15.6218 10.125 15.7441 11.0733 15.692 12.0237L15.4532 15.0955C15.3998 15.7823 14.7998 16.2957 14.1131 16.2423V16.2423C13.4263 16.1889 12.9129 15.5889 12.9662 14.9022L13.1822 12.1239C13.2353 11.3696 13.0483 10.4333 12.053 10.3253C11.4678 10.286 11.029 10.5938 10.7025 11.14C10.6113 11.3168 10.5838 11.5262 10.5639 11.7356L10.3333 14.7009C10.2801 15.3858 9.68171 15.8979 8.9968 15.8446V15.8446C8.3097 15.7912 7.79706 15.1893 7.85377 14.5025C7.99301 12.816 8.13184 11.1295 8.25927 9.44203V9.44203C8.31017 8.78732 8.88721 8.27701 9.54191 8.32791L10.5663 8.40754C10.707 8.41847 10.8122 8.54138 10.8012 8.68205V8.68205C10.7819 8.93081 11.1096 9.06889 11.3046 8.91318C11.3851 8.84887 11.4701 8.78827 11.5609 8.73228C12.0103 8.4615 12.5309 8.38477 13.0837 8.41845ZM4.36239 9.17573C4.41575 8.48927 5.0155 7.97604 5.70196 8.0294V8.0294C6.38842 8.08277 6.90165 8.68251 6.84829 9.36898L6.45745 14.3967C6.40409 15.0832 5.80434 15.5964 5.11788 15.5431V15.5431C4.43141 15.4897 3.91818 14.89 3.97155 14.2035L4.36239 9.17573Z" stroke="#B7B7B8"/>
</svg>
