<svg width="22" height="22" viewBox="0 0 22 22" fill="none" xmlns="http://www.w3.org/2000/svg">
<path d="M11 1C5.477 1 1 5.477 1 11C1 16.523 5.477 21 11 21C16.523 21 21 16.523 21 11C21 5.477 16.523 1 11 1Z" stroke="#B7B7B8" stroke-linecap="round" stroke-linejoin="round"/>
<path d="M3.27098 17.3462C3.27098 17.3462 5.49998 14.5002 11 14.5002C16.5 14.5002 18.73 17.3462 18.73 17.3462M11 11.0002C11.7956 11.0002 12.5587 10.6841 13.1213 10.1215C13.6839 9.55889 14 8.79583 14 8.00018C14 7.20453 13.6839 6.44147 13.1213 5.87886C12.5587 5.31625 11.7956 5.00018 11 5.00018C10.2043 5.00018 9.44127 5.31625 8.87866 5.87886C8.31605 6.44147 7.99998 7.20453 7.99998 8.00018C7.99998 8.79583 8.31605 9.55889 8.87866 10.1215C9.44127 10.6841 10.2043 11.0002 11 11.0002Z" stroke="#B7B7B8" stroke-linecap="round" stroke-linejoin="round"/>
</svg>
