<svg width="20" height="18" viewBox="0 0 20 18" fill="none" xmlns="http://www.w3.org/2000/svg">
<path d="M19.4546 0C17.564 0 15.4452 1.04786 13.1556 3.11326C11.5122 4.59734 10.0924 6.32755 9.11984 7.62245C8.32775 7.35635 7.48445 7.28409 6.65932 7.41161C5.83419 7.53913 5.05082 7.86279 4.37368 8.35595C3.69654 8.84912 3.14499 9.49769 2.7644 10.2483C2.38381 10.9989 2.18507 11.8301 2.18453 12.6735C2.18453 15.6187 0.327543 16.9338 0.243919 16.9898C0.146067 17.0554 0.0717757 17.1511 0.0320913 17.2628C-0.00759308 17.3744 -0.0105509 17.496 0.0236576 17.6095C0.0578661 17.723 0.127414 17.8223 0.22196 17.8927C0.316506 17.963 0.431 18.0007 0.548418 18H7.45646C8.29118 17.9994 9.11385 17.7986 9.85676 17.4141C10.5997 17.0296 11.2416 16.4723 11.7297 15.7882C12.2178 15.104 12.5382 14.3125 12.6644 13.4789C12.7906 12.6452 12.7191 11.7931 12.4557 10.9929C13.7355 10.013 15.448 8.57571 16.9168 6.9153C18.9629 4.60194 20 2.46122 20 0.55102C20 0.404881 19.9425 0.264726 19.8403 0.16139C19.738 0.0580537 19.5993 0 19.4546 0ZM7.45646 16.898H1.88003C2.54084 16.0576 3.27528 14.6737 3.27528 12.6735C3.27528 11.8379 3.5205 11.0212 3.97993 10.3265C4.43937 9.63175 5.09238 9.09029 5.85639 8.77055C6.6204 8.4508 7.46109 8.36715 8.27216 8.53015C9.08323 8.69315 9.82825 9.09549 10.413 9.6863C10.9977 10.2771 11.396 11.0298 11.5573 11.8493C11.7186 12.6688 11.6358 13.5182 11.3194 14.2901C11.0029 15.062 10.467 15.7218 9.7794 16.186C9.0918 16.6502 8.28342 16.898 7.45646 16.898ZM10.137 8.08989C10.4642 7.66102 10.8532 7.17153 11.2922 6.64898C12.1448 7.2038 12.8701 7.93653 13.4192 8.79796C12.9038 9.24153 12.4193 9.63459 11.993 9.9652C11.5395 9.19296 10.9013 8.54815 10.137 8.08989ZM14.2454 8.06234C13.6543 7.17482 12.8987 6.41138 12.0203 5.81418C13.9146 3.71571 16.4551 1.46939 18.8693 1.14245C18.5457 3.58163 16.3224 6.15306 14.2454 8.06234Z" fill="#B7B7B8"/>
</svg>
