<svg width="95" height="95" viewBox="0 0 95 95" fill="none" xmlns="http://www.w3.org/2000/svg">
<path d="M46.5979 0C60.9379 0.39 72.2879 5.08 81.4479 14.64C88.5879 22.1 92.7479 31.05 93.9879 41.33C94.3979 44.74 94.0779 45.01 90.7079 44.21C84.7879 42.8 78.8679 41.36 72.9379 39.97C71.0079 39.52 69.4279 38.54 68.0379 37.15C62.7279 31.81 57.3879 26.49 52.0679 21.17C48.8879 18 45.7279 18 42.5379 21.18C35.4379 28.24 28.3479 35.31 21.2579 42.38C18.2479 45.38 18.2479 48.74 21.2779 51.76C28.4279 58.9 35.5779 66.02 42.7379 73.15C45.6879 76.08 48.9379 76.07 51.8779 73.15C57.4879 67.56 63.0479 61.91 68.7479 56.41C69.7879 55.4 71.2879 54.66 72.6979 54.29C79.0979 52.64 85.5379 51.16 91.9679 49.63C93.5479 49.25 94.3679 49.96 94.1779 51.51C93.3779 58.37 91.5079 64.89 87.9379 70.85C82.0579 80.67 73.8079 87.67 62.9679 91.38C49.5279 95.97 36.3879 94.97 24.0279 87.93C11.4579 80.77 3.64787 69.9 1.01787 55.63C-1.60213 41.38 1.74787 28.43 10.9079 17.23C18.5879 7.83 28.6279 2.25 40.7179 0.57C43.0479 0.21 45.3979 0.1 46.5979 0Z" fill="#BE4FF2"/>
<path d="M46.8334 32.593L32.8071 47.3921L47.6062 61.4184L61.6325 46.6193L46.8334 32.593Z" fill="#BE4FF2"/>
</svg>
