<svg width="95" height="95" viewBox="0 0 95 95" fill="none" xmlns="http://www.w3.org/2000/svg">
<path d="M46.7517 0C61.0917 0.39 72.4417 5.08 81.6017 14.64C88.7417 22.1 92.9017 31.05 94.1417 41.33C94.5517 44.74 94.2317 45.01 90.8617 44.21C84.9417 42.8 79.0217 41.36 73.0917 39.97C71.1617 39.52 69.5817 38.54 68.1917 37.15C62.8817 31.81 57.5417 26.49 52.2217 21.17C49.0417 18 45.8817 18 42.6917 21.18C35.5917 28.24 28.5017 35.31 21.4117 42.38C18.4017 45.38 18.4017 48.74 21.4317 51.76C28.5817 58.9 35.7317 66.02 42.8917 73.15C45.8417 76.08 49.0917 76.07 52.0317 73.15C57.6417 67.56 63.2017 61.91 68.9017 56.41C69.9417 55.4 71.4417 54.66 72.8517 54.29C79.2517 52.64 85.6917 51.16 92.1217 49.63C93.7017 49.25 94.5217 49.96 94.3317 51.51C93.5317 58.37 91.6617 64.89 88.0917 70.85C82.2117 80.67 73.9617 87.67 63.1217 91.38C49.6817 95.97 36.5417 94.97 24.1817 87.93C11.6117 80.77 3.80168 69.9 1.17168 55.63C-1.44832 41.38 1.90168 28.43 11.0617 17.23C18.7417 7.83 28.7817 2.25 40.8717 0.57C43.2017 0.21 45.5517 0.1 46.7517 0Z" fill="#48E7C6"/>
<path d="M46.9872 32.593L32.9609 47.3921L47.76 61.4184L61.7863 46.6193L46.9872 32.593Z" fill="#48E7C6"/>
</svg>
