<svg width="95" height="95" viewBox="0 0 95 95" fill="none" xmlns="http://www.w3.org/2000/svg">
<path d="M46.6491 0C60.9891 0.39 72.3391 5.08 81.4991 14.64C88.6391 22.1 92.7991 31.05 94.0391 41.33C94.4491 44.74 94.1291 45.01 90.7591 44.21C84.8391 42.8 78.9191 41.36 72.9891 39.97C71.0591 39.52 69.4791 38.54 68.0891 37.15C62.7791 31.81 57.4391 26.49 52.1191 21.17C48.9391 18 45.7791 18 42.5891 21.18C35.4891 28.24 28.3991 35.31 21.3091 42.38C18.2991 45.38 18.2991 48.74 21.3291 51.76C28.4791 58.9 35.6291 66.02 42.7891 73.15C45.7391 76.08 48.9891 76.07 51.9291 73.15C57.5391 67.56 63.0991 61.91 68.7991 56.41C69.8391 55.4 71.3391 54.66 72.7491 54.29C79.1491 52.64 85.5891 51.16 92.0191 49.63C93.5991 49.25 94.4191 49.96 94.2291 51.51C93.4291 58.37 91.5591 64.89 87.9891 70.85C82.1091 80.67 73.8591 87.67 63.0191 91.38C49.5791 95.97 36.4391 94.97 24.0791 87.93C11.5091 80.77 3.69914 69.9 1.06914 55.63C-1.55086 41.38 1.79914 28.43 10.9591 17.23C18.6391 7.83 28.6791 2.25 40.7691 0.57C43.0991 0.21 45.4491 0.1 46.6491 0Z" fill="#FFC622"/>
<path d="M46.8847 32.593L32.8584 47.3921L47.6575 61.4184L61.6837 46.6193L46.8847 32.593Z" fill="#FFC622"/>
</svg>
