<svg width="95" height="95" viewBox="0 0 95 95" fill="none" xmlns="http://www.w3.org/2000/svg">
<path d="M46.7004 0C61.0404 0.39 72.3904 5.08 81.5504 14.64C88.6904 22.1 92.8504 31.05 94.0904 41.33C94.5004 44.74 94.1804 45.01 90.8104 44.21C84.8904 42.8 78.9704 41.36 73.0404 39.97C71.1104 39.52 69.5304 38.54 68.1404 37.15C62.8304 31.81 57.4904 26.49 52.1704 21.17C48.9904 18 45.8304 18 42.6404 21.18C35.5404 28.24 28.4504 35.31 21.3604 42.38C18.3504 45.38 18.3504 48.74 21.3804 51.76C28.5304 58.9 35.6804 66.02 42.8404 73.15C45.7904 76.08 49.0404 76.07 51.9804 73.15C57.5904 67.56 63.1504 61.91 68.8504 56.41C69.8904 55.4 71.3904 54.66 72.8004 54.29C79.2004 52.64 85.6404 51.16 92.0704 49.63C93.6504 49.25 94.4704 49.96 94.2804 51.51C93.4804 58.37 91.6104 64.89 88.0404 70.85C82.1604 80.67 73.9104 87.67 63.0704 91.38C49.6304 95.97 36.4904 94.97 24.1304 87.93C11.5604 80.77 3.75041 69.9 1.12041 55.63C-1.49959 41.38 1.85041 28.43 11.0104 17.23C18.6904 7.83 28.7304 2.25 40.8204 0.57C43.1504 0.21 45.5004 0.1 46.7004 0Z" fill="#F13535"/>
<path d="M46.9359 32.593L32.9097 47.3921L47.7087 61.4184L61.735 46.6193L46.9359 32.593Z" fill="#F13535"/>
</svg>
