<svg width="95" height="95" viewBox="0 0 95 95" fill="none" xmlns="http://www.w3.org/2000/svg">
<path d="M46.4441 0C60.7841 0.39 72.1341 5.08 81.2941 14.64C88.4341 22.1 92.5941 31.05 93.8341 41.33C94.2441 44.74 93.9241 45.01 90.5541 44.21C84.6341 42.8 78.7141 41.36 72.7841 39.97C70.8541 39.52 69.2741 38.54 67.8841 37.15C62.5741 31.81 57.2341 26.49 51.9141 21.17C48.7341 18 45.5741 18 42.3841 21.18C35.2841 28.24 28.1941 35.31 21.1041 42.38C18.0941 45.38 18.0941 48.74 21.1241 51.76C28.2741 58.9 35.4241 66.02 42.5841 73.15C45.5341 76.08 48.7841 76.07 51.7241 73.15C57.3341 67.56 62.8941 61.91 68.5941 56.41C69.6341 55.4 71.1341 54.66 72.5441 54.29C78.9441 52.64 85.3841 51.16 91.8141 49.63C93.3941 49.25 94.2141 49.96 94.0241 51.51C93.2241 58.37 91.3541 64.89 87.7841 70.85C81.9041 80.67 73.6541 87.67 62.8141 91.38C49.3741 95.97 36.2341 94.97 23.8741 87.93C11.3041 80.77 3.49406 69.9 0.86406 55.63C-1.75594 41.38 1.59406 28.43 10.7541 17.23C18.4341 7.83 28.4741 2.25 40.5641 0.57C42.8941 0.21 45.2441 0.1 46.4441 0Z" fill="#F2F6FA"/>
<path d="M46.6796 32.593L32.6533 47.3921L47.4524 61.4184L61.4787 46.6193L46.6796 32.593Z" fill="#F2F6FA"/>
</svg>
