<svg width="95" height="95" viewBox="0 0 95 95" fill="none" xmlns="http://www.w3.org/2000/svg">
<path d="M46.5466 0C60.8866 0.39 72.2366 5.08 81.3966 14.64C88.5366 22.1 92.6966 31.05 93.9366 41.33C94.3466 44.74 94.0266 45.01 90.6566 44.21C84.7366 42.8 78.8166 41.36 72.8866 39.97C70.9566 39.52 69.3766 38.54 67.9866 37.15C62.6766 31.81 57.3366 26.49 52.0166 21.17C48.8366 18 45.6766 18 42.4866 21.18C35.3866 28.24 28.2966 35.31 21.2066 42.38C18.1966 45.38 18.1966 48.74 21.2266 51.76C28.3766 58.9 35.5266 66.02 42.6866 73.15C45.6366 76.08 48.8866 76.07 51.8266 73.15C57.4366 67.56 62.9966 61.91 68.6966 56.41C69.7366 55.4 71.2366 54.66 72.6466 54.29C79.0466 52.64 85.4866 51.16 91.9166 49.63C93.4966 49.25 94.3166 49.96 94.1266 51.51C93.3266 58.37 91.4566 64.89 87.8866 70.85C82.0066 80.67 73.7566 87.67 62.9166 91.38C49.4766 95.97 36.3366 94.97 23.9766 87.93C11.4066 80.77 3.5966 69.9 0.966599 55.63C-1.6534 41.38 1.6966 28.43 10.8566 17.23C18.5366 7.83 28.5766 2.25 40.6666 0.57C42.9966 0.21 45.3466 0.1 46.5466 0Z" fill="#3043FE"/>
<path d="M46.7821 32.593L32.7559 47.3921L47.5549 61.4184L61.5812 46.6193L46.7821 32.593Z" fill="#3043FE"/>
</svg>
