<svg width="95" height="95" viewBox="0 0 95 95" fill="none" xmlns="http://www.w3.org/2000/svg">
<path d="M46.4953 0C60.8353 0.39 72.1853 5.08 81.3453 14.64C88.4853 22.1 92.6453 31.05 93.8853 41.33C94.2953 44.74 93.9753 45.01 90.6053 44.21C84.6853 42.8 78.7653 41.36 72.8353 39.97C70.9053 39.52 69.3253 38.54 67.9353 37.15C62.6253 31.81 57.2853 26.49 51.9653 21.17C48.7853 18 45.6253 18 42.4353 21.18C35.3353 28.24 28.2453 35.31 21.1553 42.38C18.1453 45.38 18.1453 48.74 21.1753 51.76C28.3253 58.9 35.4753 66.02 42.6353 73.15C45.5853 76.08 48.8353 76.07 51.7753 73.15C57.3853 67.56 62.9453 61.91 68.6453 56.41C69.6853 55.4 71.1853 54.66 72.5953 54.29C78.9953 52.64 85.4353 51.16 91.8653 49.63C93.4453 49.25 94.2653 49.96 94.0753 51.51C93.2753 58.37 91.4053 64.89 87.8353 70.85C81.9553 80.67 73.7053 87.67 62.8653 91.38C49.4253 95.97 36.2853 94.97 23.9253 87.93C11.3553 80.77 3.54533 69.9 0.915329 55.63C-1.70467 41.38 1.64533 28.43 10.8053 17.23C18.4853 7.83 28.5253 2.25 40.6153 0.57C42.9453 0.21 45.2953 0.1 46.4953 0Z" fill="#060913"/>
<path d="M46.7309 32.593L32.7046 47.3921L47.5037 61.4184L61.5299 46.6193L46.7309 32.593Z" fill="#060913"/>
</svg>
