<svg width="40" height="40" viewBox="0 0 40 40" fill="none" xmlns="http://www.w3.org/2000/svg">
<path d="M20.0002 3.3335C10.7952 3.3335 3.3335 10.7952 3.3335 20.0002C3.3335 29.2052 10.7952 36.6668 20.0002 36.6668C29.2052 36.6668 36.6668 29.2052 36.6668 20.0002C36.6668 10.7952 29.2052 3.3335 20.0002 3.3335Z" stroke="#F2F6FA" stroke-width="2" stroke-linecap="round" stroke-linejoin="round"/>
<path d="M7.11865 30.5767C7.11865 30.5767 10.8337 25.8333 20.0003 25.8333C29.167 25.8333 32.8837 30.5767 32.8837 30.5767M20.0003 20C21.3264 20 22.5982 19.4732 23.5359 18.5355C24.4735 17.5979 25.0003 16.3261 25.0003 15C25.0003 13.6739 24.4735 12.4021 23.5359 11.4645C22.5982 10.5268 21.3264 10 20.0003 10C18.6742 10 17.4025 10.5268 16.4648 11.4645C15.5271 12.4021 15.0003 13.6739 15.0003 15C15.0003 16.3261 15.5271 17.5979 16.4648 18.5355C17.4025 19.4732 18.6742 20 20.0003 20Z" stroke="#F2F6FA" stroke-width="2" stroke-linecap="round" stroke-linejoin="round"/>
</svg>
