<svg width="40" height="40" viewBox="0 0 40 40" fill="none" xmlns="http://www.w3.org/2000/svg">
<path d="M32.9345 6.13257L12.583 2.53882C11.9301 2.42393 11.2583 2.57305 10.7154 2.95337C10.1724 3.3337 9.80273 3.9141 9.68764 4.56694L5.0392 30.9732C4.98235 31.2967 4.9898 31.6282 5.06112 31.9488C5.13245 32.2694 5.26625 32.5729 5.45489 32.8417C5.64353 33.1106 5.8833 33.3397 6.16051 33.5159C6.43771 33.6921 6.74692 33.8119 7.07045 33.8685L27.422 37.4623C27.7456 37.5193 28.0773 37.5121 28.3981 37.4408C28.7189 37.3696 29.0225 37.2359 29.2916 37.0472C29.5606 36.8585 29.7898 36.6187 29.9661 36.3414C30.1424 36.0641 30.2623 35.7547 30.3189 35.431L34.9673 9.02476C35.0812 8.37167 34.931 7.70009 34.5498 7.15772C34.1686 6.61535 33.5876 6.2466 32.9345 6.13257ZM27.8533 34.9998L7.50014 31.406L12.1486 4.99976L32.5001 8.59351L27.8533 34.9998ZM13.9595 9.12788C14.0174 8.80159 14.2025 8.51164 14.4741 8.32178C14.7457 8.13191 15.0816 8.05768 15.408 8.11538L28.3767 10.4044C28.6849 10.4584 28.9617 10.6261 29.1523 10.8742C29.3429 11.1224 29.4335 11.433 29.4063 11.7447C29.379 12.0564 29.2358 12.3466 29.0049 12.5578C28.7741 12.7691 28.4724 12.8861 28.1595 12.8857C28.0862 12.8856 28.013 12.8793 27.9408 12.8669L14.972 10.5763C14.6457 10.5184 14.3558 10.3333 14.1659 10.0617C13.976 9.7901 13.9018 9.45421 13.9595 9.12788ZM13.0939 14.0529C13.1224 13.8912 13.1824 13.7367 13.2707 13.5982C13.3589 13.4597 13.4735 13.34 13.608 13.2458C13.7425 13.1516 13.8943 13.0849 14.0546 13.0494C14.2149 13.0138 14.3806 13.0103 14.5423 13.0388L27.5111 15.3294C27.8215 15.3814 28.1008 15.5484 28.2934 15.7973C28.486 16.0462 28.5777 16.3585 28.5501 16.672C28.5224 16.9855 28.3776 17.277 28.1444 17.4884C27.9113 17.6998 27.607 17.8154 27.2923 17.8123C27.2184 17.8124 27.1447 17.8056 27.072 17.7919L14.1033 15.5029C13.7772 15.4443 13.4878 15.2586 13.2985 14.9868C13.1093 14.7149 13.0357 14.379 13.0939 14.0529ZM12.2267 18.9763C12.2857 18.6509 12.4712 18.3621 12.7427 18.1732C13.0142 17.9843 13.3495 17.9107 13.6751 17.9685L20.1564 19.1076C20.4645 19.1615 20.7411 19.329 20.9317 19.577C21.1224 19.825 21.2131 20.1354 21.186 20.447C21.1589 20.7586 21.016 21.0488 20.7855 21.2601C20.5549 21.4715 20.2535 21.5888 19.9408 21.5888C19.8675 21.5888 19.7943 21.5825 19.722 21.5701L13.2376 20.4248C12.9116 20.3665 12.6221 20.1812 12.4325 19.9097C12.243 19.6381 12.169 19.3024 12.2267 18.9763Z" fill="#F2F6FA"/>
</svg>
