<svg width="40" height="40" viewBox="0 0 40 40" fill="none" xmlns="http://www.w3.org/2000/svg">
<g clip-path="url(#clip0_106_14)">
<path d="M12.0002 16.0002V29.3335M28.0002 29.3335V22.6668C28.0002 21.2523 27.4383 19.8958 26.4381 18.8956C25.4379 17.8954 24.0813 17.3335 22.6668 17.3335C21.2523 17.3335 19.8958 17.8954 18.8956 18.8956C17.8954 19.8958 17.3335 21.2523 17.3335 22.6668V29.3335V16.0002M10.6668 12.0002H13.3335M4.00016 1.3335H36.0002C36.7074 1.3335 37.3857 1.61445 37.8858 2.11454C38.3859 2.61464 38.6668 3.29292 38.6668 4.00016V36.0002C38.6668 36.7074 38.3859 37.3857 37.8858 37.8858C37.3857 38.3859 36.7074 38.6668 36.0002 38.6668H4.00016C3.29292 38.6668 2.61464 38.3859 2.11454 37.8858C1.61445 37.3857 1.3335 36.7074 1.3335 36.0002V4.00016C1.3335 3.29292 1.61445 2.61464 2.11454 2.11454C2.61464 1.61445 3.29292 1.3335 4.00016 1.3335Z" stroke="#F2F6FA" stroke-width="2"/>
</g>
<defs>
<clipPath id="clip0_106_14">
<rect width="40" height="40" fill="#F2F6FA"/>
</clipPath>
</defs>
</svg>
