<svg width="40" height="40" viewBox="0 0 40 40" fill="none" xmlns="http://www.w3.org/2000/svg">
<path fill-rule="evenodd" clip-rule="evenodd" d="M37.375 9.21L21.5925 22.28C21.144 22.6516 20.5799 22.8549 19.9975 22.8549C19.4151 22.8549 18.851 22.6516 18.4025 22.28L2.6275 9.21C2.54286 9.46478 2.49981 9.73153 2.5 10V30C2.5 30.663 2.76339 31.2989 3.23223 31.7678C3.70107 32.2366 4.33696 32.5 5 32.5H35C35.663 32.5 36.2989 32.2366 36.7678 31.7678C37.2366 31.2989 37.5 30.663 37.5 30V10C37.501 9.73166 37.4588 9.46492 37.375 9.21ZM5 5H35C36.3261 5 37.5979 5.52678 38.5355 6.46447C39.4732 7.40215 40 8.67392 40 10V30C40 31.3261 39.4732 32.5979 38.5355 33.5355C37.5979 34.4732 36.3261 35 35 35H5C3.67392 35 2.40215 34.4732 1.46447 33.5355C0.526784 32.5979 0 31.3261 0 30V10C0 8.67392 0.526784 7.40215 1.46447 6.46447C2.40215 5.52678 3.67392 5 5 5ZM4.475 7.5L18.415 19.0075C18.8615 19.3763 19.4221 19.5786 20.0012 19.58C20.5802 19.5813 21.1418 19.3816 21.59 19.015L35.67 7.5H4.475Z" fill="#F2F6FA"/>
</svg>
