<svg width="40" height="40" viewBox="0 0 40 40" fill="none" xmlns="http://www.w3.org/2000/svg">
<path d="M38.9093 2.5C35.128 2.5 30.8905 4.5375 26.3112 8.55357C23.0244 11.4393 20.1848 14.8036 18.2397 17.3214C16.6555 16.804 14.9689 16.6635 13.3186 16.9115C11.6684 17.1594 10.1016 17.7888 8.74737 18.7477C7.39309 19.7066 6.28997 20.9677 5.5288 22.4272C4.76762 23.8868 4.37014 25.503 4.36906 27.1428C4.36906 32.8696 0.655085 35.4268 0.487838 35.5357C0.292134 35.6632 0.143551 35.8494 0.0641826 36.0665C-0.0151862 36.2836 -0.0211018 36.52 0.0473152 36.7407C0.115732 36.9614 0.254828 37.1545 0.443919 37.2913C0.633011 37.4281 0.862 37.5013 1.09684 37.5H14.9129C16.5824 37.4989 18.2277 37.1085 19.7135 36.3608C21.1994 35.6131 22.4832 34.5295 23.4594 33.1992C24.4356 31.8689 25.0763 30.3299 25.3287 28.7089C25.5812 27.0879 25.4381 25.4311 24.9114 23.875C27.471 21.9696 30.8959 19.175 33.8337 15.9464C37.9258 11.4482 40 7.28571 40 3.57143C40 3.28727 39.8851 3.01475 39.6805 2.81381C39.476 2.61288 39.1985 2.5 38.9093 2.5ZM14.9129 35.3571H3.76007C5.08168 33.7232 6.55055 31.0321 6.55055 27.1428C6.55055 25.5182 7.04099 23.9301 7.95986 22.5792C8.87873 21.2284 10.1848 20.1756 11.7128 19.5538C13.2408 18.9321 14.9222 18.7694 16.5443 19.0864C18.1665 19.4033 19.6565 20.1857 20.826 21.3345C21.9955 22.4833 22.7919 23.9469 23.1146 25.5403C23.4373 27.1337 23.2717 28.7854 22.6387 30.2863C22.0058 31.7873 20.934 33.0702 19.5588 33.9728C18.1836 34.8754 16.5668 35.3571 14.9129 35.3571ZM20.2739 18.2303C20.9284 17.3964 21.7064 16.4446 22.5845 15.4286C24.2897 16.5074 25.7401 17.9321 26.8384 19.6071C25.8076 20.4696 24.8387 21.2339 23.9861 21.8768C23.079 20.3752 21.8026 19.1214 20.2739 18.2303ZM28.4908 18.1768C27.3087 16.451 25.7975 14.9666 24.0406 13.8054C27.8291 9.725 32.9102 5.35714 37.7385 4.72143C37.0914 9.46428 32.6448 14.4643 28.4908 18.1768Z" fill="#F2F6FA"/>
</svg>
