<svg width="24" height="24" viewBox="0 0 24 24" fill="none" xmlns="http://www.w3.org/2000/svg">
<path d="M0 5C0 2.23858 2.23858 0 5 0H19C21.7614 0 24 2.23858 24 5V19C24 21.7614 21.7614 24 19 24H5C2.23858 24 0 21.7614 0 19V5Z" fill="#F5DE19"/>
<path d="M16.6757 18.9941C16.8569 19.3631 17.1381 19.6732 17.487 19.8889C17.8359 20.1045 18.2383 20.2169 18.6479 20.2132C19.4748 20.2132 20.0035 19.7979 20.0035 19.2226C20.0035 18.5369 19.4603 18.2915 18.5501 17.8915L18.0509 17.6766C16.6097 17.0602 15.6539 16.2883 15.6539 14.6562C15.6539 13.1529 16.7917 12.0077 18.5766 12.0077C19.1544 11.9659 19.7317 12.0958 20.2364 12.3813C20.7412 12.6668 21.1511 13.0952 21.4151 13.6131L19.8548 14.6151C19.7531 14.3583 19.5761 14.1386 19.3473 13.9851C19.1185 13.8317 18.8487 13.7516 18.5736 13.7556C18.4535 13.7435 18.3323 13.7567 18.2176 13.7943C18.103 13.8319 17.9973 13.893 17.9075 13.9739C17.8176 14.0548 17.7455 14.1535 17.6958 14.2639C17.6461 14.3743 17.6197 14.4939 17.6186 14.6151C17.6186 15.2163 17.9895 15.4601 18.8459 15.8342L19.345 16.0491C21.0412 16.7798 22 17.5242 22 19.1983C22 21.0033 20.5883 21.9924 18.6927 21.9924C17.9541 22.0391 17.2179 21.8705 16.5726 21.5067C15.9272 21.1429 15.4004 20.5995 15.0554 19.9419L16.6757 18.9941ZM9.62484 19.1678C9.93812 19.7263 10.2233 20.1987 10.9091 20.1987C11.5645 20.1987 11.9787 19.9412 11.9787 18.9392V12.122H13.9744V18.9659C13.9744 21.0414 12.7607 21.9863 10.994 21.9863C10.3696 22.0205 9.74936 21.8642 9.21498 21.5378C8.68059 21.2114 8.25704 20.7303 8 20.1576L9.62484 19.1678Z" fill="#3F424A"/>
</svg>
