<svg width="24" height="24" viewBox="0 0 24 24" fill="none" xmlns="http://www.w3.org/2000/svg">
<g clip-path="url(#clip0_528_20)">
<path d="M18.375 0H5.625C2.5184 0 0 2.5184 0 5.625V18.375C0 21.4816 2.5184 24 5.625 24H18.375C21.4816 24 24 21.4816 24 18.375V5.625C24 2.5184 21.4816 0 18.375 0Z" fill="#7377AD"/>
<path d="M4.60856 9.39806H7.27181C8.0535 9.40469 8.61994 9.62994 8.97113 10.0738C9.32225 10.5176 9.43819 11.1238 9.31894 11.8924C9.27256 12.2435 9.16987 12.588 9.01087 12.9259C8.8585 13.2638 8.6465 13.5685 8.37488 13.8401C8.04362 14.1846 7.68919 14.4032 7.31156 14.496C6.93387 14.5887 6.543 14.6351 6.13894 14.6351H4.94644L4.56881 16.5233H3.1875L4.60856 9.39806ZM5.77125 10.5309L5.175 13.5122C5.21475 13.5188 5.2545 13.5221 5.29425 13.5221H5.43338C6.06944 13.5287 6.59944 13.4658 7.02338 13.3333C7.44737 13.1942 7.73225 12.7106 7.878 11.8824C7.99725 11.1868 7.878 10.786 7.52025 10.68C7.16913 10.5741 6.72856 10.5244 6.19856 10.5309C6.11912 10.5376 6.04294 10.5409 5.97 10.5409H5.76131L5.77125 10.5309ZM10.8924 7.5H12.2638L11.8763 9.39806H13.1085C13.7842 9.41138 14.2877 9.5505 14.619 9.81544C14.9569 10.0804 15.0562 10.5839 14.9171 11.3259L14.2513 14.6351H12.8601L13.4961 11.475C13.5622 11.1438 13.5424 10.9086 13.4364 10.7694C13.3305 10.6303 13.1019 10.5608 12.7507 10.5608L11.6477 10.5508L10.8328 14.6351H9.46144L10.8924 7.5ZM16.3898 9.39806H19.053C19.8347 9.40469 20.4011 9.62994 20.7523 10.0738C21.1034 10.5176 21.2194 11.1238 21.1001 11.8924C21.0537 12.2435 20.9511 12.588 20.7921 12.9259C20.6397 13.2638 20.4277 13.5685 20.1561 13.8401C19.8248 14.1846 19.4704 14.4032 19.0928 14.496C18.7151 14.5887 18.3242 14.6351 17.9201 14.6351H16.7276L16.35 16.5233H14.9687L16.3898 9.39806ZM17.5524 10.5309L16.9562 13.5122C16.9959 13.5188 17.0357 13.5221 17.0754 13.5221H17.2146C17.8506 13.5287 18.3806 13.4658 18.8046 13.3333C19.2286 13.1942 19.5134 12.7106 19.6592 11.8824C19.7784 11.1868 19.6592 10.786 19.3014 10.68C18.9503 10.5741 18.5097 10.5244 17.9797 10.5309C17.9002 10.5376 17.8241 10.5409 17.7512 10.5409H17.5425L17.5524 10.5309Z" fill="white"/>
</g>
<defs>
<clipPath id="clip0_528_20">
<rect width="24" height="24" fill="white"/>
</clipPath>
</defs>
</svg>
