<svg width="24" height="24" viewBox="0 0 24 24" fill="none" xmlns="http://www.w3.org/2000/svg">
<g clip-path="url(#clip0_528_31)">
<path d="M18.375 0H5.625C2.5184 0 0 2.5184 0 5.625V18.375C0 21.4816 2.5184 24 5.625 24H18.375C21.4816 24 24 21.4816 24 18.375V5.625C24 2.5184 21.4816 0 18.375 0Z" fill="#2BB1C9"/>
<path d="M12.0001 13.7767C12.9661 13.7767 13.7491 12.9936 13.7491 12.0277C13.7491 11.0617 12.9661 10.2787 12.0001 10.2787C11.0341 10.2787 10.2511 11.0617 10.2511 12.0277C10.2511 12.9936 11.0342 13.7767 12.0001 13.7767Z" fill="white"/>
<path d="M12.0002 8.47153C14.3484 8.47153 16.5299 8.80847 18.1747 9.37481C20.1565 10.057 21.375 11.0912 21.375 12.0277C21.375 13.0035 20.0837 14.1022 17.9555 14.8072C16.3465 15.3403 14.2293 15.6186 12.0002 15.6186C9.71475 15.6186 7.55053 15.3574 5.92341 14.8013C3.86484 14.0977 2.625 12.9849 2.625 12.0277C2.625 11.0988 3.78844 10.0726 5.74237 9.39141C7.39331 8.81578 9.62859 8.47153 11.9998 8.47153H12.0002Z" stroke="white" stroke-width="0.556938"/>
<path d="M8.90447 10.2598C10.0777 8.22562 11.4592 6.50419 12.7716 5.36231C14.3526 3.98634 15.8572 3.44747 16.6684 3.91519C17.5137 4.40269 17.8204 6.07031 17.368 8.26612C17.0263 9.92615 16.2094 11.8992 15.0957 13.8303C13.9539 15.8101 12.6466 17.5544 11.3522 18.6858C9.71428 20.1175 8.13075 20.6357 7.30153 20.1575C6.49687 19.6938 6.18919 18.1731 6.57525 16.1401C6.9014 14.4223 7.71993 12.314 8.90409 10.2598H8.90447Z" stroke="white" stroke-width="0.556938"/>
<path d="M8.90738 13.8354C7.73091 11.8035 6.92991 9.74644 6.5956 8.03925C6.19313 5.98228 6.47766 4.40963 7.28813 3.9405C8.13272 3.4515 9.7305 4.01869 11.4069 5.50725C12.6744 6.63263 13.976 8.32547 15.0928 10.2547C16.2379 12.2326 17.0961 14.2365 17.4299 15.9229C17.8523 18.057 17.5104 19.6876 16.682 20.1671C15.8782 20.6325 14.4071 20.1398 12.8386 18.79C11.5133 17.6497 10.0955 15.8876 8.90738 13.8354Z" stroke="white" stroke-width="0.556938"/>
</g>
<defs>
<clipPath id="clip0_528_31">
<rect width="24" height="24" fill="white"/>
</clipPath>
</defs>
</svg>
