<svg width="24" height="24" viewBox="0 0 24 24" fill="none" xmlns="http://www.w3.org/2000/svg">
<rect width="24" height="24" rx="5" fill="#CC6699"/>
<path d="M19.5274 5.13598C18.984 3.00512 15.45 2.30741 12.1054 3.49198C10.0108 4.19572 8.07556 5.30577 6.41057 6.75855C4.56857 8.48141 4.27457 9.98141 4.39543 10.608C4.824 12.8194 7.85228 14.2645 9.09771 15.3368V15.3428C8.73086 15.5237 6.04286 16.8857 5.412 18.2743C4.74857 19.7417 5.51743 20.7943 6.02743 20.9357C6.79313 21.12 7.59733 21.06 8.32721 20.7641C9.05708 20.4682 9.676 19.9512 10.0971 19.2857C10.4454 18.7466 10.6633 18.1337 10.7336 17.4958C10.8038 16.8578 10.7244 16.2122 10.5017 15.6103C11.1015 15.457 11.7252 15.4212 12.3386 15.5048C14.4437 15.7508 14.8569 17.0648 14.778 17.6151C14.7409 17.811 14.6621 17.9966 14.5469 18.1593C14.4316 18.322 14.2827 18.458 14.1103 18.558C13.9629 18.6497 13.9174 18.6805 13.9303 18.7491C13.9483 18.8477 14.016 18.8443 14.142 18.8228C14.4583 18.7232 14.7371 18.5301 14.9415 18.2689C15.1459 18.0077 15.2664 17.6907 15.2871 17.3597C15.3377 16.074 14.1026 14.6288 11.9151 14.6657C11.2798 14.647 10.6457 14.7339 10.0389 14.9228L9.94628 14.82C8.59371 13.3774 6.09428 12.3566 6.19971 10.4168C6.23828 9.71141 6.48343 7.85484 10.9997 5.60227C14.7026 3.75684 17.6666 4.26512 18.1791 5.39055C18.9111 6.99855 16.5951 9.98569 12.75 10.4168C12.325 10.5031 11.886 10.4926 11.4657 10.3861C11.0453 10.2795 10.6543 10.0797 10.3217 9.80141C10.1194 9.57855 10.0894 9.56912 10.014 9.61026C9.89143 9.67798 9.96943 9.87512 10.014 9.99169C10.1613 10.257 10.36 10.4903 10.5986 10.6778C10.8372 10.8653 11.1108 11.0033 11.4034 11.0837C12.9153 11.4117 14.492 11.2558 15.9103 10.638C18.2426 9.73884 20.0614 7.23169 19.5274 5.13598ZM9.61543 15.9968C9.78484 16.5838 9.77619 17.2079 9.59057 17.79C9.57057 17.8505 9.54857 17.9105 9.52457 17.97C9.50057 18.0294 9.47457 18.0865 9.44657 18.1414C9.30138 18.436 9.11462 18.7082 8.892 18.9497C8.19514 19.71 7.22057 19.998 6.80314 19.7554C6.35228 19.494 6.57771 18.4217 7.386 17.5671C8.00728 16.9532 8.72329 16.4433 9.50657 16.0568L9.61543 15.9968Z" fill="white"/>
</svg>
