<svg width="24" height="24" viewBox="0 0 24 24" fill="none" xmlns="http://www.w3.org/2000/svg">
<g clip-path="url(#clip0_529_48)">
<rect width="24" height="24" rx="5" fill="#466955"/>
<path d="M12 23.9838C18.6274 23.9838 24 18.6322 24 12.0305C24 5.42891 18.6274 0.0772285 12 0.0772285C5.37258 0.0772285 0 5.42891 0 12.0305C0 18.6322 5.37258 23.9838 12 23.9838Z" fill="#466955"/>
<path d="M17.2224 4.49407C16.005 4.53637 14.9424 5.20473 14.1515 6.12924C13.2757 7.14294 12.693 8.34527 12.2732 9.57254C11.5223 8.95947 10.9429 8.16579 9.7381 7.8197C8.80688 7.55337 7.82879 7.66338 6.92935 8.33089C6.50326 8.64794 6.20973 9.12719 6.07013 9.57768C5.70873 10.7484 6.4501 11.7903 6.78685 12.1645L7.52307 12.9504C7.67485 13.1045 8.04038 13.5065 7.86169 14.0829C7.66857 14.7095 6.91013 15.1152 6.13219 14.8762C5.78476 14.7706 5.28563 14.5128 5.39738 14.1497C5.4436 14.0012 5.55029 13.8901 5.60748 13.7617C5.65998 13.6514 5.68501 13.5687 5.70094 13.5201C5.84307 13.0579 5.64891 12.4565 5.15185 12.3038C4.68816 12.1622 4.21369 12.2744 4.02976 12.8691C3.82116 13.5448 4.14573 14.771 5.88441 15.305C7.92151 15.9284 9.64473 14.8236 9.88913 13.3826C10.0431 12.48 9.63394 11.8095 8.88441 10.9471L8.27373 10.2743C7.90379 9.90621 7.77676 9.27875 8.15963 8.79651C8.48269 8.38973 8.94282 8.21612 9.69638 8.42026C10.7964 8.71779 11.2867 9.47804 12.1048 10.0912C11.767 11.1949 11.5463 12.3028 11.3464 13.2962L11.2246 14.0368C10.6398 17.0925 10.1934 18.7703 9.03319 19.7336C8.79948 19.8992 8.46535 20.147 7.96173 20.1643C7.69773 20.1724 7.61241 19.9915 7.60876 19.9127C7.60248 19.7281 7.75866 19.6435 7.86244 19.5604C8.01751 19.4761 8.25198 19.3364 8.23604 18.8888C8.21916 18.3599 7.77929 17.9013 7.14348 17.9223C6.66723 17.9385 5.94132 18.3849 5.9686 19.2021C5.99701 20.0463 6.78685 20.6788 7.97766 20.6388C8.61423 20.617 10.0357 20.3589 11.4366 18.7001C13.0671 16.7986 13.5231 14.6187 13.8661 13.0232L14.249 10.9168C14.4617 10.9422 14.6891 10.9591 14.9365 10.965C16.9673 11.0077 17.983 9.95991 17.9981 9.19779C18.0082 8.73656 17.6943 8.28271 17.2549 8.29298C16.9404 8.30185 16.5452 8.51038 16.4503 8.94369C16.3577 9.36878 17.0965 9.7524 16.519 10.125C16.1088 10.3895 15.3733 10.5759 14.3376 10.4244L14.5259 9.38755C14.9103 7.42132 15.3844 5.00274 17.1829 4.94391C17.3139 4.93728 17.7936 4.94979 17.8047 5.26571C17.808 5.37124 17.7818 5.39813 17.6577 5.63972C17.5314 5.82808 17.4838 5.98842 17.4897 6.17267C17.5071 6.67471 17.8903 7.00464 18.4446 6.98475C19.1867 6.96084 19.4002 6.24112 19.388 5.8715C19.358 5.00302 18.4391 4.45438 17.2224 4.49407Z" fill="white"/>
</g>
<defs>
<clipPath id="clip0_529_48">
<rect width="24" height="24" fill="white"/>
</clipPath>
</defs>
</svg>
