<svg width="24" height="24" viewBox="0 0 24 24" fill="none" xmlns="http://www.w3.org/2000/svg">
<rect width="24" height="24" rx="5" fill="#63BF6A"/>
<g clip-path="url(#clip0_529_65)">
<path d="M5.33891 5.97777C5.48863 6.20634 6.76748 5.05892 7.88405 5.31434C9.06177 5.58406 10.1778 7.44234 10.6543 13.1429C11.3717 13.7872 12.0475 14.4762 12.6778 15.2058C12.8797 15.4397 13.0726 15.6721 13.2566 15.903C13.2844 15.6339 13.3281 15.3668 13.3875 15.1029C13.5951 14.1983 13.9798 13.3438 14.5195 12.5886C14.3381 10.7125 13.6752 8.91499 12.5949 7.37034C12.0063 6.54463 9.96634 3.66863 7.71148 4.03149C6.25777 4.26463 5.18234 5.74406 5.33891 5.97777Z" fill="#78DC50"/>
<path d="M16.668 19.9989C16.5153 18.7757 16.4199 17.5459 16.3823 16.3137C16.3286 14.4669 16.4394 13.7189 16.8966 13.0246C17.0069 12.856 17.6326 11.896 18.3709 11.96C19.2086 12.0332 19.6354 13.3395 19.7206 13.2955C19.8206 13.244 19.5149 11.2709 18.2737 10.7635C16.788 10.156 14.6669 11.9463 13.8166 13.7086C13.5893 14.2222 13.4249 14.7613 13.3269 15.3143C12.9942 16.8528 12.8579 18.4273 12.9212 20L16.668 19.9989Z" fill="#78DC50"/>
<path d="M4.00407 10.8189C4.08692 10.5635 5.41435 10.6709 6.59835 10.9863C8.02693 11.3669 10.5984 12.3258 13.2561 15.9041C14.0124 17.1315 14.3808 18.5587 14.3132 19.999H8.66007C8.71955 19.1178 8.68603 18.2329 8.56007 17.359C8.45155 15.8973 7.96755 14.4884 7.15493 13.2686C5.83435 11.5183 3.8995 11.1418 4.00407 10.8189Z" fill="#78DC50"/>
<path d="M12.6109 16.1835C12.6108 16.4153 12.5304 16.6398 12.3832 16.8189C12.2361 16.9979 12.0315 17.1205 11.8042 17.1656C11.5769 17.2106 11.3409 17.1755 11.1366 17.0663C10.9323 16.9569 10.7722 16.7801 10.6836 16.5659C10.595 16.3518 10.5834 16.1136 10.6507 15.8919C10.7181 15.6701 10.8603 15.4785 11.053 15.3499C11.2458 15.2212 11.4771 15.1634 11.7078 15.1862C11.9384 15.209 12.154 15.311 12.3178 15.475C12.4109 15.568 12.4847 15.6784 12.535 15.8C12.5853 15.9216 12.6111 16.0519 12.6109 16.1835ZM15.2824 16.1835C15.2822 16.4153 15.2018 16.6398 15.0547 16.8189C14.9076 16.9979 14.7029 17.1205 14.4756 17.1656C14.2483 17.2106 14.0124 17.1755 13.808 17.0663C13.6037 16.9569 13.4436 16.7801 13.355 16.5659C13.2664 16.3518 13.2548 16.1136 13.3222 15.8919C13.3895 15.6701 13.5317 15.4785 13.7244 15.3499C13.9172 15.2212 14.1486 15.1634 14.3792 15.1862C14.6098 15.209 14.8254 15.311 14.9892 15.475C15.0823 15.568 15.1561 15.6784 15.2064 15.8C15.2567 15.9216 15.2825 16.0519 15.2824 16.1835Z" fill="white"/>
</g>
<defs>
<clipPath id="clip0_529_65">
<rect width="16" height="16" fill="white" transform="translate(4 4)"/>
</clipPath>
</defs>
</svg>
